Number of suspicious elements
^^^^^^^^^^^^^^^^^^^^^^^^^^^^^
554

Element dimension
^^^^^^^^^^^^^^^^^
2

Quality measure output (0...no, 1...yes)
^^^^^^^^^^^^^^^^^^^^^^^^^^^^^^^^^^^^^^^^
0

Element ID, element quality (if used; 0: worst, 1: best)
^^^^^^^^^^^^^^^^^^^^^^^^^^^^^^^^^^^^^^^^^^^^^^^^^^^^^^^^
1524
1988
2004
2091
2102
2104
2105
2110
2113
2114
2116
2117
2119
2120
2123
2125
2129
2132
2134
2135
2136
2137
2138
2140
2143
2146
2152
2210
2217
2219
2275
2297
2330
2331
2332
2334
2336
2339
2341
2342
2343
2344
2345
2346
2347
2348
2349
2351
2353
2354
2355
2356
2361
2362
2363
2365
2366
2370
2371
2372
2373
2376
2377
2378
2379
2380
2381
2382
2384
2385
2386
2388
2389
2390
2393
2394
2396
2399
2400
2401
2402
2403
2404
2405
2406
2407
2408
2409
2410
2411
2412
2413
2414
2415
2416
2417
2418
2421
2423
2424
2425
2426
2427
2429
2430
2431
2432
2433
2434
2436
2437
2438
2439
2440
2441
2442
2443
2444
2445
2446
2447
2448
2449
2450
2451
2452
2453
2454
2455
2456
2458
2459
2460
2461
2462
2464
2465
2467
2474
2475
2476
2477
2478
2479
2480
2481
2482
2483
2488
2520
2522
2523
2525
2529
2530
2531
2532
2533
2534
2535
2536
2537
2541
2543
2544
2546
2550
2551
2554
2555
2556
2558
2559
2560
2561
2562
2563
2565
2566
2567
2568
2569
2570
2571
2572
2573
2574
2575
2578
2586
2587
2597
2601
2602
2606
2613
2615
2616
2617
2618
2620
2621
2622
2624
2625
2626
2627
2628
2631
2632
2633
2634
2635
2636
2637
2638
2684
2689
2690
2713
2817
2821
3556
3560
3561
3562
3565
3567
3569
3680
3721
3723
3725
3726
3728
3729
3733
3734
3735
3736
3737
3738
3739
3740
3741
3742
3743
3744
3745
3746
3747
3748
3749
3753
3756
3758
3761
3770
3772
3779
3780
3783
3785
3787
3793
3802
3803
3804
3816
3817
3818
3819
3822
3823
3826
3828
3830
3831
3832
3833
3834
3836
3843
3844
3845
3850
3854
3857
3860
3873
3874
3882
3884
3889
3891
3894
3897
3908
3919
3922
3928
3929
3934
3986
4099
4100
4101
4102
4103
4104
4105
4106
4107
4108
4109
4110
4111
4112
4113
4114
4151
4152
4154
4155
4156
4157
4159
4160
4161
4162
4164
4165
4166
4169
4177
4179
4182
4183
4184
4185
4191
4192
4193
4194
4195
4196
4197
4198
4201
4202
4203
4205
4206
4208
4209
4210
4211
4212
4213
4215
4218
4219
4220
4224
4225
4226
4227
4229
4230
4232
4233
4234
4235
4236
4237
4239
4240
4241
4242
4243
4244
4245
4246
4247
4248
4249
4251
4256
4259
4261
4263
4265
4270
4274
4275
4277
4278
4281
4282
4283
4285
4286
4287
4290
4291
4292
4293
4294
4295
4296
4298
4300
4302
4305
4306
4307
4308
4309
4314
4315
4316
4317
4318
4321
4325
4328
4330
4331
4332
4333
4335
4338
4339
4340
4341
4342
4344
4346
4347
4349
4355
4356
4361
4366
4370
4403
4406
4411
4413
4420
4422
4423
4424
4429
4430
4431
4519
4520
4521
4522
4523
4526
4529
4530
4531
4532
4533
4534
4535
4536
4537
4541
4542
4543
4544
4545
4546
4547
4548
4549
4550
4551
4553
4554
4555
4556
4557
4560
4573
4576
4582
4584
4586
4588
4598
4599
4634
4644
4645
4646
4647
4649
4650
4651
4652
4653
4654
4655
4656
4657
4658
4659
4660
4661
4662
4663
4664
4665
4666
4667
4668
4669
4670
4671
4672
4673
4674
4675
4676
4677
4678
4679
4680
4681
4682
4683
4684
4685
4686
4687
4688
4689
4690
4691
4692
4693
4695
4696
4697
4698
4699
4700
4701
4702
