Number of suspicious elements
^^^^^^^^^^^^^^^^^^^^^^^^^^^^^
554

Element dimension
^^^^^^^^^^^^^^^^^
2

Quality measure output (0...no, 1...yes)
^^^^^^^^^^^^^^^^^^^^^^^^^^^^^^^^^^^^^^^^
0

Element ID, element quality (if used; 0: worst, 1: best)
^^^^^^^^^^^^^^^^^^^^^^^^^^^^^^^^^^^^^^^^^^^^^^^^^^^^^^^^
1512
1521
1522
1523
1576
1581
1588
1602
1613
1615
1616
1923
1936
1938
1941
2422
2423
2433
2435
2438
2439
2441
2447
2501
2505
2510
2513
2514
2516
2522
2523
2529
2530
2551
2558
2560
2564
2569
2575
2582
2583
2584
2585
2586
2587
2588
2590
2617
2618
2620
2621
2622
2623
2624
2625
2626
2627
2628
2629
2630
2631
2632
2633
2634
2635
2636
2637
2638
2639
2640
2641
2642
2643
2644
2645
2646
2647
2648
2649
2650
2651
2652
2653
2654
2655
2656
2657
2658
2659
2660
2661
2662
2663
2664
2665
2666
2667
2668
2669
2670
2671
2672
2673
2674
2675
2676
2677
2678
2679
2680
2681
2682
2683
2684
2685
2686
2687
2688
2689
2690
2691
2692
2693
2694
2695
2696
2697
2698
2699
2700
2701
2702
2703
2704
2705
2706
2707
2708
2709
2710
2711
2712
2713
2714
2715
2716
2717
2718
2719
2720
2721
2723
2724
2725
2726
2727
2728
2729
2733
2734
2735
2736
2737
2738
2739
2740
2742
2748
2750
2752
2771
2774
2775
2777
2780
2781
2792
2794
2798
2806
2841
2850
3069
3070
3072
3074
3092
3093
3094
3095
3096
3097
3098
3099
3100
3101
3102
3103
3104
3105
3106
3107
3108
3109
3110
3111
3112
3113
3114
3115
3116
3117
3118
3119
3120
3121
3122
3123
3124
3128
3131
3132
3133
3135
3136
3137
3138
3139
3140
3141
3142
3143
3144
3146
3147
3148
3149
3150
3151
3152
3153
3154
3155
3156
3157
3158
3159
3160
3161
3162
3163
3171
3201
3202
3203
3207
3208
3209
3211
3212
3213
3214
3215
3216
3220
3221
3223
3229
3231
3237
3238
3239
3242
3244
3245
3246
3247
3250
3253
3254
3259
3261
3264
3267
3268
3276
3279
3284
3286
3287
3305
3310
3311
3312
3320
3326
3331
3332
3336
3339
3354
3360
3362
3363
3364
3371
3372
3389
3391
3393
3398
3399
3400
3402
3404
3406
3408
3409
3410
3412
3414
3415
3417
3418
3420
3421
3422
3423
3424
3426
3427
3428
3429
3430
3431
3432
3433
3434
3435
3436
3437
3438
3439
3440
3441
3442
3443
3444
3456
3458
3459
3460
3461
3462
3466
3468
3484
3492
3501
3504
3539
3543
3556
3563
3591
3595
3596
3597
3598
3599
3600
3601
3603
3604
3605
3606
3607
3608
3609
3610
3611
3612
3613
3614
3615
3616
3617
3618
3619
3620
3621
3622
3623
3624
3626
3628
3629
3630
3631
3632
3633
3635
3637
3638
3639
3640
3641
3642
3644
3646
3647
3648
3649
3650
3651
3652
3653
3654
3655
3656
3657
3658
3659
3661
3662
3663
3664
3665
3666
3667
3668
3669
3671
3672
3673
3674
3677
3678
3680
3681
3682
3683
3684
3685
3687
3688
3689
3690
3691
3692
3693
3694
3695
3696
3697
3698
3699
3700
3701
3702
3704
3705
3706
3707
3709
3710
3711
3715
3717
3719
3720
3728
3736
3740
3741
3744
3746
3747
3748
3749
3750
3751
3752
3754
3756
3757
3759
3760
3761
3762
3765
3766
3793
3797
3805
3875
3876
3877
3878
3879
3880
3881
3882
3883
3884
3885
3886
3887
3888
3889
3890
3897
3926
3929
3934
3936
3938
3939
3942
3947
3950
3952
3955
3956
3958
3990
3995
3996
3998
3999
4004
4054
4063
4064
4065
4066
4068
4070
4071
4074
4075
4076
4077
4078
4079
4080
4081
4083
4084
4085
4088
4089
4092
4123
