// Number 3D OBJECTS:
// ^^^^^^^^^^^^^^^^^^
33

// Obj3D_ID, MediaCode (0=Iso3D,1=LossyIso3D,2=PEC,3=Aniso3D,4=LossyAniso3D,5=SurfaceImp)
// ^^^^^^^^^^^^^^^^^^^^^^^^^^^^^^^^^^^^^^^^^^^^^^^^^^^^^^^^^^^^^^^^^^^^^^^^^^^^^^^^^^^^^^
0 0
>> Material name:
Vacuum

1 0
>> Material name:
air_0

2 0
>> Material name:
air_0

3 0
>> Material name:
air_0

4 1
>> Material name:
PDMS

5 1
>> Material name:
Galinstan/material1

6 1
>> Material name:
PDMS

7 1
>> Material name:
PVC

8 1
>> Material name:
nutrient_solution

9 0
>> Material name:
air_0

10 0
>> Material name:
air_0

11 0
>> Material name:
air_0

12 0
>> Material name:
air_0

13 0
>> Material name:
air_0

14 0
>> Material name:
air_0

15 0
>> Material name:
air_0

16 0
>> Material name:
air_0

17 0
>> Material name:
air_0

18 0
>> Material name:
air_0

19 0
>> Material name:
air_0

20 0
>> Material name:
air_0

21 0
>> Material name:
air_0

22 0
>> Material name:
air_0

23 0
>> Material name:
air_0

24 0
>> Material name:
air_0

25 0
>> Material name:
air_0

26 0
>> Material name:
air_0

27 0
>> Material name:
air_0

28 0
>> Material name:
air_0

29 0
>> Material name:
air_0

30 0
>> Material name:
air_0

31 0
>> Material name:
air_0

32 0
>> Material name:
air_0

// Number 2D OBJECTS:
// ^^^^^^^^^^^^^^^^^^
152

// Obj2D_ID, BCCode (0=Reg,1=PEC,2=PMC,3=RHO,4=OHM,5=PORT,6=OPEN,7=EXPANDEDOPEN,8=PERIODIC,9=TANGENTIAL,10=NORMAL):
// ^^^^^^^^^^^^^^^^^^^^^^^^^^^^^^^^^^^^^^^^^^^^^^^^^^^^^^^^^^^^^^^^^^^^^^^^^^^^^^^^^^^^^^^^^^^^^^^^^^^^^^^^^^^^^^^^
0 0

1 7

2 7

3 7

4 7

5 7

6 7

7 7

8 7

9 7

10 7

11 7

12 7

13 7

14 7

15 7

16 7

17 7

18 7

19 7

20 7

21 7

22 7

23 7

24 7

25 0

26 0

27 7

28 7

29 0

30 0

31 7

32 7

33 0

34 0

35 7

36 7

37 0

38 0

39 7

40 7

41 0

42 0

43 7

44 7

45 0

46 0

47 7

48 7

49 0

50 0

51 7

52 7

53 0

54 0

55 7

56 7

57 0

58 0

59 7

60 7

61 0

62 0

63 7

64 7

65 0

66 0

67 7

68 7

69 0

70 0

71 7

72 7

73 0

74 0

75 0

76 0

77 7

78 0

79 0

80 0

81 0

82 7

83 0

84 0

85 0

86 0

87 7

88 0

89 0

90 0

91 0

92 7

93 0

94 0

95 0

96 0

97 7

98 0

99 0

100 0

101 0

102 7

103 0

104 0

105 0

106 0

107 0

108 0

109 0

110 0

111 0

112 0

113 0

114 0

115 0

116 0

117 0

118 0

119 0

120 0

121 0

122 0

123 0

124 0

125 0

126 0

127 0

128 0

129 0

130 0

131 0

132 0

133 0

134 0

135 0

136 0

137 0

138 0

139 0

140 0

141 0

142 0

143 0

144 0

145 0

146 0

147 0

148 0

149 0

150 0

151 0

// Number 1D OBJECTS:
// ^^^^^^^^^^^^^^^^^^
3

// Obj1D_ID, BCCode (0=Reg,1=PEC,2=PMC,3=PORT,4=Lumped):
// ^^^^^^^^^^^^^^^^^^^^^^^^^^^^^^^^^^^^^^^^^^^^^^^^^^^^^
0 0
1 3
1
2 3
2

