Number of suspicious elements
^^^^^^^^^^^^^^^^^^^^^^^^^^^^^
708

Element dimension
^^^^^^^^^^^^^^^^^
2

Quality measure output (0...no, 1...yes)
^^^^^^^^^^^^^^^^^^^^^^^^^^^^^^^^^^^^^^^^
0

Element ID, element quality (if used; 0: worst, 1: best)
^^^^^^^^^^^^^^^^^^^^^^^^^^^^^^^^^^^^^^^^^^^^^^^^^^^^^^^^
1103
1104
1105
1107
1108
1109
1112
1132
1133
1134
1135
1136
1137
1140
1145
1147
1151
1155
1157
1160
1161
1162
1163
1167
1171
1172
1173
1185
1186
1188
1191
1192
1194
1198
1200
1206
1208
1209
1211
1213
1214
1217
1219
1222
1224
1226
1229
1230
1245
1246
1250
1252
1254
1256
1259
1261
1262
1263
1264
1265
1266
1267
1268
1269
1270
1271
1272
1273
1274
1276
1293
1298
1301
1304
1306
1307
1308
1309
1310
1323
1324
1331
1337
1338
1374
1673
1683
1689
1693
1694
1695
1715
1723
1724
1725
1726
1727
1728
1729
1730
1731
1732
1733
1734
1735
1736
1737
1738
1739
1740
1741
1742
1743
1744
1745
1746
1747
1748
1749
1750
1751
1752
1753
1754
1755
1756
1757
1758
1759
1760
1761
1762
1763
1764
1765
1766
1767
1768
1769
1770
1771
1772
1773
1774
1775
1776
1777
1778
1779
1780
1781
1782
1783
1784
1785
1786
1787
1788
1789
1790
1791
1792
1793
1794
1795
1796
1797
1798
1799
1800
1801
1802
1803
1804
1805
1806
1807
1808
1809
1810
1811
1812
1813
1814
1815
1816
1817
1818
1819
1820
1821
1822
1823
1824
1825
1826
1827
1828
1829
1830
1831
1832
1833
1846
1848
1850
1855
2570
2574
2587
2589
2590
2593
2594
2595
2596
2597
2602
2604
2607
2608
2609
2611
2613
2614
2615
2616
2617
2618
2621
2624
2625
2626
2627
2628
2629
2630
2631
2632
2633
2634
2635
2636
2637
2638
2639
2641
2643
2644
2645
2646
2647
2648
2649
2650
2651
2652
2653
2654
2655
2656
2657
2658
2659
2660
2661
2662
2663
2664
2665
2666
2667
2668
2669
2670
2671
2672
2673
2674
2676
2677
2678
2680
2681
2682
2683
2684
2685
2686
2687
2688
2689
2690
2691
2692
2693
2694
2696
2697
2698
2699
2700
2701
2702
2703
2704
2705
2706
2707
2708
2709
2710
2711
2716
2719
2720
2722
2723
2724
2725
2730
2731
2732
2739
2741
2743
2745
2747
2749
2751
2752
2753
2755
2756
2760
2762
2765
2766
2767
2768
2771
2778
2779
2781
2786
2790
2791
2792
2793
2795
2799
2803
2804
2807
2809
2810
2812
2814
2815
2816
2817
2819
2821
2822
2824
2825
2826
2834
2840
2841
2842
2843
2844
2845
2846
2847
2849
2851
2852
2853
2854
2855
2856
2857
2858
2859
2860
2861
2862
2864
2865
2866
2868
2870
2871
2872
2873
2874
2875
2876
2877
2878
2879
2880
2881
2882
2883
2884
2885
2886
2887
2888
2889
2890
2891
2892
2893
2894
2895
2896
2897
2898
2899
2900
2901
2902
2903
2904
2905
2906
2907
2908
2909
2910
2911
2912
2913
2914
2915
2916
2917
2918
2919
2920
2921
2922
2923
2924
2925
2926
2927
2928
2930
2931
2932
2933
2934
2935
2936
2937
2938
2939
2940
2941
2942
2943
2944
2945
2946
2947
2948
2949
2950
2951
2952
2953
2954
2955
2956
2957
2959
2960
2961
2962
2963
2964
2965
2966
2967
2968
2969
2970
2971
2972
2973
2974
2975
2976
2977
2978
2983
2986
2987
2988
2992
2993
2996
2998
3011
3012
3014
3016
3020
3021
3022
3035
3036
3037
3038
3039
3040
3041
3042
3044
3045
3046
3050
3052
3054
3055
3058
3059
3060
3061
3062
3063
3064
3065
3066
3067
3068
3069
3070
3071
3072
3073
3074
3075
3076
3077
3078
3079
3080
3081
3082
3084
3085
3086
3087
3088
3089
3090
3091
3092
3093
3094
3095
3096
3097
3098
3103
3110
3114
3116
3118
3122
3125
3126
3134
3141
3142
3146
3148
3149
3150
3152
3154
3155
3156
3157
3159
3160
3162
3164
3167
3168
3176
3177
3179
3184
3216
3218
3219
3220
3221
3222
3223
3224
3225
3226
3227
3228
3229
3230
3231
3246
3250
3251
3252
3258
3265
3266
3267
3268
3269
3271
3272
3273
3274
3275
3276
3277
3280
3281
3282
3283
3284
3285
3286
3287
3288
3289
3290
3293
3294
3295
3296
3297
3299
3300
3301
3303
3306
3308
3310
3315
3317
3318
3319
3321
3324
3325
3326
3327
3328
3329
3330
3331
3332
3333
3334
3337
3338
3339
3340
3342
3343
3345
3346
3347
3348
3349
3350
3351
3352
3353
3355
3356
3357
3358
3359
3360
3362
3363
3364
3365
3366
3367
3368
3369
3370
3371
3372
3373
3374
3375
3376
3377
