// Number of object-id's
36

// List object-id's with types (0=solid, 1=background, 2=sheet, 3=wire, 4=portwire, 5=portelement, 6=coil, 7=lumpedelement, 8=lumpedwire, 9=current path, 10=voltage path):
[6,0]air_0:brick
1
[4,0]air_0:brick
1
[2,0]air_0:brick
1
component1:Microstrip_line
0
component1:PDMS_microstrip
0
component1:solid1
0
component1:PVC_Pipe
0
component1:PDMS
0
component1:slot_ring
0
component1:inner_slot_ring
0
air_0:brick
1
[1,0]air_0:brick
1
[3,0]air_0:brick
1
[5,0]air_0:brick
1
[7,1]air_0:brick
1
[8,1]air_0:brick
1
[9,1]air_0:brick
1
[10,1]air_0:brick
1
[11,1]air_0:brick
1
[12,1]air_0:brick
1
[13,1]air_0:brick
1
[14,1]air_0:brick
1
[15,1]air_0:brick
1
[16,1]air_0:brick
1
[17,1]air_0:brick
1
[18,1]air_0:brick
1
[19,5]air_0:brick
1
[20,5]air_0:brick
1
[21,5]air_0:brick
1
[22,5]air_0:brick
1
[23,5]air_0:brick
1
[24,5]air_0:brick
1
[25,5]air_0:brick
1
[26,5]air_0:brick
1
1
5
2
5

// Number of 0D groups with object-id
0

// 0D Groupd-id, object-id

// Number of 1D groups with object-id
2

// 1D Groupd-id, object-id
1 35
2 36

// Number of 2D groups with object-id
171

// 2D Groupd-id, object-id from, object-id to
1 34 -1 -1 -1 -1 -1
2 34 -1 -1 -1 -1 -1
3 34 -1 -1 -1 -1 -1
4 33 -1 -1 -1 -1 -1
5 33 -1 -1 -1 -1 -1
6 33 -1 -1 -1 -1 -1
7 32 -1 -1 -1 -1 -1
8 32 -1 -1 -1 -1 -1
9 32 -1 -1 -1 -1 -1
10 31 -1 -1 -1 -1 -1
11 31 -1 -1 -1 -1 -1
12 31 -1 -1 -1 -1 -1
13 30 -1 -1 -1 -1 -1
14 30 -1 -1 -1 -1 -1
15 30 -1 -1 -1 -1 -1
16 29 -1 -1 -1 -1 -1
17 29 -1 -1 -1 -1 -1
18 29 -1 -1 -1 -1 -1
19 28 -1 -1 -1 -1 -1
20 28 -1 -1 -1 -1 -1
21 28 -1 -1 -1 -1 -1
22 27 -1 -1 -1 -1 -1
23 27 -1 -1 -1 -1 -1
24 27 -1 -1 -1 -1 -1
25 34 26 -1 -1 -1 -1
26 30 26 -1 -1 -1 -1
27 26 -1 -1 -1 -1 -1
28 26 -1 -1 -1 -1 -1
29 33 25 -1 -1 -1 -1
30 29 25 -1 -1 -1 -1
31 25 -1 -1 -1 -1 -1
32 25 -1 -1 -1 -1 -1
33 32 24 -1 -1 -1 -1
34 28 24 -1 -1 -1 -1
35 24 -1 -1 -1 -1 -1
36 24 -1 -1 -1 -1 -1
37 31 23 -1 -1 -1 -1
38 27 23 -1 -1 -1 -1
39 23 -1 -1 -1 -1 -1
40 23 -1 -1 -1 -1 -1
41 32 22 -1 -1 -1 -1
42 33 22 -1 -1 -1 -1
43 22 -1 -1 -1 -1 -1
44 22 -1 -1 -1 -1 -1
45 28 21 -1 -1 -1 -1
46 29 21 -1 -1 -1 -1
47 21 -1 -1 -1 -1 -1
48 21 -1 -1 -1 -1 -1
49 27 20 -1 -1 -1 -1
50 30 20 -1 -1 -1 -1
51 20 -1 -1 -1 -1 -1
52 20 -1 -1 -1 -1 -1
53 31 19 -1 -1 -1 -1
54 34 19 -1 -1 -1 -1
55 19 -1 -1 -1 -1 -1
56 19 -1 -1 -1 -1 -1
57 27 18 -1 -1 -1 -1
58 28 18 -1 -1 -1 -1
59 18 -1 -1 -1 -1 -1
60 18 -1 -1 -1 -1 -1
61 30 17 -1 -1 -1 -1
62 29 17 -1 -1 -1 -1
63 17 -1 -1 -1 -1 -1
64 17 -1 -1 -1 -1 -1
65 34 16 -1 -1 -1 -1
66 33 16 -1 -1 -1 -1
67 16 -1 -1 -1 -1 -1
68 16 -1 -1 -1 -1 -1
69 31 15 -1 -1 -1 -1
70 32 15 -1 -1 -1 -1
71 15 -1 -1 -1 -1 -1
72 15 -1 -1 -1 -1 -1
73 16 1 -1 -1 -1 -1
74 22 1 -1 -1 -1 -1
75 15 1 -1 -1 -1 -1
76 19 1 -1 -1 -1 -1
77 1 -1 -1 -1 -1 -1
78 18 14 -1 -1 -1 -1
79 21 14 -1 -1 -1 -1
80 17 14 -1 -1 -1 -1
81 20 14 -1 -1 -1 -1
82 14 -1 -1 -1 -1 -1
83 15 2 -1 -1 -1 -1
84 24 2 -1 -1 -1 -1
85 18 2 -1 -1 -1 -1
86 23 2 -1 -1 -1 -1
87 2 -1 -1 -1 -1 -1
88 16 13 -1 -1 -1 -1
89 26 13 -1 -1 -1 -1
90 17 13 -1 -1 -1 -1
91 25 13 -1 -1 -1 -1
92 13 -1 -1 -1 -1 -1
93 19 3 -1 -1 -1 -1
94 23 3 -1 -1 -1 -1
95 20 3 -1 -1 -1 -1
96 26 3 -1 -1 -1 -1
97 3 -1 -1 -1 -1 -1
98 22 12 -1 -1 -1 -1
99 25 12 -1 -1 -1 -1
100 21 12 -1 -1 -1 -1
101 24 12 -1 -1 -1 -1
102 12 -1 -1 -1 -1 -1
103 11 1 -1 -1 -1 -1
104 11 2 -1 -1 -1 -1
105 11 3 -1 -1 -1 -1
106 12 11 -1 -1 -1 -1
107 14 11 -1 -1 -1 -1
108 13 11 -1 -1 -1 -1
109 11 5 -1 -1 -1 -1
110 11 5 -1 -1 -1 -1
111 11 5 -1 -1 -1 -1
112 11 5 -1 -1 -1 -1
113 11 5 -1 -1 -1 -1
114 11 8 -1 -1 -1 -1
115 11 8 -1 -1 -1 -1
116 11 8 -1 -1 -1 -1
117 11 8 -1 -1 -1 -1
118 8 5 -1 -1 -1 -1
119 11 8 -1 -1 -1 -1
120 11 8 -1 -1 -1 -1
121 11 7 -1 -1 -1 -1
122 11 7 -1 -1 -1 -1
123 8 7 -1 -1 -1 -1
124 11 7 -1 -1 -1 -1
125 7 6 -1 -1 -1 -1
126 11 6 -1 -1 -1 -1
127 11 6 -1 -1 -1 -1
128 10 8 -1 -1 -1 -1
129 10 8 -1 -1 -1 -1
130 10 8 -1 -1 -1 -1
131 10 8 -1 -1 -1 -1
132 10 8 -1 -1 -1 -1
133 10 8 -1 -1 -1 -1
134 9 8 -1 -1 -1 -1
135 9 8 -1 -1 -1 -1
136 9 8 -1 -1 -1 -1
137 9 8 -1 -1 -1 -1
138 9 8 -1 -1 -1 -1
139 9 8 -1 -1 -1 -1
140 9 8 -1 -1 -1 -1
141 8 8 -1 -1 -1 -1
142 8 8 -1 -1 -1 -1
143 10 8 -1 -1 -1 -1
144 8 8 -1 -1 -1 -1
145 8 8 -1 -1 -1 -1
146 9 8 -1 -1 -1 -1
147 8 8 -1 -1 -1 -1
148 9 9 -1 -1 -1 -1
149 9 9 -1 -1 -1 -1
150 9 8 -1 -1 -1 -1
151 8 8 -1 -1 -1 -1
152 8 8 -1 -1 -1 -1
153 8 8 -1 -1 -1 -1
154 8 8 -1 -1 -1 -1
155 9 8 -1 -1 -1 -1
156 9 8 -1 -1 -1 -1
157 10 8 -1 -1 -1 -1
158 9 8 -1 -1 -1 -1
159 10 10 -1 -1 -1 -1
160 10 10 -1 -1 -1 -1
161 10 8 -1 -1 -1 -1
162 10 8 -1 -1 -1 -1
163 10 8 -1 -1 -1 -1
164 10 8 -1 -1 -1 -1
165 8 8 -1 -1 -1 -1
166 5 4 -1 -1 -1 -1
167 5 4 -1 -1 -1 -1
168 5 4 -1 -1 -1 -1
169 5 4 -1 -1 -1 -1
170 5 4 -1 -1 -1 -1
171 5 4 -1 -1 -1 -1

// Number of 3D groups with object-id
34

// 3D Groupd-id, object-id
1 1
2 2
3 3
4 4
5 5
6 6
7 7
8 8
9 9
10 10
11 11
12 12
13 13
14 14
15 15
16 16
17 17
18 18
19 19
20 20
21 21
22 22
23 23
24 24
25 25
26 26
27 27
28 28
29 29
30 30
31 31
32 32
33 33
34 34

