Number of suspicious elements
^^^^^^^^^^^^^^^^^^^^^^^^^^^^^
97

Element dimension
^^^^^^^^^^^^^^^^^
2

Quality measure output (0...no, 1...yes)
^^^^^^^^^^^^^^^^^^^^^^^^^^^^^^^^^^^^^^^^
0

Element ID, element quality (if used; 0: worst, 1: best)
^^^^^^^^^^^^^^^^^^^^^^^^^^^^^^^^^^^^^^^^^^^^^^^^^^^^^^^^
200
201
205
209
210
211
212
214
223
224
225
231
241
246
247
268
274
275
276
383
384
385
386
388
389
390
393
397
398
399
400
401
405
406
407
413
414
482
488
489
509
516
543
586
588
589
593
607
660
710
717
726
3721
3722
3724
3727
3728
3729
3730
3731
3732
3734
3737
3738
3739
3740
3741
3742
3743
3744
3745
3746
3747
3754
3755
3756
3757
3759
3760
3762
3764
3769
3771
3774
3776
3777
3779
3788
3826
3830
3837
3844
3846
3848
3859
3892
3895
