// Number of object-id's
10

// List object-id's with types (0=solid, 1=background, 2=sheet, 3=wire, 4=portwire, 5=portelement, 6=coil, 7=lumpedelement, 8=lumpedwire, 9=current path, 10=voltage path):
component1:pvc pipe
0
component1:needle_1
0
component1:hole_puncher1
0
component1:new_PDMS
0
air_0:brick
1
component1:GND
0
component1:SRR_Circle
0
component1:needle_2
0
component1:Microstrip_horizontal
0
1
5

// Number of 0D groups with object-id
0

// 0D Groupd-id, object-id

// Number of 1D groups with object-id
1

// 1D Groupd-id, object-id
1 10

// Number of 2D groups with object-id
72

// 2D Groupd-id, object-id from, object-id to
1 5 -1 -1 -1 -1 -1
2 5 -1 -1 -1 -1 -1
3 5 -1 -1 -1 -1 -1
4 5 -1 -1 -1 -1 -1
5 5 -1 -1 -1 -1 -1
6 5 -1 -1 -1 -1 -1
7 5 1 -1 -1 -1 -1
8 5 1 -1 -1 -1 -1
9 5 1 -1 -1 -1 -1
10 5 1 -1 -1 -1 -1
11 5 4 -1 -1 -1 -1
12 4 1 -1 -1 -1 -1
13 5 4 -1 -1 -1 -1
14 5 4 -1 -1 -1 -1
15 5 4 -1 -1 -1 -1
16 5 4 -1 -1 -1 -1
17 8 4 -1 -1 -1 -1
18 8 4 -1 -1 -1 -1
19 8 4 -1 -1 -1 -1
20 9 8 -1 -1 -1 -1
21 9 8 -1 -1 -1 -1
22 9 8 -1 -1 -1 -1
23 8 4 -1 -1 -1 -1
24 9 4 -1 -1 -1 -1
25 8 8 -1 -1 -1 -1
26 9 4 -1 -1 -1 -1
27 9 4 -1 -1 -1 -1
28 9 4 -1 -1 -1 -1
29 9 4 -1 -1 -1 -1
30 9 4 -1 -1 -1 -1
31 9 4 -1 -1 -1 -1
32 8 8 -1 -1 -1 -1
33 9 4 -1 -1 -1 -1
34 9 4 -1 -1 -1 -1
35 9 4 -1 -1 -1 -1
36 6 6 -1 -1 -1 -1
37 6 6 -1 -1 -1 -1
38 4 4 -1 -1 -1 -1
39 4 4 -1 -1 -1 -1
40 4 4 -1 -1 -1 -1
41 4 4 -1 -1 -1 -1
42 4 4 -1 -1 -1 -1
43 4 4 -1 -1 -1 -1
44 4 4 -1 -1 -1 -1
45 6 6 -1 -1 -1 -1
46 3 2 -1 -1 -1 -1
47 4 4 -1 -1 -1 -1
48 6 3 -1 -1 -1 -1
49 6 2 -1 -1 -1 -1
50 4 3 -1 -1 -1 -1
51 4 2 -1 -1 -1 -1
52 4 3 -1 -1 -1 -1
53 6 4 -1 -1 -1 -1
54 6 4 -1 -1 -1 -1
55 6 2 -1 -1 -1 -1
56 6 3 -1 -1 -1 -1
57 6 3 -1 -1 -1 -1
58 6 4 -1 -1 -1 -1
59 6 4 -1 -1 -1 -1
60 4 2 -1 -1 -1 -1
61 6 4 -1 -1 -1 -1
62 6 4 -1 -1 -1 -1
63 6 4 -1 -1 -1 -1
64 6 4 -1 -1 -1 -1
65 7 4 -1 -1 -1 -1
66 7 4 -1 -1 -1 -1
67 7 4 -1 -1 -1 -1
68 7 4 -1 -1 -1 -1
69 7 4 -1 -1 -1 -1
70 7 4 -1 -1 -1 -1
71 7 4 -1 -1 -1 -1
72 7 4 -1 -1 -1 -1

// Number of 3D groups with object-id
9

// 3D Groupd-id, object-id
1 1
2 2
3 3
4 4
5 5
6 6
7 7
8 8
9 9

