Number of suspicious elements
^^^^^^^^^^^^^^^^^^^^^^^^^^^^^
103

Element dimension
^^^^^^^^^^^^^^^^^
2

Quality measure output (0...no, 1...yes)
^^^^^^^^^^^^^^^^^^^^^^^^^^^^^^^^^^^^^^^^
0

Element ID, element quality (if used; 0: worst, 1: best)
^^^^^^^^^^^^^^^^^^^^^^^^^^^^^^^^^^^^^^^^^^^^^^^^^^^^^^^^
3293
3314
3329
3330
3331
3332
3333
3346
3350
3355
3358
3360
3361
3362
3363
3364
3369
3370
3371
3372
3373
3374
3375
3376
3377
3378
3379
3383
3384
3385
3386
3387
3405
3407
3408
3413
3414
3415
3416
3417
3423
3428
3432
3439
3446
3456
3461
3462
3464
3465
3466
3468
3470
3471
3472
3481
3482
3485
3486
3488
3489
3490
3491
3492
3495
3503
3505
3507
3509
3510
3512
3513
3515
3522
3523
3525
3528
3556
3559
3560
3610
3612
3614
3622
3625
3626
3634
3635
3636
3638
3639
3640
3642
3644
3645
3654
3701
3718
3721
3772
3782
3988
4006
