// Number of object-id's
10

// List object-id's with types (0=solid, 1=background, 2=sheet, 3=wire, 4=portwire, 5=portelement, 6=coil, 7=lumpedelement, 8=lumpedwire, 9=current path, 10=voltage path):
component1:pvc pipe
0
component1:new_PDMS
0
component1:hole_puncher1
0
air_0:brick
1
component1:needle_1
0
component1:SRR_Circle
0
component1:Microstrip_horizontal
0
component1:needle_2
0
component1:GND
0
1
5

// Number of 0D groups with object-id
0

// 0D Groupd-id, object-id

// Number of 1D groups with object-id
1

// 1D Groupd-id, object-id
1 10

// Number of 2D groups with object-id
55

// 2D Groupd-id, object-id from, object-id to
1 4 -1 -1 -1 -1 -1
2 4 -1 -1 -1 -1 -1
3 4 -1 -1 -1 -1 -1
4 4 -1 -1 -1 -1 -1
5 4 -1 -1 -1 -1 -1
6 4 -1 -1 -1 -1 -1
7 6 2 -1 -1 -1 -1
8 6 2 -1 -1 -1 -1
9 6 2 -1 -1 -1 -1
10 6 2 -1 -1 -1 -1
11 6 2 -1 -1 -1 -1
12 6 2 -1 -1 -1 -1
13 9 4 -1 -1 -1 -1
14 9 4 -1 -1 -1 -1
15 9 4 -1 -1 -1 -1
16 4 3 -1 -1 -1 -1
17 9 4 -1 -1 -1 -1
18 9 3 -1 -1 -1 -1
19 9 4 -1 -1 -1 -1
20 9 4 -1 -1 -1 -1
21 9 9 -1 -1 -1 -1
22 9 2 -1 -1 -1 -1
23 9 2 -1 -1 -1 -1
24 5 3 -1 -1 -1 -1
25 5 4 -1 -1 -1 -1
26 5 2 -1 -1 -1 -1
27 4 2 -1 -1 -1 -1
28 9 2 -1 -1 -1 -1
29 9 2 -1 -1 -1 -1
30 9 2 -1 -1 -1 -1
31 9 2 -1 -1 -1 -1
32 3 2 -1 -1 -1 -1
33 4 2 -1 -1 -1 -1
34 4 2 -1 -1 -1 -1
35 4 2 -1 -1 -1 -1
36 4 2 -1 -1 -1 -1
37 4 2 -1 -1 -1 -1
38 4 2 -1 -1 -1 -1
39 4 1 -1 -1 -1 -1
40 4 1 -1 -1 -1 -1
41 4 1 -1 -1 -1 -1
42 4 1 -1 -1 -1 -1
43 8 7 -1 -1 -1 -1
44 8 2 -1 -1 -1 -1
45 8 2 -1 -1 -1 -1
46 7 2 -1 -1 -1 -1
47 7 2 -1 -1 -1 -1
48 7 2 -1 -1 -1 -1
49 7 2 -1 -1 -1 -1
50 7 2 -1 -1 -1 -1
51 7 2 -1 -1 -1 -1
52 7 2 -1 -1 -1 -1
53 7 2 -1 -1 -1 -1
54 7 2 -1 -1 -1 -1
55 7 2 -1 -1 -1 -1

// Number of 3D groups with object-id
9

// 3D Groupd-id, object-id
1 1
2 2
3 3
4 4
5 5
6 6
7 7
8 8
9 9

