Number of suspicious elements
^^^^^^^^^^^^^^^^^^^^^^^^^^^^^
1388

Element dimension
^^^^^^^^^^^^^^^^^
2

Quality measure output (0...no, 1...yes)
^^^^^^^^^^^^^^^^^^^^^^^^^^^^^^^^^^^^^^^^
0

Element ID, element quality (if used; 0: worst, 1: best)
^^^^^^^^^^^^^^^^^^^^^^^^^^^^^^^^^^^^^^^^^^^^^^^^^^^^^^^^
193
194
195
196
197
199
200
201
202
203
204
205
206
207
208
210
211
212
214
215
216
217
218
219
220
221
222
223
224
225
226
227
228
229
234
235
236
239
241
242
243
247
248
251
254
255
256
261
268
272
273
277
278
279
289
290
291
292
293
294
295
296
297
298
299
300
301
302
303
304
305
306
307
308
309
310
311
312
313
314
315
316
317
318
321
322
323
324
325
327
328
330
333
335
340
342
345
348
350
353
354
359
360
361
362
363
364
365
366
367
368
369
387
388
390
399
400
401
402
403
405
412
413
417
418
420
422
425
430
433
434
435
466
467
468
469
472
473
474
475
476
477
478
479
480
481
482
483
540
541
542
543
544
545
546
547
548
549
550
551
552
553
554
555
556
557
558
559
560
561
562
563
564
565
566
567
570
571
607
611
615
639
642
646
675
692
695
954
955
956
957
958
959
960
961
962
963
964
965
966
967
968
969
970
971
972
973
974
975
976
977
978
979
980
981
1010
1011
1012
1013
1014
1015
1016
1017
1018
1019
1021
1022
1023
1024
1025
1026
1027
1028
1029
1030
1031
1032
1033
1034
1035
1036
1037
1038
1039
1040
1041
1042
1043
1044
1045
1046
1047
1048
1049
1051
1052
1053
1054
1055
1056
1057
1058
1059
1060
1061
1062
1063
1064
1065
1066
1067
1068
1069
1070
1071
1072
1073
1074
1075
1076
1077
1078
1079
1080
1081
1082
1083
1084
1085
1086
1087
1088
1089
1090
1091
1092
1093
1094
1095
1096
1097
1098
1099
1100
1101
1102
1103
1104
1105
1106
1107
1108
1109
1110
1111
1112
1114
1115
1116
1117
1118
1119
1120
1121
1122
1123
1124
1125
1126
1127
1128
1129
1130
1131
1132
1133
1134
1135
1136
1137
1138
1139
1140
1141
1142
1143
1144
1145
1146
1147
1148
1149
1150
1152
1153
1154
1155
1156
1157
1158
1159
1160
1161
1162
1163
1164
1165
1166
1167
1168
1169
1170
1171
1172
1173
1174
1175
1176
1177
1178
1179
1180
1181
1182
1183
1184
1185
1186
1187
1188
1189
1190
1191
1192
1193
1195
1197
1199
1200
1201
1203
1204
1205
1206
1207
1208
1209
1210
1211
1212
1213
1215
1216
1217
1218
1219
1222
1223
1224
1225
1226
1228
1229
1230
1231
1232
1233
1234
1235
1236
1237
1238
1239
1240
1241
1242
1243
1244
1245
1246
1247
1248
1249
1250
1252
1253
1254
1255
1257
1258
1259
1260
1261
1264
1265
1267
1268
1269
1270
1271
1275
1277
1278
1279
1280
1283
1289
1290
1291
1292
1293
1294
1295
1297
1298
1299
1300
1301
1302
1303
1304
1305
1306
1307
1308
1309
1310
1311
1312
1314
1315
1316
1318
1319
1320
1321
1322
1323
1324
1325
1326
1327
1328
1329
1330
1331
1332
1333
1334
1335
1336
1337
1338
1339
1340
1341
1342
1343
1344
1345
1346
1347
1348
1349
1350
1351
1352
1353
1354
1355
1356
1357
1358
1359
1360
1361
1362
1363
1364
1365
1366
1367
1368
1369
1370
1371
1372
1373
1374
1375
1376
1377
1378
1379
1380
1381
1382
1383
1384
1385
1386
1387
1388
1389
1390
1391
1392
1393
1394
1395
1396
1397
1398
1399
1400
1401
1402
1403
1404
1405
1406
1407
1408
1409
1410
1411
1412
1413
1414
1415
1416
1417
1418
1419
1420
1421
1422
1423
1424
1425
1426
1427
1428
1429
1430
1431
1432
1433
1434
1435
1436
1437
1438
1439
1440
1441
1442
1443
1444
1445
1446
1447
1448
1449
1450
1451
1452
1453
1454
1455
1456
1457
1458
1459
1461
1462
1463
1464
1465
1467
1468
1469
1471
1473
1474
1475
1476
1477
1478
1479
1480
1481
1482
1483
1484
1485
1486
1487
1488
1489
1490
1491
1492
1493
1494
1495
1496
1498
1499
1500
1501
1502
1503
1504
1505
1506
1507
1508
1510
1512
1513
1514
1515
1516
1517
1518
1519
1520
1521
1522
1523
1525
1526
1527
1528
1529
1530
1531
1532
1533
1534
1535
1536
1537
1538
1540
1541
1542
1543
1544
1545
1546
1547
1548
1549
1550
1551
1552
1553
1554
1555
1556
1558
1561
1562
1564
1565
1567
1568
1569
1570
1571
1572
1573
1574
1575
1590
1593
1594
1595
1596
1597
1598
1599
1600
1601
1603
1604
1605
1606
1607
1609
1610
1611
1613
1614
1615
1618
1619
1621
1622
1623
1625
1627
1629
1631
1632
1636
1638
1639
1640
1642
1643
1644
1645
1646
1647
1648
1649
1650
1652
1654
1655
1656
1657
1658
1659
1660
1662
1667
1677
1680
1682
1684
1685
1697
1698
1703
1708
1709
1710
1711
1712
1717
1719
1721
1722
1723
1724
1725
1727
1728
1729
1730
1731
1732
1733
1735
1736
1737
1738
1740
1741
1742
1743
1744
1745
1746
1747
1748
1750
1754
1756
1757
1758
1759
1760
1761
1762
1765
1766
1767
1769
1770
1774
1776
1777
1778
1779
1780
1781
1782
1783
1784
1785
1787
1789
1791
1796
1797
1798
1800
1801
1803
1805
1806
1810
1811
1812
1813
1814
1815
1816
1817
1818
1819
1820
1821
1822
1823
1824
1825
1826
1828
1829
1830
1832
1833
1834
1835
1836
1837
1838
1839
1840
1841
1842
1843
1844
1850
1853
1854
1865
1866
1868
1870
1905
1908
1918
1921
1922
1924
1925
1929
1931
1933
1935
1936
1945
1948
1950
1951
1952
1953
1957
1958
1959
1960
1961
1962
1963
1964
1965
1966
1968
1969
1970
1971
1972
1973
1974
1975
1976
1977
1982
1984
1986
1987
1988
1989
1990
1991
1992
1993
1994
1995
1996
1997
1998
1999
2000
2001
2002
2003
2004
2005
2007
2008
2009
2010
2011
2012
2013
2014
2015
2016
2017
2018
2019
2020
2021
2022
2023
2024
2025
2026
2027
2028
2029
2032
2033
2034
2035
2036
2037
2038
2039
2040
2041
2042
2043
2044
2045
2046
2047
2048
2049
2050
2051
2052
2053
2054
2055
2056
2058
2059
2060
2061
2062
2063
2064
2065
2066
2067
2068
2069
2070
2071
2072
2073
2074
2075
2076
2077
2078
2079
2080
2081
2082
2083
2084
2085
2086
2087
2088
2089
2090
2091
2092
2093
2094
2095
2096
2097
2098
2099
2100
2101
2102
2103
2104
2105
2106
2107
2108
2109
2110
2111
2112
2113
2114
2115
2116
2117
2118
2119
2120
2121
2122
2123
2124
2125
2126
2127
2130
2131
2132
2133
2134
2135
2136
2137
2138
2139
2140
2141
2142
2143
2144
2145
2146
2147
2148
2149
2150
2151
2152
2153
2154
2155
2156
2157
2158
2159
2160
2161
2162
2163
2164
2165
2166
2167
2168
2169
2170
2171
2172
2173
2174
2175
2176
2177
2178
2179
2180
2181
2182
2183
2184
2185
2186
2187
2188
2189
2190
2191
2192
2193
2194
2195
2196
2197
2198
2199
2200
2201
2202
2203
2204
2205
2206
2207
2208
2209
2210
2211
2213
2214
2215
2216
2217
2218
2219
2220
2221
2222
2224
2225
2227
2229
2232
2234
2239
2241
2242
2243
2244
2245
2246
2247
2250
2251
2252
2256
2257
2260
2263
2264
2265
2267
2268
2270
2271
2272
2273
2276
2280
2281
2282
2285
2286
2288
2289
2290
2295
2297
2298
2302
2303
2304
2305
2306
2351
2352
2353
2355
2357
2359
2360
2361
2362
2363
2365
2366
2370
2371
2373
2374
2375
2376
2378
2379
2382
2386
2387
2388
2389
2390
2392
2393
2438
2679
2683
2684
2685
2687
2688
2689
2690
2691
2692
2693
2694
2695
2697
2699
2701
2702
2703
2704
2705
2706
2707
2708
2711
2713
2715
2716
2717
2718
2720
2723
2725
2726
2730
2731
2733
2734
2739
2740
2741
2755
2756
2757
2759
2765
2766
2767
2768
2769
2772
2774
2776
2777
2778
2779
2780
2781
2782
2783
2784
2785
2786
2787
2788
2789
2790
2792
2793
2794
2799
2801
2802
2806
2807
2809
2811
2812
2815
2816
2820
2836
2837
2839
2846
2848
2852
2855
2856
2857
2861
2862
2870
2871
2872
2874
2875
2879
2880
2883
2891
2893
2894
2975
3000
3014
3016
3030
3031
3051
3055
3176
3178
3199
3200
3201
3202
3203
3204
3205
3206
3207
3213
3214
3215
3217
3219
3221
3222
3223
3224
3225
3226
3227
3228
3229
3230
3232
