[15:43:51] -------- TetMesher Log --------
[15:43:51] Build Number: 20240614; ID: 2024.5 Release from 2024-06-14 (change 1285309); Date: 2024-06-14; ACIS version: 33.0.1, SPAresabs & SPAresnor: 1e-06, 1e-10; Problem class: High Frequency
[15:43:51] Temporary directory: "C:\Users\LOQ\Documents\Github repo\EM FM 2D\Modified not bent - final simulation\2D SRR T patch - modified - Copy - Copy\Temp\1-temp.tet"
[15:43:51] - Reading information
[15:43:51] - Building single body
[15:43:51] Found 69 faces.
[15:43:51] Choosing Advanced Boolean Loop...
[15:43:51] Volume Attributes enabled
[15:43:51] Attaching Volume Attributes
[15:43:51] Sorted out 2 special bodies.
[15:43:51] Processing 8 entities.
[15:43:51] Queue Size: 1
[15:43:51] Combining solid component1:GND and solid component1:needle_2 (Pair #1 out of 4)
[15:43:51] Combining solid component1:SRR_Circle and solid component1:hole_puncher1 (Pair #2 out of 4)
[15:43:51] Combining solid component1:Microstrip_horizontal and solid component1:needle_1 (Pair #3 out of 4)
[15:43:51] Adding solid component1:new_PDMS to solid component1:pvc pipe (Pair #4 out of 4)
[15:43:51] Processing 4 entities.
[15:43:51] Queue Size: 1
[15:43:51] Adding Compound Body to Compound Body (Pair #1 out of 2)
[15:43:51] Adding Compound Body to Compound Body (Pair #2 out of 2)
[15:43:51] Processing 2 entities.
[15:43:51] Queue Size: 1
[15:43:51] Adding Compound Body to Compound Body (Pair #1 out of 1)
[15:43:51] Exiting Boolean Unite Module.
[15:43:51] Added Compound Body (ID: 138, 111, 28, 154, 146, 60, 162, 290) to model
[15:43:51] Added background material (ID: 1) to model
[15:43:51] Added discrete port 1 (ID: 303) to model
[15:43:51] - Storing model cells
[15:43:51] [CADSurf] - Mesh sizes: global mesh size near to model = 3.2040000000000002e+00
              min requested = 3.2040000000000002e+00
              max requested = 2.1742912153100182e+01
[15:43:51] [CADSurf] MeshGems Version: MeshGems-Core 2.15-1
[15:43:51] [CADSurf] === Begin: PreCAD-related parameters ===
[15:43:51] [CADSurf] == CADSurf Parameters == 
[15:43:51] [CADSurf] meshgems_cadsurf_set_param(css, "use_precad",  "yes")
[15:43:51] [CADSurf] Bounding box diagonal = 1.6054083419219799e+02
[15:43:51] [CADSurf] meshgems_cadsurf_set_param(css, "remove_nano_edges",  "0")
[15:43:51] [CADSurf] meshgems_cadsurf_set_param(css, "discard_input_topology",  "0")
[15:43:51] [CADSurf] meshgems_cadsurf_set_param(css, "process_3d_topology",  "0")
[15:43:51] [CADSurf] meshgems_cadsurf_set_param(css, "discard_input_2d_topology",  "0")
[15:43:51] [CADSurf] Default periodic tolerance (1e-4*diag) = 1.6054083419219801e-02
[15:43:51] [CADSurf] Minimum periodic tolerance = 1.0000000000000001e-05
[15:43:51] [CADSurf] Setting it to max( 1.0000000000000001e-05, 1.6054083419219801e-02 )
[15:43:51] [CADSurf] meshgems_cadsurf_set_param(css, "periodic_tolerance",  "0.016054083419219801")
[15:43:51] [CADSurf] meshgems_cadsurf_set_param(css, "remove_duplicate_cad_faces",  "0")
[15:43:51] [CADSurf] meshgems_cadsurf_set_param(css, "remove_tiny_uv_edges",  "0")
[15:43:51] [CADSurf] === End: PreCAD-related parameters ===
[15:43:51] [CADSurf] ==
[15:43:51] [CADSurf] == CADSurf Parameters == 
[15:43:51] [CADSurf] meshgems_cadsurf_set_param(css, "verbose",  "3")
[15:43:51] [CADSurf] meshgems_cadsurf_set_param(css, "geometric_size_mode",  "local")
[15:43:51] [CADSurf] meshgems_cadsurf_set_param(css, "physical_size_mode",  "local")
[15:43:51] [CADSurf] 	 Max user size    = 2.1742912153100182e+01
[15:43:51] [CADSurf] 	 Global size near = 3.2040000000000002e+00
[15:43:51] [CADSurf] 	 Global size far  = 2.1742912153100182e+01
[15:43:51] [CADSurf] 	 Upper size bound = 2.1742912153100182e+01
[15:43:51] [CADSurf] meshgems_cadsurf_set_param(css, "max_size",  "21.742912153100182")
[15:43:51] [CADSurf] 	Calculating min. mesh size for CADSurf...
[15:43:51] [CADSurf] 	Diagonal of model + background box: 1.6054083419219799e+02
[15:43:51] [CADSurf] 	Min. mesh size by diagonal (1e-3 x diagonal): 1.6054083419219800e-01
[15:43:51] [CADSurf] 	Diagonal of model: 7.4702926314837228e+01
[15:43:51] [CADSurf] 	Min. mesh size of model: 3.2040000000000002e+00
[15:43:51] [CADSurf] 	Max. cell defined by user (near to model): 3.2040000000000002e+00
[15:43:51] [CADSurf] 	Min. cell defined by user: 0.0000000000000000e+00
[15:43:51] [CADSurf] 	Min. cell used for calculation: 3.2039999999999999e-02
[15:43:51] [CADSurf] 	Note: min. mesh size by diagonal is too large, consider using (0.01 x max. cell = 3.2039999999999999e-02)
[15:43:51] [CADSurf] Geometric refinement uses "min_size" setting.
[15:43:51] [CADSurf] CADSurf "min_size" is set to min. cell: 3.2039999999999999e-02
[15:43:51] [CADSurf] meshgems_cadsurf_set_param(css, "min_size",  "0.032039999999999999")
[15:43:51] [CADSurf] meshgems_cadsurf_set_param(css, "max_number_of_points_per_patch",  "0")
[15:43:51] [CADSurf] meshgems_cadsurf_set_param(css, "element_generation",  "local")
[15:43:51] [CADSurf] Setting Triangle as default element type
[15:43:51] [CADSurf] meshgems_cadsurf_set_param(css, "gradation",  "1.5")
[15:43:51] [CADSurf] meshgems_cadsurf_set_param(css, "volume_gradation",  "2")
[15:43:51] [CADSurf] meshgems_cadsurf_set_param(css, "patch_independent",  "0")
[15:43:51] [CADSurf] meshgems_cadsurf_set_param(css, "remove_tiny_edges",  "0")
[15:43:51] [CADSurf] meshgems_cadsurf_set_param(css, "optimise_tiny_edges",  "0")
[15:43:51] [CADSurf] meshgems_cadsurf_set_param(css, "tiny_edge_respect_geometry",  "1")
[15:43:51] [CADSurf] meshgems_cadsurf_set_param(css, "CheckWellDefined",  "8")
[15:43:51] [CADSurf] meshgems_cadsurf_set_param(css, "anisotropic",  "1")
[15:43:51] [CADSurf] meshgems_cadsurf_set_param(css, "anisotropic_ratio",  "5")
[15:43:51] [CADSurf] meshgems_cadsurf_set_param(css, "correct_surface_intersections",  "1")
[15:43:51] [CADSurf] meshgems_cadsurf_set_param(css, "intersection_processing_max_cost",  "15")
[15:43:51] [CADSurf] ==
[15:43:52] [CADSurf] Status: OK
[15:43:52] [CADSurf] Number of intersecting edges: 0, total edge count: 850
[15:43:52] [CADSurf] Number of intersecting faces: 0
[15:43:52] [CADSurf] - Mesh stats: N=2377, E=850, T=4956, Q=0
[15:43:52] [CADSurf] Testing watertightness
[15:43:52] [CADSurf] - OK
[15:43:52] Creating volume mesh from surface mesh
[15:43:52] [SrfToVol] Volume meshing: 6 threads will be allocated
[15:43:52] [SrfToVol] Running CVM
[15:43:52] [SrfToVol] Surface to volume mesh: verifying input data
[15:43:52] [SrfToVol] Not meshed regions = 223 225 226 227 229 231 

[15:43:52] [SrfToVol] Generate volume mesh for 4 subdomains using 6 threads 
 
[15:43:52] [SrfToVol] Assembling volume mesh
[15:43:52] [SrfToVol] Volume mesh generated - Status = ok
[15:43:52] [SrfToVol] - Volume mesh stats: Nb nodes = 3672, Nb edges = 849, Nb surface elements = 4860, Nb tets = 18471
[15:43:52] Creating mesh topology.
[15:43:52] Using mesh topology.
[15:43:52] Writing ACIS sat.tet file because UIDs may have changed.
[15:43:52] Using generalized mesh output routines.
[15:43:52] Writing Bc file
[15:43:52] Running model geometry simplification... 
[15:43:52] Model geometry simplification: 0 seconds
[15:43:52] Writing topot.tet...
[15:43:52] Done (topot.tet)
[15:43:52] Writing moegeom.tet ...
[15:43:52] Done (moegeom.tet) 
[15:43:52] Creating volume mesh from surface mesh - done
[15:43:52] Writing gex file for volume mesh
[15:43:52] Mesh curving:
[15:43:52]     available cores:   6
[15:43:52]     number of threads: 6
[15:43:52] Curving elements
[15:43:52]  Curve elements, order = 3

[15:43:52] 
#### Feedback Report Begins ####
#### Feedback Report Ends ####

[15:43:52] Done
