[02:07:23] -------- TetMesher Log --------
[02:07:23] Build Number: 20240614; ID: 2024.5 Release from 2024-06-14 (change 1285309); Date: 2024-06-14; ACIS version: 33.0.1, SPAresabs & SPAresnor: 1e-06, 1e-10; Problem class: High Frequency
[02:07:23] Temporary directory: "C:\Users\LOQ\Documents\Github repo\EM FM 2D\copper tape - Copy\copper_tape\Temp\1-temp.tet"
[02:07:23] - Reading information
[02:07:23] - Building single body
[02:07:23] Found 49 faces.
[02:07:23] Choosing Advanced Boolean Loop...
[02:07:23] Volume Attributes enabled
[02:07:23] Attaching Volume Attributes
[02:07:23] Sorted out 2 special bodies.
[02:07:23] Processing 7 entities.
[02:07:23] Queue Size: 1
[02:07:23] Combining solid component1:needle_1 and solid component1:needle_2 (Pair #1 out of 3)
[02:07:23] Adding solid component1:GND to solid component1:Microstrip_horizontal (Pair #2 out of 3)
[02:07:23] Adding solid component1:SRR_Circle to solid component1:pvc pipe (Pair #3 out of 3)
[02:07:23] Processing 4 entities.
[02:07:23] Queue Size: 1
[02:07:23] Adding Compound Body to Compound Body (Pair #1 out of 2)
[02:07:23] Adding Compound Body to solid component1:pvc plastic (Pair #2 out of 2)
[02:07:24] Processing 2 entities.
[02:07:24] Queue Size: 1
[02:07:24] Adding Compound Body to Compound Body (Pair #1 out of 1)
[02:07:24] Exiting Boolean Unite Module.
[02:07:24] Added Compound Body (ID: 67, 28, 157, 165, 173, 118, 186) to model
[02:07:24] Added background material (ID: 1) to model
[02:07:24] Added face port 1 (ID: 213) to model
[02:07:24] - Storing model cells
[02:07:24] [CADSurf] - Mesh sizes: global mesh size near to model = 1.0731999999999999e+01
              min requested = 6.3500000000000001e-01
              max requested = 2.1742912153100182e+01
[02:07:24] [CADSurf] MeshGems Version: MeshGems-Core 2.15-1
[02:07:24] [CADSurf] === Begin: PreCAD-related parameters ===
[02:07:24] [CADSurf] == CADSurf Parameters == 
[02:07:24] [CADSurf] meshgems_cadsurf_set_param(css, "use_precad",  "yes")
[02:07:24] [CADSurf] Bounding box diagonal = 1.4531037553088251e+02
[02:07:24] [CADSurf] meshgems_cadsurf_set_param(css, "remove_nano_edges",  "0")
[02:07:24] [CADSurf] meshgems_cadsurf_set_param(css, "discard_input_topology",  "0")
[02:07:24] [CADSurf] meshgems_cadsurf_set_param(css, "process_3d_topology",  "0")
[02:07:24] [CADSurf] meshgems_cadsurf_set_param(css, "discard_input_2d_topology",  "0")
[02:07:24] [CADSurf] Default periodic tolerance (1e-4*diag) = 1.4531037553088252e-02
[02:07:24] [CADSurf] Minimum periodic tolerance = 1.0000000000000001e-05
[02:07:24] [CADSurf] Setting it to max( 1.0000000000000001e-05, 1.4531037553088252e-02 )
[02:07:24] [CADSurf] meshgems_cadsurf_set_param(css, "periodic_tolerance",  "0.014531037553088252")
[02:07:24] [CADSurf] meshgems_cadsurf_set_param(css, "remove_duplicate_cad_faces",  "0")
[02:07:24] [CADSurf] meshgems_cadsurf_set_param(css, "remove_tiny_uv_edges",  "0")
[02:07:24] [CADSurf] === End: PreCAD-related parameters ===
[02:07:24] [CADSurf] ==
[02:07:24] [CADSurf] == CADSurf Parameters == 
[02:07:24] [CADSurf] meshgems_cadsurf_set_param(css, "verbose",  "3")
[02:07:24] [CADSurf] meshgems_cadsurf_set_param(css, "geometric_size_mode",  "local")
[02:07:24] [CADSurf] meshgems_cadsurf_set_param(css, "physical_size_mode",  "local")
[02:07:24] [CADSurf] 	 Max user size    = 2.1742912153100182e+01
[02:07:24] [CADSurf] 	 Global size near = 1.0731999999999999e+01
[02:07:24] [CADSurf] 	 Global size far  = 2.1742912153100182e+01
[02:07:24] [CADSurf] 	 Upper size bound = 2.1742912153100182e+01
[02:07:24] [CADSurf] meshgems_cadsurf_set_param(css, "max_size",  "21.742912153100182")
[02:07:24] [CADSurf] 	Calculating min. mesh size for CADSurf...
[02:07:24] [CADSurf] 	Diagonal of model + background box: 1.4531037553088251e+02
[02:07:24] [CADSurf] 	Min. mesh size by diagonal (1e-3 x diagonal): 1.4531037553088250e-01
[02:07:24] [CADSurf] 	Diagonal of model: 6.2078090459906349e+01
[02:07:24] [CADSurf] 	Min. mesh size of model: 6.3500000000000001e-01
[02:07:24] [CADSurf] 	Max. cell defined by user (near to model): 1.0731999999999999e+01
[02:07:24] [CADSurf] 	Min. cell defined by user: 0.0000000000000000e+00
[02:07:24] [CADSurf] 	Min. cell used for calculation: 1.0732000000000000e-01
[02:07:24] [CADSurf] 	Note: min. mesh size by diagonal is too large, consider using (0.01 x max. cell = 1.0732000000000000e-01)
[02:07:24] [CADSurf] Geometric refinement uses "min_size" setting.
[02:07:24] [CADSurf] CADSurf "min_size" is set to min. cell: 1.0732000000000000e-01
[02:07:24] [CADSurf] meshgems_cadsurf_set_param(css, "min_size",  "0.10732")
[02:07:24] [CADSurf] meshgems_cadsurf_set_param(css, "max_number_of_points_per_patch",  "0")
[02:07:24] [CADSurf] meshgems_cadsurf_set_param(css, "element_generation",  "local")
[02:07:24] [CADSurf] Setting Triangle as default element type
[02:07:24] [CADSurf] meshgems_cadsurf_set_param(css, "gradation",  "1.5")
[02:07:24] [CADSurf] meshgems_cadsurf_set_param(css, "volume_gradation",  "2")
[02:07:24] [CADSurf] meshgems_cadsurf_set_param(css, "patch_independent",  "0")
[02:07:24] [CADSurf] meshgems_cadsurf_set_param(css, "remove_tiny_edges",  "0")
[02:07:24] [CADSurf] meshgems_cadsurf_set_param(css, "optimise_tiny_edges",  "0")
[02:07:24] [CADSurf] meshgems_cadsurf_set_param(css, "tiny_edge_respect_geometry",  "1")
[02:07:24] [CADSurf] meshgems_cadsurf_set_param(css, "CheckWellDefined",  "8")
[02:07:24] [CADSurf] meshgems_cadsurf_set_param(css, "anisotropic",  "1")
[02:07:24] [CADSurf] meshgems_cadsurf_set_param(css, "anisotropic_ratio",  "5")
[02:07:24] [CADSurf] meshgems_cadsurf_set_param(css, "correct_surface_intersections",  "1")
[02:07:24] [CADSurf] meshgems_cadsurf_set_param(css, "intersection_processing_max_cost",  "15")
[02:07:24] [CADSurf] ==
[02:07:25] [CADSurf] Status: OK
[02:07:25] [CADSurf] Number of intersecting edges: 0, total edge count: 723
[02:07:25] [CADSurf] Number of intersecting faces: 0
[02:07:25] [CADSurf] - Mesh stats: N=1501, E=723, T=3388, Q=0
[02:07:25] [CADSurf] Testing watertightness
[02:07:25] [CADSurf] - OK
[02:07:25] Creating volume mesh from surface mesh
[02:07:25] [SrfToVol] Volume meshing: 6 threads will be allocated
[02:07:25] [SrfToVol] Running CVM
[02:07:25] [SrfToVol] Surface to volume mesh: verifying input data
[02:07:25] [SrfToVol] Not meshed regions = 235 236 237 238 239 241 242 

[02:07:25] [SrfToVol] Generate volume mesh for 6 subdomains using 6 threads 
 
[02:07:25] [SrfToVol] Assembling volume mesh
[02:07:25] [SrfToVol] Volume mesh generated - Status = ok
[02:07:25] [SrfToVol] - Volume mesh stats: Nb nodes = 2052, Nb edges = 707, Nb surface elements = 3316, Nb tets = 9912
[02:07:25] Creating mesh topology.
[02:07:25] Using mesh topology.
[02:07:25] Writing ACIS sat.tet file because UIDs may have changed.
[02:07:25] Using generalized mesh output routines.
[02:07:25] Writing Bc file
[02:07:25] Running model geometry simplification... 
[02:07:25] Model geometry simplification: 0 seconds
[02:07:25] Writing topot.tet...
[02:07:25] Done (topot.tet)
[02:07:25] Writing moegeom.tet ...
[02:07:25] Done (moegeom.tet) 
[02:07:25] Creating volume mesh from surface mesh - done
[02:07:25] Writing gex file for volume mesh
[02:07:25] Mesh curving:
[02:07:25]     available cores:   6
[02:07:25]     number of threads: 6
[02:07:25] Curving elements
[02:07:26]  Curve elements, order = 3

[02:07:30] 
#### Feedback Report Begins ####
#### Feedback Report Ends ####

[02:07:30] Done
