Number of suspicious elements
^^^^^^^^^^^^^^^^^^^^^^^^^^^^^
279

Element dimension
^^^^^^^^^^^^^^^^^
2

Quality measure output (0...no, 1...yes)
^^^^^^^^^^^^^^^^^^^^^^^^^^^^^^^^^^^^^^^^
0

Element ID, element quality (if used; 0: worst, 1: best)
^^^^^^^^^^^^^^^^^^^^^^^^^^^^^^^^^^^^^^^^^^^^^^^^^^^^^^^^
1473
1479
1528
1581
1705
1708
1758
1794
1844
1846
1847
1848
1849
1850
1851
1853
1855
1856
1857
1858
1859
1861
1863
1868
1869
1870
1871
1872
1873
1874
1875
1876
1877
1878
1879
1880
1881
1883
1887
1894
1904
1907
1908
1909
1911
1921
1946
1947
1954
2060
2067
2069
2070
2072
2073
2078
2080
2131
2216
2233
2278
2283
2285
2286
2288
2289
2290
2294
2295
2296
2297
2298
2299
2300
2301
2302
2303
2304
2305
2306
2307
2308
2309
2314
2333
2335
2349
2356
2370
2380
2381
2383
2384
2385
2386
2387
2389
2391
2392
2399
2400
2401
2403
2413
2654
2655
2656
2657
2658
2659
2660
2661
2662
2663
2664
2665
2666
2667
2668
2669
2678
2679
2682
2687
2706
2709
2710
2711
2713
2715
2722
2723
2725
2726
2727
2731
2735
2737
2741
2743
2748
2749
2751
2754
2757
2764
2765
2766
2767
2772
2773
2774
2775
2776
2777
2778
2784
2789
2791
2794
2796
2797
2815
2818
2819
2833
2845
2851
2856
2860
2862
2863
2864
2866
2867
2868
2869
2870
2871
2872
2874
2890
2906
2924
3509
3513
3514
3515
3517
3518
3524
3525
3529
3530
3531
3534
3538
3560
3561
3576
3580
3587
3590
3596
3601
3602
3607
3608
3609
3610
3613
3615
3616
3618
3620
3621
3623
3626
3629
3630
3633
3635
3636
3646
3658
4470
4471
4472
4475
4476
4477
4478
4480
4481
4482
4483
4484
4485
4486
4487
4490
4491
4492
4498
4499
4500
4501
4515
4516
4525
4535
4536
4537
4540
4541
4542
4543
4545
4546
4548
4549
4553
4554
4555
4556
4557
4560
4561
4562
4563
4564
4567
4568
4570
4571
4573
4574
4610
4616
