Number of suspicious elements
^^^^^^^^^^^^^^^^^^^^^^^^^^^^^
32

Element dimension
^^^^^^^^^^^^^^^^^
3

Quality measure output (0...no, 1...yes)
^^^^^^^^^^^^^^^^^^^^^^^^^^^^^^^^^^^^^^^^
1

Element ID, element quality (if used; 0: worst, 1: best)
^^^^^^^^^^^^^^^^^^^^^^^^^^^^^^^^^^^^^^^^^^^^^^^^^^^^^^^^
6715 1.02481e-06
7123 1.77699e-06
6268 1.91694e-06
7124 2.69592e-06
6995 3.47149e-06
6991 3.67748e-06
6998 4.6992e-06
6994 4.83268e-06
6273 6.00897e-06
7121 9.51468e-06
6742 1.28234e-05
5898 1.42606e-05
6170 1.91085e-05
5949 2.05026e-05
7118 2.12762e-05
6878 2.53784e-05
5983 2.62567e-05
5881 4.50532e-05
7135 4.58148e-05
6161 4.92973e-05
5997 5.3316e-05
7137 5.5031e-05
5891 5.93089e-05
5753 5.93089e-05
6248 6.13476e-05
6176 6.13476e-05
6048 7.80908e-05
5893 8.02851e-05
6203 8.81626e-05
6240 9.03834e-05
6855 9.31335e-05
6976 9.60449e-05
