refinementinfo

progressstart 0
progressstop 100
progresstext "Mesh refinement"

reftype edgesplit

refine edges
2571 2991
127 2991
2572 2992
2575 2995
130 2995
130 2996
2576 2996
138 2596
88 130
3011 87
87 3012
87 3013
87 3014
3191 87
87 3015
87 3016
87 3017
87 3060
87 3018
87 3021
87 3019
87 3023
87 3024
87 3025
87 3026
87 3027
87 3028
87 3029
87 3030
87 3031
87 2954
87 3033
87 3085
87 3084
3037 88
88 3036
88 3038
88 3039
3147 88
3040 88
88 3041
88 2682
88 3123
88 3047
88 3075
88 2951
88 2968
127 3051
3053 127
3055 127
127 3056
127 3058
127 3022
127 3020
127 3023
127 3060
127 3019
127 3021
130 3061
130 3063
130 3064
130 3066
130 3067
130 3043
130 3070
130 3069
130 3044
130 3042
2705 135
135 2707
138 2716
516 1571
525 1573
577 585
1819 1823
1878 1959
1917 1927
1971 3061
1971 3044
2565 3063
2588 3075
2589 2951
2595 3025
2596 3084
2596 3030
3013 2612
3014 2612
2612 3030
2618 3031
2640 3191
2665 3011
3013 2667
2668 2991
2669 3019
2670 3011
2670 3012
2671 3016
2672 3025
2672 3015
2673 3012
2673 3011
2674 3013
2674 3030
2675 3013
2675 3012
3037 2678
2680 3069
2680 2995
2682 3042
2686 3038
2991 2688
3051 2688
2689 2992
3053 2689
2689 3055
3055 2691
2692 3053
2692 3056
2692 3051
2692 3055
2693 2991
2995 2694
3061 2694
3063 2694
2694 3066
3064 2696
2698 3063
2698 3066
2698 3064
2699 2995
2705 3075
2714 3012
2840 3067
2846 3063
2846 3061
2951 3038
2955 3044
2955 3043
2955 3067
2961 3022
2967 3041
2967 3043
2967 2996
2967 3070
2971 3015
2971 3017
2971 3060
2971 3011
2972 2991
2972 3058
2972 3016
2973 3027
2973 3025
2974 3027
3063 2987
2991 3055
2991 3054
3156 2991
2991 3056
2991 3318
2991 3058
2991 3320
2991 3158
2991 3333
3055 2992
2992 3161
2992 3060
2992 3359
2995 3064
2995 3065
2995 3066
2995 3167
2995 3069
2995 3170
2995 3305
3063 2996
2996 3062
3064 2996
2996 3174
2996 3066
2996 3070
2996 3176
2996 3200
3008 3147
3147 3010
3012 3011
3011 3015
3011 3217
3011 3203
3011 3017
3011 3251
3011 3219
3011 3220
3011 3207
3011 3027
3011 3025
3011 3224
3011 3185
3011 3260
3013 3012
3217 3012
3012 3227
3012 3016
3012 3017
3012 3251
3012 3253
3012 3233
3012 3232
3012 3254
3012 3242
3012 3255
3012 3265
3012 3260
3012 3356
3012 3027
3012 3029
3012 3261
3012 3238
3012 3239
3012 3269
3014 3013
3227 3013
3190 3013
3013 3196
3013 3358
3013 3016
3013 3156
3013 3019
3013 3242
3013 3245
3013 3254
3013 3058
3013 3250
3013 3029
3013 3030
3013 3247
3013 3248
3013 3269
3141 3014
3014 3191
3014 3019
3014 3196
3014 3030
3015 3191
3015 3203
3015 3017
3015 3129
3015 3025
3015 3188
3016 3019
3016 3017
3016 3253
3016 3060
3016 3254
3016 3058
3017 3161
3017 3253
3017 3060
3017 3018
3019 3021
3019 3250
3019 3058
3019 3060
3020 3141
3025 3027
3025 3026
3025 3085
3025 3203
3026 3027
3026 3029
3026 3028
3027 3260
3027 3356
3027 3262
3027 3355
3027 3029
3027 3081
3028 3030
3028 3031
3028 3029
3029 3030
3029 3266
3029 3267
3029 3269
3029 3262
3029 3186
3030 3031
3030 3267
3031 3360
3036 3035
3035 3037
3035 3047
3037 3036
3038 3036
3270 3036
3036 3209
3036 3041
3036 3042
3036 3069
3036 3303
3036 3285
3036 3286
3036 3047
3036 3289
3037 3040
3271 3037
3037 3041
3037 3043
3037 3047
3038 3209
3038 3042
3040 3199
3040 3044
3041 3042
3041 3043
3042 3068
3042 3043
3042 3304
3042 3307
3042 3070
3043 3200
3043 3307
3044 3061
3051 3056
3051 3318
3053 3052
3053 3056
3053 3055
3054 3055
3054 3056
3054 3058
3324 3055
3161 3055
3055 3056
3055 3321
3055 3332
3055 3060
3055 3058
3055 3256
3056 3318
3057 3058
3058 3250
3058 3060
3060 3161
3060 3364
3060 3359
3061 3123
3061 3067
3062 3066
3062 3064
3062 3067
3063 3335
3063 3067
3065 3064
3174 3064
3064 3338
3064 3335
3064 3336
3064 3069
3064 3070
3065 3066
3065 3069
3066 3335
3066 3167
3068 3069
3069 3070
3069 3304
3069 3307
3070 3307
3123 3363
ratios
0.8
0.2
0.8
0.8
0.2
0.2
0.8
0.2
0.8
0.8
0.26
0.2
0.2
0.8
0.2
0.37
0.34
0.41
0.2
0.22
0.45
0.2
0.2
0.2
0.2
0.36
0.35
0.46
0.25
0.2
0.2
0.2
0.2
0.2
0.8
0.2
0.2
0.2
0.8
0.8
0.4
0.22
0.2
0.3
0.2
0.3
0.2
0.2
0.8
0.8
0.2
0.43
0.2
0.2
0.2
0.3
0.33
0.2
0.2
0.2
0.2
0.2
0.2
0.2
0.39
0.37
0.2
0.21
0.8
0.2
0.2
0.5
0.5
0.5
0.5
0.5
0.5
0.8
0.8
0.8
0.8
0.8
0.8
0.8
0.8
0.2
0.2
0.8
0.8
0.8
0.8
0.2
0.8
0.8
0.8
0.8
0.8
0.8
0.8
0.8
0.8
0.8
0.8
0.8
0.8
0.2
0.8
0.8
0.8
0.8
0.2
0.2
0.8
0.2
0.8
0.2
0.8
0.8
0.8
0.8
0.8
0.2
0.2
0.2
0.8
0.2
0.8
0.8
0.8
0.8
0.8
0.8
0.8
0.8
0.8
0.33
0.8
0.8
0.8
0.8
0.8
0.8
0.8
0.8
0.8
0.8
0.8
0.8
0.8
0.8
0.8
0.8
0.8
0.8
0.2
0.38
0.2
0.8
0.46
0.2
0.8
0.2
0.32
0.2
0.52
0.2
0.8
0.29
0.37
0.2
0.41
0.2
0.8
0.2
0.2
0.8
0.2
0.71
0.2
0.33
0.8
0.2
0.2
0.8
0.2
0.41
0.36
0.2
0.2
0.68
0.2
0.2
0.2
0.2
0.7000000000000001
0.45
0.2
0.2
0.2
0.59
0.8
0.2
0.63
0.6
0.2
0.2
0.2
0.2
0.2
0.2
0.2
0.2
0.2
0.2
0.62
0.71
0.2
0.2
0.2
0.2
0.73
0.8
0.8
0.2
0.2
0.71
0.2
0.77
0.2
0.2
0.2
0.8
0.2
0.78
0.59
0.2
0.2
0.2
0.8
0.23
0.8
0.2
0.79
0.2
0.2
0.79
0.2
0.59
0.2
0.58
0.47
0.2
0.54
0.2
0.68
0.2
0.2
0.5700000000000001
0.2
0.25
0.2
0.61
0.46
0.2
0.74
0.54
0.37
0.2
0.7000000000000001
0.78
0.6900000000000001
0.2
0.2
0.2
0.2
0.6
0.2
0.39
0.32
0.62
0.28
0.2
0.2
0.2
0.2
0.2
0.42
0.2
0.2
0.2
0.8
0.8
0.59
0.51
0.8
0.2
0.75
0.8
0.8
0.2
0.2
0.2
0.66
0.2
0.5600000000000001
0.8
0.8
0.8
0.74
0.2
0.8
0.2
0.77
0.68
0.6
0.2
0.41
0.2
0.2
0.7000000000000001
0.2
0.2
0.45
0.66
0.2
0.2
0.51
0.43
0.8
0.8
0.8
0.8
0.8
0.58
0.2
0.2
0.8
0.8
0.2
0.2
0.8
0.2
0.35
0.2
0.3
0.2
0.2
0.61
0.8
0.8
0.8
0.2
0.8
0.8
0.8
0.2
0.2
0.2
0.8
0.8
0.8
0.8
0.2
0.2
0.8
0.51
0.2
0.2
0.2
0.8

forceimprovementnum 1
maxthreads 6
