refinementinfo

progressstart 0
progressstop 100
progresstext "Mesh refinement"

reftype edgesplit

refine edges
77 2630
76 813
1312 3109
2642 3109
2642 3110
1313 3110
2647 3113
104 3113
104 3114
2648 3114
2653 3117
108 3117
108 3118
2654 3118
1342 3121
2659 3121
2659 3122
87 2686
88 2687
3131 87
87 3132
87 3133
3134 87
87 3135
87 812
87 3136
87 3208
87 3138
87 3137
87 3141
87 3142
87 3139
87 3212
87 3143
87 3144
87 3148
87 3074
87 3149
3151 88
88 3152
88 3153
857 88
88 3154
88 3155
88 3156
88 3157
88 3158
88 3159
88 2734
88 3160
88 3161
88 3165
88 3359
88 3166
88 3169
88 3163
88 3162
88 3170
88 3088
88 3067
104 2642
104 3171
3172 104
104 3173
104 3174
104 3175
104 3176
104 3177
108 2659
3178 108
108 3179
108 3180
108 3182
108 3183
108 3185
108 3186
108 3067
108 3181
108 3184
108 3492
3188 127
3189 127
3190 127
127 3156
127 3157
127 3158
3200 130
130 3201
130 3202
130 3137
130 3209
130 3208
130 3212
448 475
498 2642
812 3145
857 3089
3333 1342
1574 1575
1659 1913
1905 1925
3152 2636
2637 3155
2642 3113
3114 2642
3297 2642
2642 3296
2642 3173
2642 3298
2642 3299
2642 3302
2642 3313
2642 3176
2642 2793
2642 3175
2642 3303
2642 3216
2642 3306
2642 3468
2642 2742
2642 3305
2642 2743
2642 3276
3172 2647
2647 3074
2659 3117
3118 2659
3345 2659
2659 3344
2659 3178
2659 3180
2659 3347
2659 3346
2659 3497
2659 3352
2659 2811
2659 2809
2659 3349
2659 3182
2659 3181
2659 3348
2659 3351
2659 3490
2686 3174
2686 3074
2686 3148
2686 3177
2686 3467
2686 3358
2686 3147
2686 3145
2687 3089
2687 3166
2687 3359
2687 3088
2691 3155
3131 2709
3132 2712
2720 3133
2724 3152
3151 2727
2729 3156
2733 3157
2735 3151
3171 2739
2741 3171
2741 3172
2743 3176
2743 3467
2743 3175
2745 3151
2746 3178
2746 3118
2747 3181
2747 3492
2841 3114
2878 3118
3067 3162
3067 3163
3067 3089
3067 3186
3067 3185
3067 3088
3074 3221
3074 3177
3074 3518
3074 3145
3074 3313
3074 3172
3074 3314
3074 3113
3074 3411
3082 3141
3082 3212
3083 3358
3083 3174
3084 3178
3087 3147
3087 3145
3088 3162
3088 3161
3088 3165
3088 3179
3088 3183
3088 3185
3088 3186
3089 3492
3089 3153
3089 3224
3089 3163
3089 3222
3089 3184
3089 3154
3089 3501
3091 3172
3091 3177
3294 3113
3113 3172
3113 3173
3113 3176
3113 3177
3113 3313
3113 3467
3114 3295
3171 3114
3114 3317
3114 3173
3114 3319
3114 3321
3114 3512
3114 3455
3117 3178
3324 3117
3117 3346
3117 3185
3117 3330
3117 3328
3117 3327
3117 3511
3333 3118
3179 3118
3118 3334
3118 3180
3118 3336
3118 3347
3118 3483
3118 3339
3118 3183
3118 3182
3118 3340
3124 3156
3132 3131
3131 3137
3131 3140
3134 3132
3370 3132
3379 3132
3132 3138
3132 3137
3132 3143
3132 3149
3133 3134
3133 3281
3360 3133
3133 3142
3133 3141
3134 3379
3360 3134
3134 3141
3134 3138
3134 3361
3134 3362
3134 3396
3134 3390
3134 3364
3134 3316
3134 3149
3136 3283
3136 3147
3136 3145
3137 3140
3137 3201
3137 3370
3138 3141
3138 3212
3141 3142
3141 3397
3141 3202
3143 3147
3145 3358
3145 3286
3145 3221
3145 3176
3145 3174
3145 3175
3148 3149
3148 3358
3148 3177
3148 3411
3148 3172
3152 3151
3151 3155
3420 3151
3151 3366
3151 3156
3151 3157
3152 3419
3420 3152
3152 3157
3152 3158
3152 3159
3154 3166
3155 3365
3155 3366
3155 3156
3155 3160
3156 3157
3156 3520
3156 3160
3156 3434
3156 3196
3157 3158
3157 3441
3166 3168
3166 3184
3172 3171
3317 3171
3171 3449
3171 3173
3171 3452
3171 3298
3171 3296
3171 3462
3171 3456
3171 3174
3171 3177
3171 3455
3307 3172
3449 3172
3172 3173
3172 3297
3172 3309
3172 3294
3172 3462
3172 3177
3172 3411
3173 3294
3173 3298
3173 3299
3174 3176
3174 3177
3174 3512
3174 3465
3175 3176
3175 3468
3175 3306
3175 3465
3175 3466
3176 3313
3177 3518
3177 3358
3177 3512
3324 3178
3469 3178
3178 3180
3178 3472
3178 3345
3178 3347
3178 3185
3178 3511
3178 3484
3178 3485
3178 3327
3334 3179
3179 3469
3179 3180
3179 3183
3179 3186
3179 3513
3179 3185
3179 3485
3179 3483
3180 3347
3181 3490
3181 3328
3181 3184
3181 3330
3181 3323
3181 3182
3182 3183
3182 3491
3182 3489
3182 3348
3182 3490
3183 3184
3183 3491
3183 3514
3184 3492
3184 3359
3184 3491
3201 3208
3221 3467
3223 3492
3326 3492
ratios
0.46
0.55
0.8
0.2
0.2
0.79
0.8
0.2
0.2
0.8
0.8
0.2
0.2
0.8
0.8
0.2
0.2
0.8
0.8
0.8
0.2
0.2
0.8
0.2
0.2
0.2
0.3
0.5700000000000001
0.29
0.6900000000000001
0.45
0.2
0.24
0.2
0.2
0.5600000000000001
0.5700000000000001
0.2
0.8
0.2
0.2
0.8
0.2
0.2
0.6
0.59
0.48
0.33
0.2
0.54
0.2
0.2
0.73
0.62
0.2
0.2
0.2
0.2
0.5600000000000001
0.78
0.2
0.2
0.8
0.25
0.2
0.2
0.25
0.23
0.2
0.8
0.2
0.33
0.23
0.28
0.24
0.33
0.2
0.2
0.23
0.2
0.8
0.8
0.8
0.8
0.8
0.8
0.8
0.2
0.2
0.77
0.2
0.78
0.72
0.5
0.8
0.8
0.8
0.2
0.5
0.5
0.5
0.2
0.8
0.8
0.41
0.8
0.2
0.8
0.2
0.2
0.2
0.2
0.8
0.2
0.8
0.2
0.2
0.2
0.2
0.2
0.2
0.2
0.2
0.2
0.8
0.6
0.63
0.8
0.2
0.52
0.8
0.2
0.2
0.2
0.2
0.2
0.2
0.2
0.76
0.66
0.2
0.2
0.2
0.43
0.2
0.2
0.47
0.22
0.28
0.2
0.2
0.2
0.2
0.22
0.2
0.8
0.2
0.2
0.8
0.8
0.2
0.8
0.8
0.8
0.2
0.8
0.8
0.8
0.8
0.8
0.8
0.8
0.8
0.8
0.8
0.8
0.8
0.2
0.2
0.21
0.77
0.68
0.26
0.2
0.8
0.8
0.49
0.2
0.5700000000000001
0.2
0.8
0.2
0.8
0.8
0.8
0.8
0.8
0.8
0.8
0.2
0.2
0.2
0.66
0.8
0.8
0.8
0.8
0.2
0.2
0.2
0.2
0.8
0.2
0.2
0.8
0.8
0.8
0.21
0.58
0.58
0.5600000000000001
0.2
0.28
0.2
0.4
0.2
0.8
0.2
0.2
0.2
0.2
0.42
0.8
0.2
0.6900000000000001
0.2
0.2
0.2
0.2
0.8
0.35
0.2
0.8
0.2
0.2
0.2
0.2
0.8
0.8
0.2
0.8
0.49
0.8
0.8
0.25
0.8
0.8
0.8
0.8
0.65
0.72
0.5
0.2
0.8
0.78
0.8
0.2
0.8
0.8
0.8
0.2
0.2
0.2
0.2
0.2
0.2
0.46
0.2
0.8
0.8
0.68
0.2
0.2
0.63
0.2
0.27
0.2
0.2
0.8
0.74
0.2
0.2
0.8
0.8
0.8
0.2
0.74
0.8
0.2
0.58
0.68
0.45
0.8
0.2
0.8
0.8
0.2
0.8
0.8
0.8
0.8
0.8
0.2
0.2
0.8
0.8
0.5
0.2
0.44
0.2
0.2
0.39
0.2
0.2
0.8
0.5700000000000001
0.8
0.2
0.8
0.2
0.2
0.2
0.2
0.2
0.75
0.78
0.2
0.8
0.8
0.8
0.2
0.2
0.2
0.2
0.8
0.2
0.2
0.2
0.2
0.5600000000000001
0.53
0.2
0.2
0.63
0.2
0.2
0.2
0.2
0.2
0.6
0.31
0.2
0.8
0.8
0.8
0.2
0.2
0.2
0.75
0.2
0.2
0.2
0.2
0.8
0.2
0.8
0.79
0.8
0.2
0.75
0.2
0.2
0.2
0.2
0.2
0.62
0.2
0.2
0.62
0.5600000000000001
0.2
0.2
0.2
0.2
0.44
0.2
0.2
0.38
0.27
0.2
0.8
0.8
0.8
0.8

forceimprovementnum 1
maxthreads 6
