Number of suspicious elements
^^^^^^^^^^^^^^^^^^^^^^^^^^^^^
714

Element dimension
^^^^^^^^^^^^^^^^^
2

Quality measure output (0...no, 1...yes)
^^^^^^^^^^^^^^^^^^^^^^^^^^^^^^^^^^^^^^^^
0

Element ID, element quality (if used; 0: worst, 1: best)
^^^^^^^^^^^^^^^^^^^^^^^^^^^^^^^^^^^^^^^^^^^^^^^^^^^^^^^^
261
262
263
264
265
266
267
268
269
270
271
272
273
274
275
276
278
279
280
282
283
284
285
286
287
288
289
290
291
292
293
294
295
296
297
298
299
300
301
302
303
304
305
306
307
308
309
310
311
312
313
314
315
316
317
318
320
321
322
323
324
325
326
327
328
329
330
331
337
338
339
340
348
349
350
351
352
353
354
355
363
364
365
366
367
368
369
370
372
373
374
375
377
378
379
380
381
383
385
386
388
389
390
391
392
393
395
396
399
400
401
402
403
405
406
407
408
409
410
413
414
415
416
417
418
419
420
421
424
425
426
427
428
429
430
431
432
433
434
435
436
437
438
439
440
441
442
443
444
445
448
449
450
452
453
455
456
458
460
461
464
465
466
467
473
476
477
481
483
484
485
486
487
488
489
490
492
493
494
498
499
500
502
503
504
505
506
507
508
509
510
511
512
513
514
515
516
517
518
519
520
521
522
523
524
525
526
527
528
529
530
531
532
533
534
536
537
538
541
543
549
552
553
584
588
590
591
592
598
599
600
601
602
603
604
605
606
607
608
609
610
611
612
613
614
615
616
617
618
619
620
621
622
623
624
625
626
627
628
629
630
631
632
633
634
635
636
637
638
639
640
641
642
643
644
645
646
647
648
649
650
651
652
653
654
655
656
657
658
659
660
661
662
663
694
695
696
698
699
701
705
707
709
710
741
743
745
1469
1470
1473
1474
1475
1476
1477
1480
1482
1483
1484
2157
2158
2159
2160
2163
2167
2174
2182
2413
2414
2425
2426
2434
2435
2445
2446
2456
2459
2460
2462
2463
2465
2468
2470
2471
2472
2473
2479
2482
2483
2484
2487
2510
2514
2515
2516
2517
2520
2523
2524
2844
2845
2846
2847
2848
2849
2850
2851
2852
2853
2854
2855
2856
2857
2858
2859
2860
2861
2862
2863
2894
2895
2899
2901
2903
2904
2906
2910
2911
2913
2914
2916
2919
2921
2922
2923
2924
2925
2926
2928
2929
2930
2932
2934
2935
2936
2937
2938
2939
2943
2946
2950
2991
3010
3190
3204
3212
3232
3255
3269
3274
3275
3276
3277
3284
3285
3288
3290
3297
3301
3308
3311
3312
3315
3327
3330
3331
3332
3333
3335
3337
3357
3359
3360
3361
3362
3367
3371
3374
3375
3377
3379
3381
3383
3390
3391
3392
3393
3400
3403
3404
3405
3408
3409
3411
3412
3413
3415
3420
3425
3426
3427
3429
3430
3431
3434
3437
3440
3443
3445
3448
3449
3452
3456
3457
3459
3461
3463
3465
3466
3467
3468
3469
3474
3487
3488
3489
3495
3499
3500
3501
5814
5815
5817
5822
5823
5824
5826
5827
5828
5829
5830
5838
5839
5840
5841
5842
5843
5844
5846
5847
5848
5849
5850
5851
5852
5853
5856
5859
5861
5863
5864
5866
5867
5871
5872
5877
5881
5882
5883
5906
5911
5926
5938
5955
5956
5958
5959
5969
6116
6117
6118
6119
6120
6121
6124
6125
6126
6127
6128
6129
6130
6131
6132
6133
6134
6135
6136
6137
6138
6139
6140
6141
6144
6145
6146
6147
6148
6149
6152
6153
6154
6156
6157
6160
6198
6199
6200
6201
6202
6203
6204
6205
6206
6207
6209
6211
6220
6221
6222
6223
6224
6225
6226
6227
6228
6229
6230
6231
6232
6233
6234
6239
6240
6241
6242
6243
6244
6245
6246
6247
6248
6249
6250
6251
6258
6259
6260
6261
6262
6263
6264
6265
6266
6267
6268
6274
6275
6276
6277
6278
6279
6280
6281
6282
6288
6289
6290
6291
6292
6293
6360
6361
6362
6363
6364
6365
6369
6370
6371
6372
6373
6375
6378
6379
6380
6381
6382
6383
6386
6387
6388
6390
6391
6394
6396
6399
6401
6403
6404
6405
6406
6407
6408
6409
6411
6417
6421
6422
6423
6424
6425
6426
6427
6428
6429
6430
6431
6432
6433
6434
6435
6436
6437
6439
6441
6452
6453
6454
6455
6456
6457
6458
6459
6460
6461
