[22:39:28] -------- TetMesher Log --------
[22:39:28] Build Number: 20240614; ID: 2024.5 Release from 2024-06-14 (change 1285309); Date: 2024-06-14; ACIS version: 33.0.1, SPAresabs & SPAresnor: 1e-06, 1e-10; Problem class: High Frequency
[22:39:28] Temporary directory: "C:\Users\LOQ\Documents\CST Files\2D SRR T patch - modified\Temp\1-temp.tet"
[22:39:28] - Reading information
[22:39:28] - Building single body
[22:39:29] Found 77 faces.
[22:39:29] Choosing Advanced Boolean Loop...
[22:39:29] Volume Attributes enabled
[22:39:29] Attaching Volume Attributes
[22:39:29] Sorted out 2 special bodies.
[22:39:29] Processing 10 entities.
[22:39:29] Queue Size: 1
[22:39:29] Combining solid component1:hole_puncher and solid component1:needle_2 (Pair #1 out of 5)
[22:39:29] Combining solid component1:Microstrip_vertical and solid component1:needle_1 (Pair #2 out of 5)
[22:39:29] Adding solid component1:GND to solid component1:Microstrip_horizontal (Pair #3 out of 5)
[22:39:29] Adding solid component1:SRR_Circle to solid component1:new_PDMS (Pair #4 out of 5)
[22:39:29] Adding solid component1:new_PDMS to solid component1:pvc pipe (Pair #5 out of 5)
[22:39:29] Processing 5 entities.
[22:39:29] Queue Size: 1
[22:39:29] Adding Compound Body to Compound Body (Pair #1 out of 2)
[22:39:29] Adding Compound Body to Compound Body (Pair #2 out of 2)
[22:39:29] Processing 3 entities.
[22:39:29] Queue Size: 1
[22:39:29] Adding Compound Body to Compound Body (Pair #1 out of 1)
[22:39:29] Processing 2 entities.
[22:39:29] Queue Size: 1
[22:39:29] Adding Compound Body to Compound Body (Pair #1 out of 1)
[22:39:34] Exiting Boolean Unite Module.
[22:39:34] Added Compound Body (ID: 192, 129, 28, 67, 184, 168, 94, 176, 219, 338) to model
[22:39:34] Added background material (ID: 1) to model
[22:39:34] Added discrete port 1 (ID: 351) to model
[22:39:34] An overlap has been found between solid component1:new_PDMS and solid component1:hole_puncher. Using solid component1:new_PDMS within overlapping regions.
[22:39:34] - Storing model cells
[22:39:34] [CADSurf] - Mesh sizes: global mesh size near to model = 2.9466666666666668e+00
              min requested = 2.9466666666666668e+00
              max requested = 2.1742912153100182e+01
[22:39:34] [CADSurf] MeshGems Version: MeshGems-Core 2.15-1
[22:39:34] [CADSurf] === Begin: PreCAD-related parameters ===
[22:39:34] [CADSurf] == CADSurf Parameters == 
[22:39:34] [CADSurf] meshgems_cadsurf_set_param(css, "use_precad",  "yes")
[22:39:34] [CADSurf] Bounding box diagonal = 1.6031336129963404e+02
[22:39:34] [CADSurf] meshgems_cadsurf_set_param(css, "remove_nano_edges",  "0")
[22:39:34] [CADSurf] meshgems_cadsurf_set_param(css, "discard_input_topology",  "0")
[22:39:34] [CADSurf] meshgems_cadsurf_set_param(css, "process_3d_topology",  "0")
[22:39:34] [CADSurf] meshgems_cadsurf_set_param(css, "discard_input_2d_topology",  "0")
[22:39:34] [CADSurf] Default periodic tolerance (1e-4*diag) = 1.6031336129963405e-02
[22:39:34] [CADSurf] Minimum periodic tolerance = 1.0000000000000001e-05
[22:39:34] [CADSurf] Setting it to max( 1.0000000000000001e-05, 1.6031336129963405e-02 )
[22:39:34] [CADSurf] meshgems_cadsurf_set_param(css, "periodic_tolerance",  "0.016031336129963405")
[22:39:34] [CADSurf] meshgems_cadsurf_set_param(css, "remove_duplicate_cad_faces",  "0")
[22:39:34] [CADSurf] meshgems_cadsurf_set_param(css, "remove_tiny_uv_edges",  "0")
[22:39:34] [CADSurf] === End: PreCAD-related parameters ===
[22:39:34] [CADSurf] ==
[22:39:34] [CADSurf] == CADSurf Parameters == 
[22:39:34] [CADSurf] meshgems_cadsurf_set_param(css, "verbose",  "3")
[22:39:34] [CADSurf] meshgems_cadsurf_set_param(css, "geometric_size_mode",  "local")
[22:39:34] [CADSurf] meshgems_cadsurf_set_param(css, "physical_size_mode",  "local")
[22:39:34] [CADSurf] 	 Max user size    = 2.1742912153100182e+01
[22:39:34] [CADSurf] 	 Global size near = 2.9466666666666668e+00
[22:39:34] [CADSurf] 	 Global size far  = 2.1742912153100182e+01
[22:39:34] [CADSurf] 	 Upper size bound = 2.1742912153100182e+01
[22:39:34] [CADSurf] meshgems_cadsurf_set_param(css, "max_size",  "21.742912153100182")
[22:39:34] [CADSurf] 	Calculating min. mesh size for CADSurf...
[22:39:34] [CADSurf] 	Diagonal of model + background box: 1.6031336129963404e+02
[22:39:34] [CADSurf] 	Min. mesh size by diagonal (1e-3 x diagonal): 1.6031336129963403e-01
[22:39:34] [CADSurf] 	Diagonal of model: 7.3792871502039887e+01
[22:39:34] [CADSurf] 	Min. mesh size of model: 2.9466666666666668e+00
[22:39:34] [CADSurf] 	Max. cell defined by user (near to model): 2.9466666666666668e+00
[22:39:34] [CADSurf] 	Min. cell defined by user: 0.0000000000000000e+00
[22:39:34] [CADSurf] 	Min. cell used for calculation: 2.9466666666666669e-02
[22:39:34] [CADSurf] 	Note: min. mesh size by diagonal is too large, consider using (0.01 x max. cell = 2.9466666666666669e-02)
[22:39:34] [CADSurf] Geometric refinement uses "min_size" setting.
[22:39:34] [CADSurf] CADSurf "min_size" is set to min. cell: 2.9466666666666669e-02
[22:39:34] [CADSurf] meshgems_cadsurf_set_param(css, "min_size",  "0.029466666666666669")
[22:39:34] [CADSurf] meshgems_cadsurf_set_param(css, "max_number_of_points_per_patch",  "0")
[22:39:34] [CADSurf] meshgems_cadsurf_set_param(css, "element_generation",  "local")
[22:39:34] [CADSurf] Setting Triangle as default element type
[22:39:34] [CADSurf] meshgems_cadsurf_set_param(css, "gradation",  "1.5")
[22:39:34] [CADSurf] meshgems_cadsurf_set_param(css, "volume_gradation",  "2")
[22:39:34] [CADSurf] meshgems_cadsurf_set_param(css, "patch_independent",  "0")
[22:39:34] [CADSurf] meshgems_cadsurf_set_param(css, "remove_tiny_edges",  "0")
[22:39:34] [CADSurf] meshgems_cadsurf_set_param(css, "optimise_tiny_edges",  "0")
[22:39:34] [CADSurf] meshgems_cadsurf_set_param(css, "tiny_edge_respect_geometry",  "1")
[22:39:34] [CADSurf] meshgems_cadsurf_set_param(css, "CheckWellDefined",  "8")
[22:39:34] [CADSurf] meshgems_cadsurf_set_param(css, "anisotropic",  "1")
[22:39:34] [CADSurf] meshgems_cadsurf_set_param(css, "anisotropic_ratio",  "5")
[22:39:34] [CADSurf] meshgems_cadsurf_set_param(css, "correct_surface_intersections",  "1")
[22:39:34] [CADSurf] meshgems_cadsurf_set_param(css, "intersection_processing_max_cost",  "15")
[22:39:34] [CADSurf] ==
[22:39:35] [CADSurf] Status: OK
[22:39:35] [CADSurf] Number of intersecting edges: 0, total edge count: 891
[22:39:35] [CADSurf] Number of intersecting faces: 0
[22:39:35] [CADSurf] - Mesh stats: N=3099, E=891, T=6570, Q=0
[22:39:35] [CADSurf] Testing watertightness
[22:39:35] [CADSurf] - OK
[22:39:35] Creating volume mesh from surface mesh
[22:39:35] [SrfToVol] Volume meshing: 6 threads will be allocated
[22:39:35] [SrfToVol] Running CVM
[22:39:35] [SrfToVol] Surface to volume mesh: verifying input data
[22:39:35] [SrfToVol] Not meshed regions = 288 289 290 291 292 293 296 298 301 302 

[22:39:35] [SrfToVol] Generate volume mesh for 9 subdomains using 6 threads 
 
[22:39:35] [SrfToVol] Assembling volume mesh
[22:39:35] [SrfToVol] Volume mesh generated - Status = ok
[22:39:35] [SrfToVol] - Volume mesh stats: Nb nodes = 4597, Nb edges = 873, Nb surface elements = 6463, Nb tets = 23656
[22:39:35] Creating mesh topology.
[22:39:35] Using mesh topology.
[22:39:35] Writing ACIS sat.tet file because UIDs may have changed.
[22:39:35] Using generalized mesh output routines.
[22:39:35] Writing Bc file
[22:39:35] Running model geometry simplification... 
[22:39:35] Model geometry simplification: 0 seconds
[22:39:35] Writing topot.tet...
[22:39:35] Done (topot.tet)
[22:39:35] Writing moegeom.tet ...
[22:39:35] Done (moegeom.tet) 
[22:39:35] Creating volume mesh from surface mesh - done
[22:39:35] Writing gex file for volume mesh
[22:39:35] Mesh curving:
[22:39:35]     available cores:   6
[22:39:35]     number of threads: 6
[22:39:35] Curving elements
[22:39:35]  Curve elements, order = 3

[22:39:40] 
#### Feedback Report Begins ####
#### Feedback Report Ends ####

[22:39:40] Done
