// Number of object-id's
11

// List object-id's with types (0=solid, 1=background, 2=sheet, 3=wire, 4=portwire, 5=portelement, 6=coil, 7=lumpedelement, 8=lumpedwire, 9=current path, 10=voltage path):
component1:new_PDMS
0
component1:pvc pipe
0
component1:hole_puncher
0
air_0:brick
1
component1:SRR_Circle
0
component1:Microstrip_horizontal
0
component1:needle_2
0
component1:Microstrip_vertical
0
component1:needle_1
0
component1:GND
0
1
5

// Number of 0D groups with object-id
0

// 0D Groupd-id, object-id

// Number of 1D groups with object-id
1

// 1D Groupd-id, object-id
1 11

// Number of 2D groups with object-id
81

// 2D Groupd-id, object-id from, object-id to
1 4 -1 -1 -1 -1 -1
2 4 -1 -1 -1 -1 -1
3 4 -1 -1 -1 -1 -1
4 4 -1 -1 -1 -1 -1
5 4 -1 -1 -1 -1 -1
6 4 -1 -1 -1 -1 -1
7 9 4 -1 -1 -1 -1
8 4 3 -1 -1 -1 -1
9 1 1 -1 -1 -1 -1
10 1 1 -1 -1 -1 -1
11 4 3 -1 -1 -1 -1
12 9 1 -1 -1 -1 -1
13 9 1 -1 -1 -1 -1
14 9 1 -1 -1 -1 -1
15 1 1 -1 -1 -1 -1
16 4 3 -1 -1 -1 -1
17 1 1 -1 -1 -1 -1
18 4 3 -1 -1 -1 -1
19 9 3 -1 -1 -1 -1
20 9 4 -1 -1 -1 -1
21 9 1 -1 -1 -1 -1
22 9 9 -1 -1 -1 -1
23 4 1 -1 -1 -1 -1
24 4 1 -1 -1 -1 -1
25 9 9 -1 -1 -1 -1
26 3 1 -1 -1 -1 -1
27 10 4 -1 -1 -1 -1
28 10 4 -1 -1 -1 -1
29 10 4 -1 -1 -1 -1
30 10 4 -1 -1 -1 -1
31 10 4 -1 -1 -1 -1
32 10 4 -1 -1 -1 -1
33 10 1 -1 -1 -1 -1
34 4 1 -1 -1 -1 -1
35 4 1 -1 -1 -1 -1
36 3 1 -1 -1 -1 -1
37 4 1 -1 -1 -1 -1
38 4 1 -1 -1 -1 -1
39 4 1 -1 -1 -1 -1
40 10 1 -1 -1 -1 -1
41 4 1 -1 -1 -1 -1
42 4 1 -1 -1 -1 -1
43 4 1 -1 -1 -1 -1
44 4 1 -1 -1 -1 -1
45 4 1 -1 -1 -1 -1
46 4 1 -1 -1 -1 -1
47 2 1 -1 -1 -1 -1
48 4 2 -1 -1 -1 -1
49 4 2 -1 -1 -1 -1
50 4 2 -1 -1 -1 -1
51 4 2 -1 -1 -1 -1
52 7 1 -1 -1 -1 -1
53 7 1 -1 -1 -1 -1
54 7 1 -1 -1 -1 -1
55 8 7 -1 -1 -1 -1
56 8 7 -1 -1 -1 -1
57 8 7 -1 -1 -1 -1
58 7 1 -1 -1 -1 -1
59 8 6 -1 -1 -1 -1
60 7 7 -1 -1 -1 -1
61 8 1 -1 -1 -1 -1
62 6 1 -1 -1 -1 -1
63 8 1 -1 -1 -1 -1
64 8 1 -1 -1 -1 -1
65 6 1 -1 -1 -1 -1
66 6 1 -1 -1 -1 -1
67 7 7 -1 -1 -1 -1
68 6 1 -1 -1 -1 -1
69 6 1 -1 -1 -1 -1
70 6 1 -1 -1 -1 -1
71 6 1 -1 -1 -1 -1
72 8 1 -1 -1 -1 -1
73 8 1 -1 -1 -1 -1
74 5 1 -1 -1 -1 -1
75 5 1 -1 -1 -1 -1
76 5 1 -1 -1 -1 -1
77 5 1 -1 -1 -1 -1
78 5 1 -1 -1 -1 -1
79 5 1 -1 -1 -1 -1
80 5 1 -1 -1 -1 -1
81 5 1 -1 -1 -1 -1

// Number of 3D groups with object-id
10

// 3D Groupd-id, object-id
1 1
2 2
3 3
4 4
5 5
6 6
7 7
8 8
9 9
10 10

