Number of suspicious elements
^^^^^^^^^^^^^^^^^^^^^^^^^^^^^
21

Element dimension
^^^^^^^^^^^^^^^^^
3

Quality measure output (0...no, 1...yes)
^^^^^^^^^^^^^^^^^^^^^^^^^^^^^^^^^^^^^^^^
1

Element ID, element quality (if used; 0: worst, 1: best)
^^^^^^^^^^^^^^^^^^^^^^^^^^^^^^^^^^^^^^^^^^^^^^^^^^^^^^^^
8313 1.55977e-05
3621 1.62081e-05
6114 4.06535e-05
6246 4.40772e-05
3458 4.59342e-05
6277 5.78028e-05
8314 5.85498e-05
9938 6.07746e-05
6288 6.12068e-05
3232 6.48265e-05
10079 6.56378e-05
9953 6.86422e-05
8795 7.55863e-05
9924 8.29826e-05
9930 8.34833e-05
9074 8.95862e-05
8322 9.42245e-05
9939 9.52297e-05
5679 9.55177e-05
9075 9.7821e-05
9961 9.9342e-05
