refinementinfo

progressstart 0
progressstop 100
progresstext "Mesh refinement"

reftype edgesplit

refine edges
71 3088
2618 3090
2621 3091
526 3094
65 3095
2635 3097
102 3097
102 3098
2636 3098
75 2671
85 3104
84 3105
2672 3106
66 2687
75 3111
3112 75
3113 75
75 3114
3115 75
75 3116
75 3117
3118 75
75 3119
75 3120
75 3121
75 3122
75 3123
75 3124
75 3125
82 3127
83 3128
83 2663
84 3129
3130 84
2687 84
84 3132
84 3133
84 3135
84 3136
84 3137
84 3220
84 3139
84 3140
84 3138
84 3141
84 3142
84 3143
3144 85
85 3145
85 3152
85 3154
85 3155
102 3158
3159 102
102 3160
102 3161
102 3162
102 3163
102 3165
1464 1466
1540 1541
1800 1824
1919 1932
1967 1978
2687 2611
2616 3112
2616 3134
3113 2618
3111 2621
3114 2621
3118 2621
2623 3115
3114 2623
2632 3128
2632 3186
3160 2636
2636 2761
2639 3158
2671 3120
2671 3121
2671 3312
2671 3077
2672 3320
2672 2761
2672 3315
2672 3486
2672 3321
2672 3318
2672 3319
2672 3322
2672 3317
2672 3431
2672 3164
2685 3111
2687 3132
2687 3134
3113 2693
3114 2702
2702 3118
2703 3090
3116 2703
3118 2705
2706 3118
2706 3117
2706 3119
2710 2714
2714 3275
2714 3104
2714 3322
2714 3398
2714 3148
2714 3155
2714 3152
2714 3317
2745 3431
2745 3318
2746 2761
2746 3315
2747 3434
2747 3317
3159 2756
2758 3159
2758 3160
2759 3160
2759 3162
2759 3315
2760 3163
2760 3321
2761 3318
2761 3320
2761 3098
2761 3164
2761 3212
2902 3486
3060 3165
3060 3319
3061 3123
3070 3122
3070 3121
3071 3321
3071 3163
3071 3166
3071 3165
3071 3106
3071 3279
3071 3277
3071 3317
3071 3440
3073 3117
3073 3120
3076 3117
3076 3120
3077 3120
3077 3123
3077 3124
3077 3138
3077 3141
3077 3135
3113 3090
3117 3090
3090 3232
3090 3344
3090 3120
3090 3125
3090 3363
3091 3111
3114 3091
3091 3118
3091 3125
3091 3357
3115 3094
3116 3094
3158 3097
3097 3159
3271 3097
3097 3161
3097 3279
3097 3277
3097 3280
3097 3495
3097 3489
3158 3098
3160 3098
3098 3161
3098 3162
3098 3163
3098 3320
3098 3286
3098 3482
3098 3287
3098 3486
3104 3153
3104 3154
3104 3155
3104 3152
3104 3398
3104 3434
3104 3317
3104 3315
3105 3141
3105 3142
3105 3143
3105 3134
3105 3135
3105 3496
3105 3498
3106 3165
3106 3162
3106 3163
3106 3319
3106 3320
3106 3323
3106 3321
3111 3112
3111 3219
3111 3118
3111 3121
3111 3122
3111 3329
3111 3381
3111 3125
3111 3248
3111 3332
3111 3357
3112 3113
3112 3219
3220 3112
3112 3122
3112 3123
3112 3224
3112 3342
3112 3125
3112 3332
3112 3346
3220 3113
3113 3123
3113 3120
3113 3125
3113 3363
3113 3236
3114 3118
3114 3119
3114 3255
3114 3354
3114 3125
3114 3262
3114 3260
3114 3357
3115 3119
3115 3125
3115 3261
3115 3260
3116 3119
3116 3117
3116 3360
3116 3232
3116 3255
3116 3359
3116 3125
3116 3260
3116 3363
3116 3261
3118 3117
3117 3365
3232 3117
3117 3119
3117 3359
3117 3374
3117 3499
3117 3382
3242 3118
3365 3118
3118 3119
3118 3377
3118 3354
3118 3353
3118 3255
3118 3120
3118 3381
3118 3383
3118 3382
3119 3359
3120 3121
3120 3344
3120 3499
3120 3232
3121 3381
3121 3498
3121 3312
3122 3123
3123 3342
3125 3363
3125 3332
3125 3229
3125 3346
3125 3248
3125 3357
3125 3236
3125 3386
3130 3134
3134 3135
3134 3137
3134 3335
3135 3138
3135 3496
3141 3312
3145 3152
3145 3154
3145 3434
3146 3154
3147 3155
3147 3153
3148 3152
3152 3317
3152 3154
3152 3393
3152 3423
3152 3437
3153 3394
3153 3325
3153 3398
3154 3315
3154 3426
3156 3159
3156 3161
3156 3163
3157 3161
3157 3160
3157 3486
3157 3163
3158 3294
3158 3161
3158 3297
3158 3163
3158 3302
3159 3160
3271 3159
3454 3159
3159 3161
3159 3443
3159 3457
3159 3442
3159 3297
3159 3162
3159 3165
3159 3465
3159 3461
3159 3280
3159 3485
3283 3160
3160 3454
3160 3161
3160 3449
3160 3448
3160 3297
3160 3468
3160 3162
3160 3286
3160 3473
3160 3485
3160 3482
3160 3461
3160 3484
3161 3297
3162 3510
3162 3165
3162 3485
3162 3320
3162 3482
3162 3319
3163 3510
3163 3164
3163 3166
3163 3486
3163 3321
3163 3302
3164 3321
3164 3486
3165 3166
3165 3280
3165 3485
3312 3498
3314 3496
3315 3319
3315 3317
3315 3431
3315 3435
3316 3319
3316 3317
3317 3434
3317 3323
3318 3486
3319 3441
3320 3510
3320 3485
3321 3486
3321 3322
3321 3400
3321 3433
3321 3323
3321 3399
3322 3398
3325 3431
3326 3431
3389 3398
3398 3431
3426 3434
3486 3491
ratios
0.8
0.8
0.8
0.76
0.8
0.8
0.2
0.2
0.8
0.42
0.8
0.8
0.73
0.8
0.2
0.8
0.8
0.2
0.8
0.2
0.2
0.8
0.28
0.23
0.2
0.37
0.4
0.32
0.2
0.8
0.8
0.8
0.2
0.8
0.8
0.62
0.52
0.8
0.2
0.2
0.2
0.2
0.2
0.2
0.71
0.8
0.8
0.8
0.2
0.52
0.61
0.63
0.2
0.8
0.2
0.25
0.2
0.2
0.2
0.5
0.5
0.5
0.5
0.5
0.2
0.8
0.8
0.2
0.2
0.2
0.2
0.8
0.2
0.8
0.8
0.2
0.8
0.8
0.29
0.26
0.27
0.2
0.38
0.2
0.2
0.2
0.4
0.22
0.31
0.26
0.2
0.2
0.58
0.8
0.8
0.8
0.2
0.2
0.8
0.8
0.2
0.2
0.8
0.8
0.8
0.8
0.2
0.8
0.8
0.75
0.2
0.74
0.64
0.8
0.8
0.8
0.8
0.8
0.8
0.8
0.2
0.8
0.8
0.8
0.8
0.8
0.8
0.8
0.64
0.79
0.8
0.8
0.2
0.8
0.8
0.8
0.8
0.8
0.8
0.5600000000000001
0.67
0.8
0.66
0.8
0.2
0.2
0.3
0.2
0.8
0.8
0.8
0.8
0.66
0.8
0.75
0.2
0.25
0.46
0.71
0.5600000000000001
0.2
0.2
0.59
0.26
0.2
0.24
0.74
0.25
0.2
0.2
0.2
0.2
0.51
0.3
0.8
0.75
0.2
0.2
0.2
0.2
0.2
0.5
0.74
0.75
0.67
0.58
0.45
0.2
0.2
0.2
0.2
0.2
0.2
0.2
0.2
0.21
0.2
0.36
0.34
0.2
0.22
0.22
0.2
0.27
0.27
0.24
0.27
0.37
0.28
0.2
0.2
0.3
0.2
0.38
0.2
0.52
0.66
0.8
0.2
0.2
0.36
0.2
0.2
0.2
0.52
0.2
0.8
0.8
0.8
0.2
0.35
0.48
0.2
0.2
0.8
0.8
0.78
0.46
0.2
0.2
0.5
0.73
0.2
0.2
0.34
0.2
0.2
0.2
0.67
0.28
0.2
0.2
0.73
0.54
0.2
0.2
0.2
0.2
0.34
0.2
0.2
0.2
0.54
0.2
0.8
0.6900000000000001
0.2
0.2
0.2
0.2
0.8
0.8
0.73
0.2
0.2
0.2
0.2
0.68
0.2
0.2
0.2
0.2
0.46
0.2
0.2
0.2
0.2
0.32
0.52
0.54
0.2
0.2
0.2
0.2
0.2
0.2
0.2
0.2
0.2
0.8
0.8
0.2
0.2
0.2
0.5
0.8
0.8
0.8
0.8
0.8
0.8
0.8
0.8
0.78
0.6
0.2
0.2
0.2
0.2
0.2
0.59
0.68
0.2
0.8
0.8
0.8
0.8
0.8
0.8
0.8
0.2
0.76
0.2
0.58
0.2
0.44
0.8
0.8
0.8
0.2
0.2
0.2
0.2
0.8
0.75
0.2
0.2
0.2
0.2
0.8
0.2
0.8
0.2
0.2
0.2
0.2
0.8
0.2
0.2
0.2
0.2
0.2
0.2
0.2
0.68
0.39
0.2
0.28
0.2
0.22
0.76
0.5700000000000001
0.75
0.2
0.39
0.2
0.32
0.2
0.76
0.2
0.2
0.3
0.24
0.6900000000000001
0.52
0.45
0.2
0.8
0.8
0.24
0.8
0.36
0.2
0.8
0.2
0.2
0.35
0.2
0.2
0.64
0.2
0.23
0.8
0.8
0.8
0.61
0.8
0.2

forceimprovementnum 1
maxthreads 6
