// Number of object-id's
34

// List object-id's with types (0=solid, 1=background, 2=sheet, 3=wire, 4=portwire, 5=portelement, 6=coil, 7=lumpedelement, 8=lumpedwire, 9=current path, 10=voltage path):
[6,0]air_0:brick
1
[4,0]air_0:brick
1
[2,0]air_0:brick
1
component1:PVC_Pipe
0
component1:PDMS
0
component1:Microstrip_line
0
component1:PDMS_microstrip
0
component1:solid1
0
air_0:brick
1
[1,0]air_0:brick
1
[3,0]air_0:brick
1
[5,0]air_0:brick
1
[7,1]air_0:brick
1
[8,1]air_0:brick
1
[9,1]air_0:brick
1
[10,1]air_0:brick
1
[11,1]air_0:brick
1
[12,1]air_0:brick
1
[13,1]air_0:brick
1
[14,1]air_0:brick
1
[15,1]air_0:brick
1
[16,1]air_0:brick
1
[17,1]air_0:brick
1
[18,1]air_0:brick
1
[19,5]air_0:brick
1
[20,5]air_0:brick
1
[21,5]air_0:brick
1
[22,5]air_0:brick
1
[23,5]air_0:brick
1
[24,5]air_0:brick
1
[25,5]air_0:brick
1
[26,5]air_0:brick
1
1
5
2
5

// Number of 0D groups with object-id
0

// 0D Groupd-id, object-id

// Number of 1D groups with object-id
2

// 1D Groupd-id, object-id
1 33
2 34

// Number of 2D groups with object-id
151

// 2D Groupd-id, object-id from, object-id to
1 32 -1 -1 -1 -1 -1
2 32 -1 -1 -1 -1 -1
3 32 -1 -1 -1 -1 -1
4 31 -1 -1 -1 -1 -1
5 31 -1 -1 -1 -1 -1
6 31 -1 -1 -1 -1 -1
7 30 -1 -1 -1 -1 -1
8 30 -1 -1 -1 -1 -1
9 30 -1 -1 -1 -1 -1
10 29 -1 -1 -1 -1 -1
11 29 -1 -1 -1 -1 -1
12 29 -1 -1 -1 -1 -1
13 28 -1 -1 -1 -1 -1
14 28 -1 -1 -1 -1 -1
15 28 -1 -1 -1 -1 -1
16 27 -1 -1 -1 -1 -1
17 27 -1 -1 -1 -1 -1
18 27 -1 -1 -1 -1 -1
19 26 -1 -1 -1 -1 -1
20 26 -1 -1 -1 -1 -1
21 26 -1 -1 -1 -1 -1
22 25 -1 -1 -1 -1 -1
23 25 -1 -1 -1 -1 -1
24 25 -1 -1 -1 -1 -1
25 32 24 -1 -1 -1 -1
26 28 24 -1 -1 -1 -1
27 24 -1 -1 -1 -1 -1
28 24 -1 -1 -1 -1 -1
29 31 23 -1 -1 -1 -1
30 27 23 -1 -1 -1 -1
31 23 -1 -1 -1 -1 -1
32 23 -1 -1 -1 -1 -1
33 30 22 -1 -1 -1 -1
34 26 22 -1 -1 -1 -1
35 22 -1 -1 -1 -1 -1
36 22 -1 -1 -1 -1 -1
37 29 21 -1 -1 -1 -1
38 25 21 -1 -1 -1 -1
39 21 -1 -1 -1 -1 -1
40 21 -1 -1 -1 -1 -1
41 30 20 -1 -1 -1 -1
42 31 20 -1 -1 -1 -1
43 20 -1 -1 -1 -1 -1
44 20 -1 -1 -1 -1 -1
45 26 19 -1 -1 -1 -1
46 27 19 -1 -1 -1 -1
47 19 -1 -1 -1 -1 -1
48 19 -1 -1 -1 -1 -1
49 25 18 -1 -1 -1 -1
50 28 18 -1 -1 -1 -1
51 18 -1 -1 -1 -1 -1
52 18 -1 -1 -1 -1 -1
53 29 17 -1 -1 -1 -1
54 32 17 -1 -1 -1 -1
55 17 -1 -1 -1 -1 -1
56 17 -1 -1 -1 -1 -1
57 25 16 -1 -1 -1 -1
58 26 16 -1 -1 -1 -1
59 16 -1 -1 -1 -1 -1
60 16 -1 -1 -1 -1 -1
61 28 15 -1 -1 -1 -1
62 27 15 -1 -1 -1 -1
63 15 -1 -1 -1 -1 -1
64 15 -1 -1 -1 -1 -1
65 32 14 -1 -1 -1 -1
66 31 14 -1 -1 -1 -1
67 14 -1 -1 -1 -1 -1
68 14 -1 -1 -1 -1 -1
69 29 13 -1 -1 -1 -1
70 30 13 -1 -1 -1 -1
71 13 -1 -1 -1 -1 -1
72 13 -1 -1 -1 -1 -1
73 14 1 -1 -1 -1 -1
74 20 1 -1 -1 -1 -1
75 13 1 -1 -1 -1 -1
76 17 1 -1 -1 -1 -1
77 1 -1 -1 -1 -1 -1
78 16 12 -1 -1 -1 -1
79 19 12 -1 -1 -1 -1
80 15 12 -1 -1 -1 -1
81 18 12 -1 -1 -1 -1
82 12 -1 -1 -1 -1 -1
83 13 2 -1 -1 -1 -1
84 22 2 -1 -1 -1 -1
85 16 2 -1 -1 -1 -1
86 21 2 -1 -1 -1 -1
87 2 -1 -1 -1 -1 -1
88 14 11 -1 -1 -1 -1
89 24 11 -1 -1 -1 -1
90 15 11 -1 -1 -1 -1
91 23 11 -1 -1 -1 -1
92 11 -1 -1 -1 -1 -1
93 17 3 -1 -1 -1 -1
94 21 3 -1 -1 -1 -1
95 18 3 -1 -1 -1 -1
96 24 3 -1 -1 -1 -1
97 3 -1 -1 -1 -1 -1
98 20 10 -1 -1 -1 -1
99 23 10 -1 -1 -1 -1
100 19 10 -1 -1 -1 -1
101 22 10 -1 -1 -1 -1
102 10 -1 -1 -1 -1 -1
103 9 1 -1 -1 -1 -1
104 9 2 -1 -1 -1 -1
105 9 3 -1 -1 -1 -1
106 10 9 -1 -1 -1 -1
107 12 9 -1 -1 -1 -1
108 11 9 -1 -1 -1 -1
109 9 4 -1 -1 -1 -1
110 9 4 -1 -1 -1 -1
111 9 4 -1 -1 -1 -1
112 5 5 -1 -1 -1 -1
113 5 5 -1 -1 -1 -1
114 5 5 -1 -1 -1 -1
115 5 5 -1 -1 -1 -1
116 5 5 -1 -1 -1 -1
117 5 5 -1 -1 -1 -1
118 5 5 -1 -1 -1 -1
119 5 5 -1 -1 -1 -1
120 5 5 -1 -1 -1 -1
121 5 5 -1 -1 -1 -1
122 5 5 -1 -1 -1 -1
123 5 5 -1 -1 -1 -1
124 5 5 -1 -1 -1 -1
125 5 5 -1 -1 -1 -1
126 5 5 -1 -1 -1 -1
127 5 5 -1 -1 -1 -1
128 5 5 -1 -1 -1 -1
129 9 7 -1 -1 -1 -1
130 9 7 -1 -1 -1 -1
131 9 7 -1 -1 -1 -1
132 9 7 -1 -1 -1 -1
133 9 7 -1 -1 -1 -1
134 9 5 -1 -1 -1 -1
135 9 5 -1 -1 -1 -1
136 9 5 -1 -1 -1 -1
137 9 5 -1 -1 -1 -1
138 5 4 -1 -1 -1 -1
139 9 5 -1 -1 -1 -1
140 7 5 -1 -1 -1 -1
141 9 5 -1 -1 -1 -1
142 9 5 -1 -1 -1 -1
143 8 4 -1 -1 -1 -1
144 9 8 -1 -1 -1 -1
145 9 8 -1 -1 -1 -1
146 7 6 -1 -1 -1 -1
147 7 6 -1 -1 -1 -1
148 7 6 -1 -1 -1 -1
149 7 6 -1 -1 -1 -1
150 7 6 -1 -1 -1 -1
151 7 6 -1 -1 -1 -1

// Number of 3D groups with object-id
32

// 3D Groupd-id, object-id
1 1
2 2
3 3
4 4
5 5
6 6
7 7
8 8
9 9
10 10
11 11
12 12
13 13
14 14
15 15
16 16
17 17
18 18
19 19
20 20
21 21
22 22
23 23
24 24
25 25
26 26
27 27
28 28
29 29
30 30
31 31
32 32

