refinementinfo

progressstart 0
progressstop 100
progresstext "Mesh refinement"

reftype edgesplit

refine edges
497 498
498 499
778 779
779 780
92 842
842 843
93 843
93 844
844 845
85 845
88 846
846 847
847 848
848 849
89 849
91 878
878 879
96 879
96 880
880 881
86 881
87 991
991 992
992 993
993 994
90 994
112 1042
1042 1043
1050 1051
111 1051
111 1052
113 1052
113 1087
1087 1088
1095 1096
116 1096
116 1097
112 1097
111 1098
113 1127
123 1522
1522 1523
1530 1531
124 1531
125 1532
1532 1533
1540 1541
126 1541
125 127
127 128
128 1542
1542 1543
1550 1551
129 1551
129 130
126 130
124 1563
131 1563
132 1564
1564 1565
1572 1573
131 1573
132 1574
123 1574
96 121
93 122
461 63
928 93
93 924
93 998
93 1616
93 779
93 1615
93 2678
96 921
922 96
96 1010
96 2198
96 2271
96 2242
111 1041
121 111
111 2242
122 112
112 844
112 1616
1066 113
121 113
113 2676
113 920
113 2271
113 2240
122 116
116 1615
116 843
116 2678
1087 121
121 1208
1051 121
1209 121
121 1054
121 1551
121 2676
121 126
121 1053
121 1558
121 1541
121 879
121 880
121 921
121 922
121 2677
1196 122
122 1096
122 1042
122 1198
122 1532
122 125
122 128
122 1542
122 1552
122 928
122 924
122 1615
122 2678
122 1616
122 844
122 779
125 2674
125 1056
125 1032
125 1097
125 1042
126 2675
126 1051
126 1053
126 1041
1542 127
127 1532
1552 127
127 2674
127 1564
127 1578
127 1056
127 1055
128 1097
128 1055
128 1057
128 1096
129 1087
1541 130
130 1551
130 1558
130 2675
130 1573
130 1583
130 2676
130 1054
130 1053
385 2052
412 411
428 425
444 443
497 993
497 1004
516 498
498 515
498 1145
1154 498
992 498
498 993
498 1314
498 1010
498 2237
498 2198
498 2239
499 992
499 1001
515 2198
516 2198
779 771
779 772
778 1097
778 844
778 847
778 1616
1140 779
779 1141
779 1233
779 1613
779 1616
779 847
779 1615
779 848
779 2236
779 2247
779 2246
1097 780
780 1615
780 843
780 848
814 923
815 846
991 823
823 923
849 824
832 994
842 1096
843 928
940 843
843 996
843 1096
843 1615
843 2678
844 944
924 844
844 997
844 1616
844 1042
845 1042
1012 846
997 847
847 998
847 924
847 1616
847 1140
847 1613
847 1617
848 996
998 848
848 928
848 1611
848 1141
848 1615
848 1613
849 1022
879 920
921 879
1052 879
879 1004
879 1087
879 2237
879 2271
880 922
923 880
880 1052
880 2677
880 2242
880 2261
880 2239
923 918
918 1051
921 920
922 921
951 921
921 955
921 1004
921 1026
921 1010
921 993
921 1030
921 1208
921 1087
923 922
922 953
955 922
922 1010
922 992
922 1030
922 1001
922 1209
922 1051
922 2677
922 1208
953 923
923 992
952 924
924 954
924 928
924 944
924 998
924 1029
924 997
924 1198
924 1042
924 1196
928 954
928 940
950 928
928 998
928 1027
928 996
928 1095
928 1196
928 1096
928 2678
932 1087
951 1087
954 998
1001 991
991 1016
992 1001
1010 992
992 1145
992 2198
992 2239
992 2242
1004 993
993 1010
993 1154
993 2198
993 2237
993 2271
994 1004
994 1018
998 996
997 998
1027 998
998 1031
1029 998
998 1141
998 1613
998 1140
998 1173
998 1612
1010 1001
1028 1001
1001 1030
1018 1004
1004 1010
1004 1026
1004 1160
1026 1010
1030 1010
1010 1145
1010 1154
1010 1168
1033 1042
1033 1532
1051 1040
1040 1541
1042 1108
1109 1042
1043 1532
1050 1541
1098 1051
1051 1116
1053 1052
1052 1054
1052 2271
1052 2242
1052 2198
1086 1053
1054 2676
1054 2242
1054 2196
1058 1096
1058 1542
1065 1087
1065 1551
1135 1087
1087 1127
1208 1087
1087 2676
1088 1551
1196 1095
1095 1542
1117 1096
1133 1096
1096 1196
1096 2678
1097 1615
1097 1616
1140 1613
1141 1613
1195 1196
1196 1198
1200 1196
1196 1542
1196 1553
1198 1200
1198 1552
1200 1552
1203 1208
1203 1558
1208 1206
1206 1558
1208 1551
1209 1541
1370 1674
1394 1657
1421 1712
1450 1825
1523 1552
1530 1558
1563 1531
1532 1552
1532 2674
1532 1578
1552 1533
1558 1540
1541 1558
1541 2675
1541 1583
1552 1542
1542 1578
1543 1552
1558 1550
1551 1558
1551 1583
1551 2676
1552 1553
1552 1565
1552 1575
1557 1558
1558 1572
1558 1581
1573 1563
1583 1563
1586 1588
1595 1596
1824 1826
1845 1904
1867 1978
1871 1902
1882 1980
1896 2016
1899 1988
1909 1948
1912 1988
1949 2007
2013 2017
2050 2198
2162 2198
2191 2198
2191 2242
2198 2240
2198 2204
2198 2239
2198 2271
2198 2261
2237 2271
2239 2242
2240 2271
2242 2261
2274 2276
2283 2284
2285 2286
ratios
0.8
0.2
0.8
0.2
0.55
0.5
0.2
0.5
0.5
0.55
0.46
0.5
0.5
0.5
0.46
0.55
0.5
0.2
0.5
0.5
0.55
0.46
0.5
0.5
0.5
0.46
0.58
0.2
0.8
0.45
0.8
0.8
0.55
0.2
0.8
0.68
0.68
0.58
0.2
0.2
0.51
0.52
0.48
0.51
0.49
0.48
0.52
0.49
0.5
0.5
0.5
0.49
0.51
0.5
0.5
0.5
0.5
0.5
0.5
0.51
0.49
0.5
0.5
0.5
0.2
0.2
0.5
0.8
0.2
0.2
0.2
0.2
0.2
0.2
0.2
0.8
0.3
0.2
0.2
0.2
0.2
0.2
0.65
0.2
0.8
0.8
0.8
0.2
0.8
0.2
0.8
0.2
0.2
0.8
0.8
0.8
0.8
0.2
0.8
0.8
0.2
0.2
0.4
0.2
0.2
0.2
0.2
0.39
0.35
0.43
0.43
0.2
0.8
0.2
0.2
0.2
0.2
0.2
0.2
0.2
0.2
0.48
0.49
0.43
0.65
0.41
0.47
0.2
0.2
0.2
0.2
0.2
0.2
0.2
0.2
0.2
0.2
0.67
0.35
0.65
0.2
0.2
0.2
0.2
0.2
0.2
0.2
0.2
0.2
0.76
0.68
0.32
0.31
0.2
0.2
0.2
0.5700000000000001
0.2
0.2
0.5
0.5
0.5
0.5
0.8
0.8
0.8
0.2
0.2
0.8
0.2
0.8
0.2
0.8
0.2
0.23
0.2
0.8
0.74
0.8
0.8
0.2
0.2
0.8
0.8
0.8
0.8
0.8
0.2
0.2
0.8
0.8
0.8
0.8
0.8
0.2
0.2
0.2
0.2
0.8
0.8
0.8
0.8
0.8
0.2
0.8
0.2
0.8
0.8
0.49
0.8
0.2
0.2
0.44
0.66
0.2
0.47
0.2
0.45
0.2
0.8
0.8
0.8
0.32
0.2
0.2
0.2
0.2
0.2
0.2
0.6900000000000001
0.2
0.2
0.2
0.2
0.2
0.2
0.2
0.46
0.5600000000000001
0.2
0.2
0.2
0.2
0.59
0.8
0.48
0.2
0.2
0.2
0.2
0.2
0.8
0.2
0.5
0.8
0.2
0.2
0.2
0.7000000000000001
0.72
0.2
0.2
0.2
0.8
0.2
0.8
0.7000000000000001
0.67
0.2
0.2
0.2
0.2
0.2
0.2
0.8
0.8
0.8
0.2
0.49
0.2
0.64
0.2
0.2
0.2
0.2
0.2
0.2
0.2
0.8
0.66
0.2
0.2
0.2
0.2
0.2
0.67
0.8
0.8
0.8
0.39
0.2
0.2
0.46
0.2
0.2
0.2
0.2
0.8
0.48
0.2
0.2
0.2
0.2
0.68
0.2
0.2
0.8
0.8
0.2
0.8
0.2
0.34
0.2
0.2
0.2
0.2
0.8
0.2
0.8
0.8
0.2
0.2
0.8
0.8
0.2
0.2
0.2
0.8
0.8
0.2
0.8
0.2
0.8
0.8
0.8
0.8
0.2
0.8
0.2
0.23
0.2
0.2
0.8
0.8
0.8
0.2
0.8
0.8
0.8
0.8
0.8
0.2
0.71
0.8
0.8
0.2
0.8
0.8
0.8
0.48
0.8
0.8
0.8
0.8
0.8
0.8
0.49
0.8
0.8
0.2
0.2
0.8
0.8
0.8
0.8
0.2
0.8
0.8
0.8
0.5
0.5
0.5
0.5
0.8
0.8
0.2
0.5
0.2
0.2
0.2
0.2
0.49
0.2
0.2
0.48
0.2
0.8
0.2
0.49
0.2
0.74
0.2
0.2
0.2
0.8
0.2
0.2
0.8
0.8
0.5
0.5
0.5
0.5
0.5
0.5
0.5
0.5
0.5
0.5
0.5
0.5
0.5
0.8
0.8
0.8
0.8
0.2
0.2
0.2
0.8
0.2
0.8
0.8
0.8
0.2
0.5
0.5
0.5

forceimprovementnum 1
maxthreads 6
