Number of suspicious elements
^^^^^^^^^^^^^^^^^^^^^^^^^^^^^
540

Element dimension
^^^^^^^^^^^^^^^^^
2

Quality measure output (0...no, 1...yes)
^^^^^^^^^^^^^^^^^^^^^^^^^^^^^^^^^^^^^^^^
0

Element ID, element quality (if used; 0: worst, 1: best)
^^^^^^^^^^^^^^^^^^^^^^^^^^^^^^^^^^^^^^^^^^^^^^^^^^^^^^^^
1465
1467
1503
1504
1512
1522
1523
1987
2035
2045
2049
2051
2054
2055
2056
2057
2058
2060
2111
2123
2126
2129
2130
2133
2135
2137
2138
2139
2140
2141
2142
2143
2144
2145
2146
2147
2148
2149
2150
2151
2152
2153
2154
2157
2159
2168
2178
2186
2189
2194
2201
2203
2213
2217
2228
2231
2232
2233
2235
2237
2241
2249
2250
2251
2254
2258
2262
2272
2283
2294
2295
2301
2303
2304
2310
2315
2322
2324
2326
2329
2341
2356
2360
2401
2403
2405
2406
2407
2408
2409
2410
2411
2412
2413
2414
2415
2416
2417
2418
2457
2458
2460
2462
2466
2468
2474
2475
2476
2483
2487
2489
2490
2491
2493
2494
2496
2498
2500
2501
2502
2503
2508
2509
2511
2512
2515
2516
2517
2518
2520
2521
2524
2525
2526
2528
2529
2531
2532
2534
2535
2536
2537
2538
2540
2541
2542
2543
2545
2546
2547
2550
2551
2556
2561
2564
2566
2568
2570
2581
2582
2586
2587
2588
2590
2591
2594
2595
2597
2598
2599
2601
2602
2603
2604
2606
2608
2609
2610
2611
2612
2615
2621
2623
2624
2625
2627
2629
2635
2637
2640
2642
2644
2645
2646
2650
2651
2652
2653
2654
2655
2656
2658
2660
2662
2663
2667
2668
2672
2673
2674
2677
2678
2679
2681
2691
2692
2695
2713
2714
2718
2721
2722
2732
2769
2771
2789
2795
2801
2803
2808
2814
2820
2821
2823
2828
2832
2833
2835
2840
2882
2884
2899
2902
2911
2926
2944
2948
2977
2985
3031
3032
3035
3036
3037
3043
3044
3047
3048
3049
3050
3051
3053
3057
3058
3059
3063
3064
3065
3066
3067
3072
3073
3075
3076
3077
3078
3080
3082
3083
3084
3087
3089
3090
3092
3095
3096
3098
3099
3100
3101
3102
3104
3105
3106
3108
3109
3110
3111
3112
3113
3114
3115
3117
3119
3120
3121
3122
3124
3125
3127
3128
3129
3130
3131
3132
3133
3134
3135
3136
3137
3139
3140
3141
3142
3143
3144
3145
3146
3148
3150
3151
3152
3153
3155
3156
3157
3159
3160
3161
3162
3163
3166
3168
3169
3171
3172
3173
3174
3175
3176
3177
3178
3180
3181
3182
3183
3184
3185
3186
3187
3191
3200
3215
3243
3244
3246
3247
3248
3249
3253
3255
3256
3257
3258
3259
3262
3263
3264
3266
3267
3268
3269
3271
3272
3273
3275
3277
3278
3279
3280
3281
3282
3283
3284
3285
3286
3287
3288
3289
3290
3291
3292
3293
3294
3296
3297
3298
3299
3300
3301
3302
3303
3304
3305
3306
3309
3310
3311
3312
3313
3314
3316
3317
3318
3319
3321
3322
3324
3325
3329
3330
3332
3333
3334
3335
3338
3340
3342
3343
3344
3349
3350
3351
3352
3353
3354
3356
3357
3358
3359
3360
3385
3387
3396
3397
4148
4149
4150
4153
4156
4157
4159
4160
4162
4165
4166
4168
4171
4172
4173
4175
4176
4177
4179
4181
4182
4183
4185
4186
4190
4192
4193
4215
4217
4219
4220
4222
4228
4232
4244
4245
4246
4247
4248
4249
4250
4251
4252
4253
4254
4255
4256
4257
4258
4260
4261
4262
4264
4265
4266
4267
4268
4269
4270
4271
4272
4273
4274
4275
4276
4277
4278
4279
4280
4282
4283
4284
4285
4286
4287
4288
4291
4292
4294
4295
4296
4297
4299
4302
4337
