Number of suspicious elements
^^^^^^^^^^^^^^^^^^^^^^^^^^^^^
25

Element dimension
^^^^^^^^^^^^^^^^^
3

Quality measure output (0...no, 1...yes)
^^^^^^^^^^^^^^^^^^^^^^^^^^^^^^^^^^^^^^^^
1

Element ID, element quality (if used; 0: worst, 1: best)
^^^^^^^^^^^^^^^^^^^^^^^^^^^^^^^^^^^^^^^^^^^^^^^^^^^^^^^^
7973 4.22426e-07
7975 7.29917e-07
5974 1.52211e-05
6102 1.96789e-05
9439 2.10276e-05
9397 2.14277e-05
6008 2.29546e-05
6095 2.76836e-05
7974 2.98545e-05
9387 3.37523e-05
5537 3.45899e-05
4102 3.74795e-05
9376 4.39077e-05
5478 4.41097e-05
5379 4.80589e-05
9378 5.03871e-05
9410 5.89788e-05
7971 6.1202e-05
8494 7.72108e-05
6189 7.76906e-05
9538 8.15899e-05
9372 8.9055e-05
6163 9.16751e-05
9377 9.39967e-05
9379 9.6876e-05
