[01:25:15] -------- TetMesher Log --------
[01:25:15] Build Number: 20240614; ID: 2024.5 Release from 2024-06-14 (change 1285309); Date: 2024-06-14; ACIS version: 33.0.1, SPAresabs & SPAresnor: 1e-06, 1e-10; Problem class: High Frequency
[01:25:15] Temporary directory: "C:\Users\LOQ\Documents\Github repo\EM FM 2D\copper tape\copper_tape\Temp\1-temp.tet"
[01:25:15] - Reading information
[01:25:15] - Building single body
[01:25:15] Found 49 faces.
[01:25:15] Choosing Advanced Boolean Loop...
[01:25:15] Volume Attributes enabled
[01:25:15] Attaching Volume Attributes
[01:25:15] Sorted out 2 special bodies.
[01:25:15] Processing 7 entities.
[01:25:15] Queue Size: 1
[01:25:15] Combining solid component1:needle_1 and solid component1:needle_2 (Pair #1 out of 3)
[01:25:15] Adding solid component1:GND to solid component1:Microstrip_horizontal (Pair #2 out of 3)
[01:25:15] Adding solid component1:SRR_Circle to solid component1:pvc pipe (Pair #3 out of 3)
[01:25:15] Processing 4 entities.
[01:25:15] Queue Size: 1
[01:25:15] Adding Compound Body to Compound Body (Pair #1 out of 2)
[01:25:15] Adding Compound Body to solid component1:pvc plastic (Pair #2 out of 2)
[01:25:15] Processing 2 entities.
[01:25:15] Queue Size: 1
[01:25:15] Adding Compound Body to Compound Body (Pair #1 out of 1)
[01:25:16] Exiting Boolean Unite Module.
[01:25:16] Added Compound Body (ID: 67, 28, 157, 165, 173, 118, 186) to model
[01:25:16] Added background material (ID: 1) to model
[01:25:16] Added face port 1 (ID: 213) to model
[01:25:16] - Storing model cells
[01:25:16] [CADSurf] - Mesh sizes: global mesh size near to model = 1.0731999999999999e+01
              min requested = 6.3500000000000001e-01
              max requested = 2.1742912153100182e+01
[01:25:16] [CADSurf] MeshGems Version: MeshGems-Core 2.15-1
[01:25:16] [CADSurf] === Begin: PreCAD-related parameters ===
[01:25:16] [CADSurf] == CADSurf Parameters == 
[01:25:16] [CADSurf] meshgems_cadsurf_set_param(css, "use_precad",  "yes")
[01:25:16] [CADSurf] Bounding box diagonal = 1.4466362894229317e+02
[01:25:16] [CADSurf] meshgems_cadsurf_set_param(css, "remove_nano_edges",  "0")
[01:25:16] [CADSurf] meshgems_cadsurf_set_param(css, "discard_input_topology",  "0")
[01:25:16] [CADSurf] meshgems_cadsurf_set_param(css, "process_3d_topology",  "0")
[01:25:16] [CADSurf] meshgems_cadsurf_set_param(css, "discard_input_2d_topology",  "0")
[01:25:16] [CADSurf] Default periodic tolerance (1e-4*diag) = 1.4466362894229317e-02
[01:25:16] [CADSurf] Minimum periodic tolerance = 1.0000000000000001e-05
[01:25:16] [CADSurf] Setting it to max( 1.0000000000000001e-05, 1.4466362894229317e-02 )
[01:25:16] [CADSurf] meshgems_cadsurf_set_param(css, "periodic_tolerance",  "0.014466362894229317")
[01:25:16] [CADSurf] meshgems_cadsurf_set_param(css, "remove_duplicate_cad_faces",  "0")
[01:25:16] [CADSurf] meshgems_cadsurf_set_param(css, "remove_tiny_uv_edges",  "0")
[01:25:16] [CADSurf] === End: PreCAD-related parameters ===
[01:25:16] [CADSurf] ==
[01:25:16] [CADSurf] == CADSurf Parameters == 
[01:25:16] [CADSurf] meshgems_cadsurf_set_param(css, "verbose",  "3")
[01:25:16] [CADSurf] meshgems_cadsurf_set_param(css, "geometric_size_mode",  "local")
[01:25:16] [CADSurf] meshgems_cadsurf_set_param(css, "physical_size_mode",  "local")
[01:25:16] [CADSurf] 	 Max user size    = 2.1742912153100182e+01
[01:25:16] [CADSurf] 	 Global size near = 1.0731999999999999e+01
[01:25:16] [CADSurf] 	 Global size far  = 2.1742912153100182e+01
[01:25:16] [CADSurf] 	 Upper size bound = 2.1742912153100182e+01
[01:25:16] [CADSurf] meshgems_cadsurf_set_param(css, "max_size",  "21.742912153100182")
[01:25:16] [CADSurf] 	Calculating min. mesh size for CADSurf...
[01:25:16] [CADSurf] 	Diagonal of model + background box: 1.4466362894229317e+02
[01:25:16] [CADSurf] 	Min. mesh size by diagonal (1e-3 x diagonal): 1.4466362894229318e-01
[01:25:16] [CADSurf] 	Diagonal of model: 6.1616666576503469e+01
[01:25:16] [CADSurf] 	Min. mesh size of model: 6.3500000000000001e-01
[01:25:16] [CADSurf] 	Max. cell defined by user (near to model): 1.0731999999999999e+01
[01:25:16] [CADSurf] 	Min. cell defined by user: 0.0000000000000000e+00
[01:25:16] [CADSurf] 	Min. cell used for calculation: 1.0732000000000000e-01
[01:25:16] [CADSurf] 	Note: min. mesh size by diagonal is too large, consider using (0.01 x max. cell = 1.0732000000000000e-01)
[01:25:16] [CADSurf] Geometric refinement uses "min_size" setting.
[01:25:16] [CADSurf] CADSurf "min_size" is set to min. cell: 1.0732000000000000e-01
[01:25:16] [CADSurf] meshgems_cadsurf_set_param(css, "min_size",  "0.10732")
[01:25:16] [CADSurf] meshgems_cadsurf_set_param(css, "max_number_of_points_per_patch",  "0")
[01:25:16] [CADSurf] meshgems_cadsurf_set_param(css, "element_generation",  "local")
[01:25:16] [CADSurf] Setting Triangle as default element type
[01:25:16] [CADSurf] meshgems_cadsurf_set_param(css, "gradation",  "1.5")
[01:25:16] [CADSurf] meshgems_cadsurf_set_param(css, "volume_gradation",  "2")
[01:25:16] [CADSurf] meshgems_cadsurf_set_param(css, "patch_independent",  "0")
[01:25:16] [CADSurf] meshgems_cadsurf_set_param(css, "remove_tiny_edges",  "0")
[01:25:16] [CADSurf] meshgems_cadsurf_set_param(css, "optimise_tiny_edges",  "0")
[01:25:16] [CADSurf] meshgems_cadsurf_set_param(css, "tiny_edge_respect_geometry",  "1")
[01:25:16] [CADSurf] meshgems_cadsurf_set_param(css, "CheckWellDefined",  "8")
[01:25:16] [CADSurf] meshgems_cadsurf_set_param(css, "anisotropic",  "1")
[01:25:16] [CADSurf] meshgems_cadsurf_set_param(css, "anisotropic_ratio",  "5")
[01:25:16] [CADSurf] meshgems_cadsurf_set_param(css, "correct_surface_intersections",  "1")
[01:25:16] [CADSurf] meshgems_cadsurf_set_param(css, "intersection_processing_max_cost",  "15")
[01:25:16] [CADSurf] ==
[01:25:17] [CADSurf] Status: OK
[01:25:17] [CADSurf] Number of intersecting edges: 0, total edge count: 684
[01:25:17] [CADSurf] Number of intersecting faces: 0
[01:25:17] [CADSurf] - Mesh stats: N=1457, E=684, T=3265, Q=0
[01:25:17] [CADSurf] Testing watertightness
[01:25:17] [CADSurf] - OK
[01:25:17] Creating volume mesh from surface mesh
[01:25:17] [SrfToVol] Volume meshing: 6 threads will be allocated
[01:25:17] [SrfToVol] Running CVM
[01:25:17] [SrfToVol] Surface to volume mesh: verifying input data
[01:25:17] [SrfToVol] Not meshed regions = 235 236 237 238 239 241 242 

[01:25:17] [SrfToVol] Generate volume mesh for 6 subdomains using 6 threads 
 
[01:25:17] [SrfToVol] Assembling volume mesh
[01:25:17] [SrfToVol] Volume mesh generated - Status = ok
[01:25:17] [SrfToVol] - Volume mesh stats: Nb nodes = 1946, Nb edges = 668, Nb surface elements = 3193, Nb tets = 9360
[01:25:17] Creating mesh topology.
[01:25:17] Using mesh topology.
[01:25:17] Writing ACIS sat.tet file because UIDs may have changed.
[01:25:17] Using generalized mesh output routines.
[01:25:17] Writing Bc file
[01:25:17] Running model geometry simplification... 
[01:25:17] Model geometry simplification: 0 seconds
[01:25:17] Writing topot.tet...
[01:25:17] Done (topot.tet)
[01:25:17] Writing moegeom.tet ...
[01:25:17] Done (moegeom.tet) 
[01:25:17] Creating volume mesh from surface mesh - done
[01:25:17] Writing gex file for volume mesh
[01:25:17] Mesh curving:
[01:25:17]     available cores:   6
[01:25:17]     number of threads: 6
[01:25:17] Curving elements
[01:25:17]  Curve elements, order = 3

[01:25:22] 
#### Feedback Report Begins ####
#### Feedback Report Ends ####

[01:25:22] Done
