// Number of object-id's
9

// List object-id's with types (0=solid, 1=background, 2=sheet, 3=wire, 4=portwire, 5=portelement, 6=coil, 7=lumpedelement, 8=lumpedwire, 9=current path, 10=voltage path):
air_0:brick
1
component1:pvc plastic
0
component1:pvc pipe
0
component1:needle_1
0
component1:Microstrip_horizontal
0
component1:needle_2
0
component1:GND
0
component1:SRR_Circle
0
1
12

// Number of 0D groups with object-id
0

// 0D Groupd-id, object-id

// Number of 1D groups with object-id
0

// 1D Groupd-id, object-id

// Number of 2D groups with object-id
61

// 2D Groupd-id, object-id from, object-id to
1 1 -1 -1 -1 -1 -1
2 1 -1 -1 -1 -1 -1
3 1 -1 -1 -1 -1 -1
4 1 -1 -1 -1 -1 -1
5 1 -1 -1 -1 -1 -1
6 1 -1 -1 -1 -1 -1
7 1 1 -1 -1 -1 9
8 1 1 -1 -1 -1 9
9 2 2 -1 -1 -1 9
10 2 1 -1 -1 -1 -1
11 2 1 -1 -1 -1 -1
12 4 1 -1 -1 -1 -1
13 4 1 -1 -1 -1 -1
14 4 1 -1 -1 -1 -1
15 4 1 -1 -1 -1 -1
16 6 2 -1 -1 -1 -1
17 6 2 -1 -1 -1 -1
18 6 2 -1 -1 -1 -1
19 6 5 -1 -1 -1 -1
20 6 5 -1 -1 -1 -1
21 6 5 -1 -1 -1 -1
22 6 2 -1 -1 -1 -1
23 5 1 -1 -1 -1 -1
24 5 1 -1 -1 -1 -1
25 5 1 -1 -1 -1 -1
26 5 1 -1 -1 -1 -1
27 5 1 -1 -1 -1 -1
28 5 1 -1 -1 -1 -1
29 5 1 -1 -1 -1 -1
30 5 1 -1 -1 -1 -1
31 7 1 -1 -1 -1 -1
32 7 1 -1 -1 -1 -1
33 7 1 -1 -1 -1 -1
34 7 1 -1 -1 -1 -1
35 7 1 -1 -1 -1 -1
36 7 1 -1 -1 -1 -1
37 7 1 -1 -1 -1 -1
38 3 1 -1 -1 -1 -1
39 2 1 -1 -1 -1 -1
40 5 2 -1 -1 -1 -1
41 6 6 -1 -1 -1 -1
42 2 1 -1 -1 -1 -1
43 2 1 -1 -1 -1 -1
44 8 1 -1 -1 -1 -1
45 8 1 -1 -1 -1 -1
46 8 1 -1 -1 -1 -1
47 8 1 -1 -1 -1 -1
48 8 1 -1 -1 -1 -1
49 8 1 -1 -1 -1 -1
50 8 3 -1 -1 -1 -1
51 3 1 -1 -1 -1 -1
52 5 3 -1 -1 -1 -1
53 3 1 -1 -1 -1 -1
54 3 1 -1 -1 -1 -1
55 8 2 -1 -1 -1 -1
56 2 1 -1 -1 -1 -1
57 6 6 -1 -1 -1 -1
58 2 1 -1 -1 -1 -1
59 7 2 -1 -1 -1 -1
60 2 1 -1 -1 -1 -1
61 2 1 -1 -1 -1 -1

// Number of 3D groups with object-id
8

// 3D Groupd-id, object-id
1 1
2 2
3 3
4 4
5 5
6 6
7 7
8 8

