[23:33:20] -------- TetMesher Log --------
[23:33:20] Build Number: 20240614; ID: 2024.5 Release from 2024-06-14 (change 1285309); Date: 2024-06-14; ACIS version: 33.0.1, SPAresabs & SPAresnor: 1e-06, 1e-10; Problem class: High Frequency
[23:33:20] Temporary directory: "C:\Users\LOQ\Documents\Github repo\EM FM 2D\Modified\2D SRR T patch - modified - Copy - Copy\Temp\1-temp.tet"
[23:33:20] - Reading information
[23:33:20] - Building single body
[23:33:21] Found 75 faces.
[23:33:21] Choosing Advanced Boolean Loop...
[23:33:21] Volume Attributes enabled
[23:33:21] Attaching Volume Attributes
[23:33:21] Sorted out 2 special bodies.
[23:33:21] Processing 8 entities.
[23:33:21] Queue Size: 1
[23:33:21] Combining solid component1:hole_puncher1 and solid component1:needle_2 (Pair #1 out of 4)
[23:33:21] Combining solid component1:Microstrip_horizontal and solid component1:needle_1 (Pair #2 out of 4)
[23:33:21] Adding solid component1:GND to solid component1:SRR_Circle (Pair #3 out of 4)
[23:33:21] Adding solid component1:new_PDMS to solid component1:pvc pipe (Pair #4 out of 4)
[23:33:21] Processing 4 entities.
[23:33:21] Queue Size: 1
[23:33:21] Adding Compound Body to Compound Body (Pair #1 out of 2)
[23:33:21] Adding Compound Body to Compound Body (Pair #2 out of 2)
[23:33:26] Processing 2 entities.
[23:33:26] Queue Size: 1
[23:33:26] Adding Compound Body to Compound Body (Pair #1 out of 1)
[23:33:26] Exiting Boolean Unite Module.
[23:33:26] Added Compound Body (ID: 165, 67, 157, 173, 118, 28, 181, 321) to model
[23:33:27] Added background material (ID: 1) to model
[23:33:27] Added discrete port 1 (ID: 334) to model
[23:33:27] - Storing model cells
[23:33:27] [CADSurf] - Mesh sizes: global mesh size near to model = 2.7999149046349392e+00
              min requested = 2.7999149046349392e+00
              max requested = 2.1742912153100182e+01
[23:33:27] [CADSurf] MeshGems Version: MeshGems-Core 2.15-1
[23:33:27] [CADSurf] === Begin: PreCAD-related parameters ===
[23:33:27] [CADSurf] == CADSurf Parameters == 
[23:33:27] [CADSurf] meshgems_cadsurf_set_param(css, "use_precad",  "yes")
[23:33:27] [CADSurf] Bounding box diagonal = 1.4722604004599921e+02
[23:33:27] [CADSurf] meshgems_cadsurf_set_param(css, "remove_nano_edges",  "0")
[23:33:27] [CADSurf] meshgems_cadsurf_set_param(css, "discard_input_topology",  "0")
[23:33:27] [CADSurf] meshgems_cadsurf_set_param(css, "process_3d_topology",  "0")
[23:33:27] [CADSurf] meshgems_cadsurf_set_param(css, "discard_input_2d_topology",  "0")
[23:33:27] [CADSurf] Default periodic tolerance (1e-4*diag) = 1.4722604004599921e-02
[23:33:27] [CADSurf] Minimum periodic tolerance = 1.0000000000000001e-05
[23:33:27] [CADSurf] Setting it to max( 1.0000000000000001e-05, 1.4722604004599921e-02 )
[23:33:27] [CADSurf] meshgems_cadsurf_set_param(css, "periodic_tolerance",  "0.014722604004599921")
[23:33:27] [CADSurf] meshgems_cadsurf_set_param(css, "remove_duplicate_cad_faces",  "0")
[23:33:27] [CADSurf] meshgems_cadsurf_set_param(css, "remove_tiny_uv_edges",  "0")
[23:33:27] [CADSurf] === End: PreCAD-related parameters ===
[23:33:27] [CADSurf] ==
[23:33:27] [CADSurf] == CADSurf Parameters == 
[23:33:27] [CADSurf] meshgems_cadsurf_set_param(css, "verbose",  "3")
[23:33:27] [CADSurf] meshgems_cadsurf_set_param(css, "geometric_size_mode",  "local")
[23:33:27] [CADSurf] meshgems_cadsurf_set_param(css, "physical_size_mode",  "local")
[23:33:27] [CADSurf] 	 Max user size    = 2.1742912153100182e+01
[23:33:27] [CADSurf] 	 Global size near = 2.7999149046349392e+00
[23:33:27] [CADSurf] 	 Global size far  = 2.1742912153100182e+01
[23:33:27] [CADSurf] 	 Upper size bound = 2.1742912153100182e+01
[23:33:27] [CADSurf] meshgems_cadsurf_set_param(css, "max_size",  "21.742912153100182")
[23:33:27] [CADSurf] 	Calculating min. mesh size for CADSurf...
[23:33:27] [CADSurf] 	Diagonal of model + background box: 1.4722604004599921e+02
[23:33:27] [CADSurf] 	Min. mesh size by diagonal (1e-3 x diagonal): 1.4722604004599921e-01
[23:33:27] [CADSurf] 	Diagonal of model: 6.1051194758737502e+01
[23:33:27] [CADSurf] 	Min. mesh size of model: 2.7999149046349392e+00
[23:33:27] [CADSurf] 	Max. cell defined by user (near to model): 2.7999149046349392e+00
[23:33:27] [CADSurf] 	Min. cell defined by user: 0.0000000000000000e+00
[23:33:27] [CADSurf] 	Min. cell used for calculation: 2.7999149046349394e-02
[23:33:27] [CADSurf] 	Note: min. mesh size by diagonal is too large, consider using (0.01 x max. cell = 2.7999149046349391e-02)
[23:33:27] [CADSurf] Geometric refinement uses "min_size" setting.
[23:33:27] [CADSurf] CADSurf "min_size" is set to min. cell: 2.7999149046349394e-02
[23:33:27] [CADSurf] meshgems_cadsurf_set_param(css, "min_size",  "0.027999149046349394")
[23:33:27] [CADSurf] meshgems_cadsurf_set_param(css, "max_number_of_points_per_patch",  "0")
[23:33:27] [CADSurf] meshgems_cadsurf_set_param(css, "element_generation",  "local")
[23:33:27] [CADSurf] Setting Triangle as default element type
[23:33:27] [CADSurf] meshgems_cadsurf_set_param(css, "gradation",  "1.5")
[23:33:27] [CADSurf] meshgems_cadsurf_set_param(css, "volume_gradation",  "2")
[23:33:27] [CADSurf] meshgems_cadsurf_set_param(css, "patch_independent",  "0")
[23:33:27] [CADSurf] meshgems_cadsurf_set_param(css, "remove_tiny_edges",  "0")
[23:33:27] [CADSurf] meshgems_cadsurf_set_param(css, "optimise_tiny_edges",  "0")
[23:33:27] [CADSurf] meshgems_cadsurf_set_param(css, "tiny_edge_respect_geometry",  "1")
[23:33:27] [CADSurf] meshgems_cadsurf_set_param(css, "CheckWellDefined",  "8")
[23:33:27] [CADSurf] meshgems_cadsurf_set_param(css, "anisotropic",  "1")
[23:33:27] [CADSurf] meshgems_cadsurf_set_param(css, "anisotropic_ratio",  "5")
[23:33:27] [CADSurf] meshgems_cadsurf_set_param(css, "correct_surface_intersections",  "1")
[23:33:27] [CADSurf] meshgems_cadsurf_set_param(css, "intersection_processing_max_cost",  "15")
[23:33:27] [CADSurf] ==
[23:33:27] [CADSurf] Status: OK
[23:33:27] [CADSurf] Number of intersecting edges: 0, total edge count: 851
[23:33:27] [CADSurf] Number of intersecting faces: 0
[23:33:27] [CADSurf] - Mesh stats: N=2180, E=851, T=4592, Q=0
[23:33:27] [CADSurf] Testing watertightness
[23:33:27] [CADSurf] - OK
[23:33:27] Creating volume mesh from surface mesh
[23:33:27] [SrfToVol] Volume meshing: 6 threads will be allocated
[23:33:27] [SrfToVol] Running CVM
[23:33:27] [SrfToVol] Surface to volume mesh: verifying input data
[23:33:27] [SrfToVol] Not meshed regions = 272 274 275 276 277 278 280 282 

[23:33:27] [SrfToVol] Generate volume mesh for 4 subdomains using 6 threads 
 
[23:33:28] [SrfToVol] Assembling volume mesh
[23:33:28] [SrfToVol] Volume mesh generated - Status = ok
[23:33:28] [SrfToVol] - Volume mesh stats: Nb nodes = 3267, Nb edges = 818, Nb surface elements = 4404, Nb tets = 15722
[23:33:28] Creating mesh topology.
[23:33:28] Using mesh topology.
[23:33:28] Writing ACIS sat.tet file because UIDs may have changed.
[23:33:28] Using generalized mesh output routines.
[23:33:28] Writing Bc file
[23:33:28] Running model geometry simplification... 
[23:33:28] Model geometry simplification: 0 seconds
[23:33:28] Writing topot.tet...
[23:33:28] Done (topot.tet)
[23:33:28] Writing moegeom.tet ...
[23:33:28] Done (moegeom.tet) 
[23:33:28] Creating volume mesh from surface mesh - done
[23:33:28] Writing gex file for volume mesh
[23:33:28] Mesh curving:
[23:33:28]     available cores:   6
[23:33:28]     number of threads: 6
[23:33:28] Curving elements
[23:33:28]  Curve elements, order = 3

[23:33:35] 
#### Feedback Report Begins ####
#### Feedback Report Ends ####

[23:33:35] Done
