// Number of object-id's
10

// List object-id's with types (0=solid, 1=background, 2=sheet, 3=wire, 4=portwire, 5=portelement, 6=coil, 7=lumpedelement, 8=lumpedwire, 9=current path, 10=voltage path):
component1:pvc pipe
0
component1:hole_puncher1
0
component1:new_PDMS
0
air_0:brick
1
component1:GND
0
component1:SRR_Circle
0
component1:needle_2
0
component1:Microstrip_horizontal
0
component1:needle_1
0
1
5

// Number of 0D groups with object-id
0

// 0D Groupd-id, object-id

// Number of 1D groups with object-id
1

// 1D Groupd-id, object-id
1 10

// Number of 2D groups with object-id
72

// 2D Groupd-id, object-id from, object-id to
1 4 -1 -1 -1 -1 -1
2 4 -1 -1 -1 -1 -1
3 4 -1 -1 -1 -1 -1
4 4 -1 -1 -1 -1 -1
5 4 -1 -1 -1 -1 -1
6 4 -1 -1 -1 -1 -1
7 4 3 -1 -1 -1 -1
8 4 3 -1 -1 -1 -1
9 4 3 -1 -1 -1 -1
10 4 3 -1 -1 -1 -1
11 4 3 -1 -1 -1 -1
12 3 1 -1 -1 -1 -1
13 4 1 -1 -1 -1 -1
14 4 1 -1 -1 -1 -1
15 4 1 -1 -1 -1 -1
16 4 1 -1 -1 -1 -1
17 7 3 -1 -1 -1 -1
18 7 3 -1 -1 -1 -1
19 7 3 -1 -1 -1 -1
20 8 7 -1 -1 -1 -1
21 8 7 -1 -1 -1 -1
22 8 7 -1 -1 -1 -1
23 7 3 -1 -1 -1 -1
24 8 3 -1 -1 -1 -1
25 7 7 -1 -1 -1 -1
26 8 3 -1 -1 -1 -1
27 8 3 -1 -1 -1 -1
28 8 3 -1 -1 -1 -1
29 8 3 -1 -1 -1 -1
30 8 3 -1 -1 -1 -1
31 8 3 -1 -1 -1 -1
32 7 7 -1 -1 -1 -1
33 8 3 -1 -1 -1 -1
34 8 3 -1 -1 -1 -1
35 8 3 -1 -1 -1 -1
36 5 5 -1 -1 -1 -1
37 5 5 -1 -1 -1 -1
38 9 3 -1 -1 -1 -1
39 9 3 -1 -1 -1 -1
40 9 3 -1 -1 -1 -1
41 3 3 -1 -1 -1 -1
42 3 3 -1 -1 -1 -1
43 3 3 -1 -1 -1 -1
44 3 3 -1 -1 -1 -1
45 5 5 -1 -1 -1 -1
46 9 2 -1 -1 -1 -1
47 9 3 -1 -1 -1 -1
48 5 2 -1 -1 -1 -1
49 9 5 -1 -1 -1 -1
50 3 2 -1 -1 -1 -1
51 9 9 -1 -1 -1 -1
52 3 2 -1 -1 -1 -1
53 5 3 -1 -1 -1 -1
54 5 3 -1 -1 -1 -1
55 9 5 -1 -1 -1 -1
56 5 2 -1 -1 -1 -1
57 5 2 -1 -1 -1 -1
58 5 3 -1 -1 -1 -1
59 5 3 -1 -1 -1 -1
60 9 9 -1 -1 -1 -1
61 5 3 -1 -1 -1 -1
62 5 3 -1 -1 -1 -1
63 5 3 -1 -1 -1 -1
64 5 3 -1 -1 -1 -1
65 6 3 -1 -1 -1 -1
66 6 3 -1 -1 -1 -1
67 6 3 -1 -1 -1 -1
68 6 3 -1 -1 -1 -1
69 6 3 -1 -1 -1 -1
70 6 3 -1 -1 -1 -1
71 6 3 -1 -1 -1 -1
72 6 3 -1 -1 -1 -1

// Number of 3D groups with object-id
9

// 3D Groupd-id, object-id
1 1
2 2
3 3
4 4
5 5
6 6
7 7
8 8
9 9

