Number of suspicious elements
^^^^^^^^^^^^^^^^^^^^^^^^^^^^^
194

Element dimension
^^^^^^^^^^^^^^^^^
2

Quality measure output (0...no, 1...yes)
^^^^^^^^^^^^^^^^^^^^^^^^^^^^^^^^^^^^^^^^
0

Element ID, element quality (if used; 0: worst, 1: best)
^^^^^^^^^^^^^^^^^^^^^^^^^^^^^^^^^^^^^^^^^^^^^^^^^^^^^^^^
1479
1534
1561
1570
1583
1761
1874
1875
1876
1877
1878
1879
1881
1884
1885
1887
1890
1891
1897
1898
1899
1900
1902
1903
1904
1905
1906
1907
1908
1909
1911
1912
1914
1919
1920
1931
1941
1942
1943
1944
1945
1946
1948
1949
2022
2047
2050
2054
2136
2159
2163
2232
2236
2253
2320
2321
2322
2323
2324
2325
2326
2327
2328
2329
2330
2331
2332
2334
2335
2393
2394
2397
2410
2415
2416
2417
2418
2422
2691
2692
2693
2695
2704
2711
2713
2761
2763
2771
2774
2775
2778
2779
2783
2787
2790
2791
2796
2801
2805
2815
2822
2827
2829
2830
2832
2835
2840
2844
2857
2888
2906
2924
2952
2962
2966
2990
3559
3563
3565
3567
3568
3579
3580
3582
3583
3585
3594
3599
3619
3633
3649
3654
3657
3658
3661
3667
3671
3681
3685
3686
4529
4530
4531
4532
4535
4536
4537
4538
4540
4541
4542
4543
4544
4545
4546
4548
4550
4551
4552
4553
4554
4560
4561
4562
4570
4575
4576
4577
4580
4592
4593
4594
4596
4597
4598
4599
4600
4601
4602
4603
4604
4605
4606
4607
4608
4610
4612
4613
4615
4627
4628
4632
4634
4669
