refinementinfo

progressstart 0
progressstop 100
progresstext "Mesh refinement"

reftype edgesplit

refine edges
66 3113
2640 3116
2643 3117
531 3120
65 3121
2656 3123
102 3123
102 3124
2657 3124
75 3132
85 3133
84 3134
2694 3132
2695 3135
75 3141
3142 75
3143 75
75 3144
75 3145
75 3146
3147 75
75 3148
75 3149
75 3150
75 3151
75 3152
75 3153
75 3154
75 3155
3182 83
83 3158
84 2638
84 2808
85 3171
85 3176
85 3178
85 2762
85 3179
85 3180
85 3094
86 3158
87 3156
102 3186
3187 102
102 3188
102 3189
102 3192
102 3190
102 3194
102 3196
102 3523
102 3198
130 2803
1223 1649
1838 1977
1855 1962
1911 1940
2638 3142
2638 3168
3143 2640
3141 2643
3144 2643
3147 2643
2643 3150
2645 3144
3187 2656
3188 2657
2660 3186
2660 3189
2694 3149
2694 3337
2694 3153
2694 3081
2694 3142
2695 3340
2695 3345
2695 3343
2695 3346
2695 3341
2695 3191
2695 3193
3143 2720
2729 3116
3145 2729
2730 3146
3147 2731
2732 3144
2732 3148
2733 3142
2733 3143
2733 3155
2734 3154
2737 3176
2737 3094
2762 3133
2762 3352
2762 3343
3188 2773
2774 3187
2774 3188
2774 3189
2775 3187
2775 3188
2775 3192
2776 3188
2776 3190
2776 3340
2777 3186
2778 3196
2778 3345
2778 3340
2885 3264
3060 3191
3074 3193
3074 3341
3081 3338
3081 3257
3081 3151
3081 3141
3081 3170
3081 3357
3091 3151
3093 3147
3093 3150
3093 3338
3094 3133
3094 3174
3094 3346
3094 3342
3096 3149
3096 3146
3096 3337
3098 3153
3142 3113
3143 3116
3146 3116
3116 3264
3116 3149
3116 3155
3116 3386
3117 3141
3144 3117
3117 3147
3117 3148
3117 3278
3117 3150
3117 3154
3117 3363
3186 3123
3184 3123
3123 3187
3123 3189
3123 3192
3123 3311
3123 3312
3123 3316
3123 3195
3186 3124
3124 3185
3188 3124
3124 3189
3124 3509
3124 3322
3124 3194
3124 3190
3124 3511
3124 3321
3132 3149
3132 3150
3132 3153
3132 3151
3132 3338
3133 3176
3133 3177
3133 3178
3133 3459
3134 3169
3134 3168
3134 3170
3134 3167
3134 3522
3134 3521
3135 3192
3135 3190
3135 3191
3135 3193
3135 3196
3135 3340
3135 3197
3135 3345
3135 3198
3135 3346
3141 3142
3141 3251
3141 3151
3141 3150
3141 3357
3141 3358
3141 3155
3141 3154
3141 3362
3142 3143
3142 3251
3252 3142
3142 3151
3142 3153
3142 3260
3142 3375
3142 3155
3142 3362
3252 3143
3143 3373
3143 3522
3143 3149
3143 3371
3143 3264
3143 3153
3143 3372
3143 3375
3143 3155
3143 3268
3145 3144
3144 3284
3144 3148
3144 3285
3144 3287
3144 3381
3144 3154
3144 3293
3144 3291
3144 3385
3144 3363
3145 3148
3145 3146
3145 3383
3145 3382
3145 3381
3145 3264
3145 3154
3145 3155
3145 3387
3145 3385
3145 3386
3146 3388
3264 3146
3146 3148
3146 3381
3146 3391
3146 3394
3146 3405
3146 3521
3275 3147
3388 3147
3147 3148
3147 3278
3147 3401
3147 3381
3147 3391
3147 3149
3147 3150
3147 3358
3147 3406
3147 3338
3147 3521
3147 3405
3148 3278
3148 3381
3149 3150
3149 3522
3149 3373
3149 3371
3149 3153
3149 3264
3149 3338
3149 3521
3150 3151
3150 3520
3150 3359
3150 3358
3151 3153
3151 3338
3153 3337
3153 3522
3154 3413
3154 3363
3154 3362
3154 3291
3154 3419
3155 3413
3155 3362
3168 3376
3169 3337
3174 3176
3176 3342
3176 3341
3177 3341
3178 3430
3178 3343
3178 3348
3186 3184
3184 3187
3184 3189
3184 3194
3184 3198
3185 3186
3185 3189
3185 3188
3185 3194
3186 3189
3186 3194
3186 3198
3187 3188
3306 3187
3476 3187
3187 3189
3187 3479
3187 3462
3187 3463
3187 3192
3187 3311
3187 3313
3318 3188
3476 3188
3188 3189
3188 3489
3188 3468
3188 3469
3188 3330
3188 3504
3188 3495
3188 3494
3188 3192
3188 3190
3188 3321
3189 3330
3189 3329
3189 3463
3190 3192
3190 3191
3190 3523
3190 3509
3190 3508
3190 3321
3190 3504
3191 3193
3191 3340
3191 3508
3191 3504
3191 3503
3191 3311
3192 3193
3192 3503
3192 3504
3192 3311
3192 3505
3192 3313
3192 3526
3193 3526
3193 3346
3193 3342
3193 3518
3193 3195
3193 3312
3193 3198
3193 3311
3194 3196
3194 3454
3194 3195
3194 3426
3194 3425
3195 3198
3196 3509
3196 3322
3196 3340
3196 3455
3196 3197
3196 3198
3196 3511
3197 3345
3197 3346
3197 3198
3197 3511
3197 3454
3197 3426
3197 3424
3197 3456
3198 3316
3198 3425
3198 3346
3340 3523
3340 3343
3340 3345
3340 3460
3340 3459
3340 3508
3341 3343
3341 3508
3343 3345
3343 3459
3343 3460
3343 3457
3344 3345
3345 3455
3345 3346
3346 3518
3430 3457
3446 3459
3509 3523
ratios
0.8
0.8
0.8
0.8
0.8
0.8
0.2
0.2
0.8
0.43
0.8
0.8
0.53
0.64
0.2
0.8
0.8
0.2
0.2
0.2
0.8
0.34
0.2
0.2
0.45
0.2
0.37
0.2
0.2
0.2
0.8
0.2
0.21
0.2
0.45
0.54
0.39
0.2
0.2
0.47
0.8
0.8
0.2
0.8
0.2
0.2
0.2
0.2
0.2
0.2
0.25
0.21
0.2
0.5
0.5
0.5
0.5
0.8
0.8
0.2
0.2
0.2
0.2
0.8
0.8
0.2
0.2
0.8
0.8
0.27
0.22
0.46
0.2
0.2
0.26
0.48
0.2
0.42
0.2
0.2
0.28
0.2
0.8
0.2
0.8
0.2
0.8
0.8
0.8
0.8
0.8
0.8
0.8
0.8
0.8
0.2
0.8
0.2
0.8
0.8
0.8
0.8
0.8
0.8
0.8
0.8
0.8
0.8
0.8
0.8
0.8
0.8
0.8
0.8
0.8
0.66
0.2
0.8
0.4
0.25
0.2
0.8
0.8
0.8
0.8
0.8
0.2
0.8
0.8
0.8
0.8
0.8
0.8
0.2
0.8
0.68
0.2
0.48
0.26
0.2
0.2
0.79
0.24
0.61
0.2
0.43
0.22
0.2
0.43
0.8
0.25
0.52
0.39
0.2
0.2
0.2
0.2
0.53
0.2
0.8
0.42
0.2
0.2
0.31
0.33
0.2
0.2
0.25
0.24
0.43
0.51
0.24
0.2
0.21
0.2
0.2
0.2
0.2
0.2
0.22
0.2
0.2
0.2
0.2
0.2
0.2
0.35
0.2
0.2
0.34
0.36
0.29
0.48
0.2
0.8
0.75
0.2
0.2
0.54
0.53
0.2
0.48
0.2
0.8
0.8
0.8
0.2
0.2
0.5600000000000001
0.2
0.8
0.2
0.41
0.78
0.2
0.2
0.8
0.2
0.2
0.58
0.2
0.31
0.2
0.8
0.2
0.2
0.2
0.51
0.2
0.2
0.2
0.2
0.72
0.39
0.2
0.2
0.2
0.2
0.32
0.33
0.2
0.2
0.2
0.2
0.8
0.8
0.2
0.2
0.2
0.2
0.22
0.8
0.8
0.8
0.2
0.2
0.2
0.2
0.72
0.71
0.2
0.2
0.71
0.27
0.2
0.2
0.2
0.49
0.2
0.2
0.2
0.7000000000000001
0.2
0.49
0.2
0.77
0.2
0.2
0.2
0.42
0.23
0.24
0.2
0.2
0.2
0.2
0.2
0.2
0.2
0.2
0.2
0.8
0.8
0.8
0.8
0.75
0.2
0.78
0.2
0.2
0.8
0.8
0.8
0.8
0.8
0.8
0.8
0.8
0.45
0.34
0.5600000000000001
0.46
0.8
0.8
0.77
0.2
0.2
0.2
0.66
0.2
0.2
0.8
0.8
0.79
0.2
0.2
0.2
0.2
0.2
0.2
0.2
0.6900000000000001
0.72
0.2
0.2
0.2
0.2
0.46
0.35
0.74
0.2
0.2
0.2
0.2
0.61
0.59
0.2
0.2
0.2
0.2
0.49
0.2
0.2
0.2
0.2
0.2
0.8
0.8
0.65
0.39
0.2
0.2
0.2
0.73
0.2
0.6900000000000001
0.2
0.2
0.2
0.2
0.8
0.2
0.2
0.27
0.2
0.29
0.52
0.2
0.7000000000000001
0.65
0.73
0.2
0.2
0.2
0.2
0.2
0.2
0.2
0.41
0.79
0.39
0.72
0.2
0.2
0.2
0.49
0.2
0.8
0.23
0.2
0.35
0.78
0.2
0.44
0.2
0.8
0.8
0.8

forceimprovementnum 1
maxthreads 6
