Number of suspicious elements
^^^^^^^^^^^^^^^^^^^^^^^^^^^^^
181

Element dimension
^^^^^^^^^^^^^^^^^
2

Quality measure output (0...no, 1...yes)
^^^^^^^^^^^^^^^^^^^^^^^^^^^^^^^^^^^^^^^^
0

Element ID, element quality (if used; 0: worst, 1: best)
^^^^^^^^^^^^^^^^^^^^^^^^^^^^^^^^^^^^^^^^^^^^^^^^^^^^^^^^
2177
2178
2180
2184
2185
2186
2187
2188
2190
2192
2195
2196
2197
2198
2199
2200
2204
2206
2208
2212
2214
2220
2221
2223
2224
2225
2232
2236
2273
2275
2287
2327
2335
2341
2356
2585
2586
2593
2594
2605
2606
2607
2608
2610
2614
2620
2621
2622
2624
2632
2633
2634
2635
2636
2637
2638
2647
2648
2651
2652
2654
2655
2659
2669
2670
2671
2685
2686
2702
2706
2710
2716
2719
2726
2727
2752
2782
2783
2788
2805
2806
2812
2813
2820
2821
2822
2824
2831
2835
2836
2837
2838
2839
2840
2844
2847
2848
2853
2854
2858
2859
2862
2863
2864
2865
2866
2871
2872
2873
2874
2875
2881
2901
2907
2927
2956
2957
2959
2963
2968
2970
2976
2977
2979
2980
2981
2983
2987
2988
2989
2990
2997
3002
3003
3004
3005
3006
3009
3013
3014
3015
3017
3023
3024
3025
3032
3033
3034
3035
3038
3041
3042
3096
3097
3101
3109
3114
3115
3117
3124
3128
3139
3155
3165
3170
3261
3516
3517
3519
3520
3534
3535
3536
4116
4122
4124
4126
4137
4139
4152
4153
