Number of suspicious elements
^^^^^^^^^^^^^^^^^^^^^^^^^^^^^
694

Element dimension
^^^^^^^^^^^^^^^^^
2

Quality measure output (0...no, 1...yes)
^^^^^^^^^^^^^^^^^^^^^^^^^^^^^^^^^^^^^^^^
0

Element ID, element quality (if used; 0: worst, 1: best)
^^^^^^^^^^^^^^^^^^^^^^^^^^^^^^^^^^^^^^^^^^^^^^^^^^^^^^^^
1276
1280
1281
1283
1284
1288
1323
1325
1332
1333
1338
1346
1347
1350
1352
1353
1355
1357
1358
1359
1360
1362
1363
1364
1365
1366
1370
1375
1405
1406
1408
1412
1415
1416
1420
1423
1428
1435
1436
1438
1439
1440
1443
1450
1464
1481
1485
1487
1489
1491
1494
1495
1501
1502
1508
1512
1515
1517
1519
1521
1522
1524
1525
1536
1562
1738
1749
1753
1754
1755
1757
1759
1765
1768
1769
1770
1771
1776
1784
1785
1792
1798
1799
2134
2144
2154
2155
2156
2176
2185
2187
2188
2189
2190
2191
2192
2193
2194
2195
2196
2197
2198
2199
2200
2201
2202
2203
2204
2205
2206
2207
2208
2209
2210
2211
2213
2214
2215
2216
2217
2218
2219
2220
2221
2222
2223
2224
2225
2226
2227
2228
2229
2230
2231
2232
2233
2234
2235
2236
2237
2238
2239
2240
2241
2242
2243
2244
2245
2246
2247
2248
2249
2250
2251
2252
2253
2254
2255
2256
2257
2258
2259
2260
2261
2262
2263
2264
2265
2266
2267
2268
2269
2270
2271
2272
2273
2274
2275
2276
2277
2278
2279
2280
2281
2282
2283
2284
2285
2286
2287
2288
2289
2290
2291
2292
2293
2294
2295
2296
2297
2298
2299
2300
2301
2302
2303
2304
2305
2306
2307
2308
2309
2310
2311
2313
2314
2315
2316
2317
2318
2319
2320
2321
2322
2323
2324
2325
2326
2327
2328
2329
2330
2331
2332
2333
2334
2335
2336
2337
2338
2339
2340
2341
2342
2343
2344
2345
2357
2358
2362
2367
2402
2404
2406
3089
3091
3096
3102
3103
3108
3109
3110
3116
3121
3123
3126
3127
3128
3130
3131
3133
3134
3135
3136
3138
3140
3142
3143
3144
3145
3146
3147
3148
3149
3150
3152
3153
3154
3156
3158
3160
3162
3163
3164
3165
3166
3167
3168
3169
3170
3171
3172
3173
3174
3175
3176
3177
3178
3179
3180
3181
3182
3183
3184
3185
3186
3187
3188
3189
3190
3191
3192
3193
3196
3197
3200
3201
3202
3203
3204
3205
3206
3207
3208
3209
3210
3211
3213
3218
3219
3220
3221
3222
3223
3224
3225
3226
3227
3228
3229
3230
3232
3233
3234
3236
3240
3241
3242
3244
3247
3252
3253
3254
3258
3259
3263
3265
3267
3269
3271
3272
3273
3275
3281
3283
3284
3285
3286
3288
3289
3290
3301
3302
3303
3305
3306
3310
3312
3314
3315
3316
3322
3324
3331
3333
3334
3339
3346
3348
3350
3351
3354
3358
3362
3364
3372
3384
3385
3388
3389
3398
3469
3471
3472
3474
3475
3476
3479
3481
3482
3483
3484
3485
3486
3487
3488
3489
3490
3491
3492
3493
3494
3496
3498
3500
3502
3503
3504
3506
3507
3508
3509
3510
3511
3512
3514
3515
3516
3517
3518
3520
3521
3522
3523
3524
3526
3528
3529
3530
3531
3532
3533
3534
3535
3537
3538
3539
3540
3541
3542
3543
3544
3545
3546
3547
3548
3549
3550
3551
3552
3553
3554
3555
3556
3557
3558
3559
3560
3562
3563
3564
3565
3566
3567
3568
3569
3570
3571
3572
3573
3574
3575
3576
3577
3578
3579
3580
3581
3582
3583
3584
3585
3586
3587
3588
3590
3591
3592
3593
3594
3595
3597
3598
3599
3600
3602
3605
3607
3613
3614
3615
3616
3617
3618
3619
3620
3621
3622
3623
3624
3626
3627
3628
3630
3631
3632
3634
3636
3639
3641
3642
3643
3644
3645
3646
3667
3669
3675
3679
3683
3687
3748
3751
3752
3753
3754
3755
3756
3757
3758
3759
3760
3761
3762
3763
3764
3765
3766
3768
3769
3770
3778
3779
3784
3785
3788
3790
3791
3808
3810
3815
3816
3821
3825
3826
3827
3900
3901
3906
3920
3921
3923
3990
3993
3995
3996
3997
3999
4000
4002
4003
4005
4006
4007
4008
4009
4010
4011
4012
4013
4014
4015
4016
4017
4018
4019
4020
4021
4022
4023
4024
4025
4026
4027
4028
4029
4030
4031
4032
4033
4034
4035
4036
4037
4038
4039
4040
4046
4050
4052
4054
4058
4065
4068
4080
4081
4083
4086
4088
4089
4090
4091
4092
4094
4096
4097
4098
4099
4102
4104
4108
4110
4118
4120
4121
4123
4124
4126
4130
4162
4210
4220
4221
4222
4223
4224
4225
4226
4227
4228
4229
4230
4231
4232
