refinementinfo

progressstart 0
progressstop 100
progresstext "Mesh refinement"

reftype edgesplit

refine edges
126 2703
2302 2703
2303 2706
128 2706
128 2707
2306 2707
2307 2710
126 2710
135 2311
136 2313
80 136
81 135
2727 80
80 2728
80 2729
2730 80
80 2731
80 2732
80 2734
80 2681
80 2735
80 2736
80 2751
80 2738
80 2975
80 2739
80 2367
80 2737
2741 81
81 2742
81 2743
2744 81
81 2686
81 2745
81 2673
81 2661
81 2656
81 2746
81 2766
81 2768
2747 126
2748 126
2749 126
126 2738
126 2751
126 2752
126 2737
126 2367
126 2753
126 2739
126 2754
2755 128
128 2756
128 2757
128 2758
128 2759
128 3043
128 2761
128 2764
128 2765
128 2766
128 2767
128 2768
128 3046
2773 135
135 1442
136 2775
575 2528
1267 2757
1277 2748
1277 2749
1277 2747
1385 2819
1442 2686
1442 2744
1442 2745
1817 2730
1817 2739
1817 2754
1818 2757
1818 2767
1818 2764
2251 2728
2251 2729
2251 2734
2303 2883
2884 2303
2885 2303
2303 2894
2306 2899
2755 2306
2313 2731
2729 2328
2328 2730
2337 2767
2337 2764
2337 2768
2337 2706
2341 2767
2347 2731
2355 2766
2355 2765
2355 2707
2356 2757
2356 2756
2356 2765
2356 2764
2728 2363
2366 2738
2366 2751
2367 2748
2367 2739
2367 3010
2367 2838
2742 2368
2741 2369
2747 2392
2393 2710
2393 2748
2400 2755
2400 2883
2402 2756
2707 2402
2402 2765
2404 2755
2404 2707
2404 2756
2404 2758
2405 2759
2405 2706
2405 2755
2407 2894
2426 2732
2661 3036
2661 3042
2661 2978
2661 2988
2671 2752
2673 2941
2673 2924
2673 2988
2699 2730
2756 2701
2757 2701
2749 2702
2703 2747
2871 2703
2797 2703
2703 2805
2703 2737
2703 2750
2703 2879
2703 2882
2755 2706
2706 2883
2706 2757
2706 2787
2706 2759
2706 2889
2706 2788
2706 2761
2706 2763
2706 3045
2706 2894
2706 2893
2706 2896
2706 2941
2706 2760
2707 2755
2756 2707
2707 2758
2707 2901
2707 2953
2707 2907
2707 2762
2707 2761
2707 2765
2707 3043
2747 2710
2710 2910
2710 3000
2710 2917
2710 2916
2748 2713
2713 2747
2757 2714
2720 2894
2720 2893
2728 2727
2727 2731
2727 2946
2727 2954
2727 2733
2727 2925
2727 2738
2727 2977
2727 2975
2727 2950
2729 2728
2954 2728
2935 2728
2728 2732
2728 2972
2728 2736
2728 2961
2728 2846
2728 2738
2728 2737
2728 2965
2728 2969
2728 2939
2730 2729
2729 2935
2729 2735
2729 2824
2729 2739
2729 2740
2729 2737
2729 2939
2729 2752
2731 2730
2730 2857
2730 2822
2730 2739
2730 2840
2730 2752
2731 2946
2858 2731
2731 2735
2731 2751
2731 2739
2733 2828
2733 2735
2735 2858
2735 2827
2737 2740
2737 2750
2737 2747
2737 2738
2737 3041
2738 2747
2738 2975
2739 2740
2739 2858
2739 2833
2740 2752
2742 2741
2741 2744
2978 2741
2741 2941
2741 2763
2741 2761
2741 3048
2741 3045
2741 3043
2743 2742
2742 2978
2742 2980
2742 2761
2742 2755
2742 3043
2742 3046
2744 2743
2743 2953
2743 2831
2743 2768
2744 2941
2744 2831
2745 2831
2746 2953
2871 2747
2910 2747
2747 2748
2747 2749
2747 2798
2747 3000
2747 2977
2747 2751
2747 3007
2748 2749
2748 3000
2748 2753
2748 2754
2748 2806
2749 2797
2749 2871
2749 2798
2749 2796
2749 2752
2749 2806
2752 2833
2752 2805
2753 2838
2754 2805
2754 2833
2754 2806
2898 2755
2883 2755
2755 2758
2755 2759
2755 2901
2755 3016
2755 3017
2755 3029
2755 2907
2755 2909
2755 2762
2755 2761
2755 2763
2755 2985
2755 2986
2755 3024
2755 2978
2756 2758
2756 2789
2757 2787
2757 2788
2757 2758
2757 2759
2757 2789
2757 2792
2757 2791
2757 2790
2757 2764
2757 2767
2757 2765
2757 2794
2758 2789
2758 3029
2759 2789
2759 2788
2759 3029
2760 2883
2760 2978
2761 2762
2761 2763
2761 2978
2761 3045
2761 3043
2764 2942
2765 2843
2766 2942
2766 2843
2767 2768
2767 2787
2767 2896
2768 2942
2850 2894
2894 2987
2950 2975
ratios
0.2
0.8
0.8
0.2
0.2
0.8
0.8
0.2
0.2
0.2
0.2
0.2
0.8
0.2
0.2
0.8
0.2
0.2
0.2
0.2
0.2
0.27
0.46
0.59
0.4
0.26
0.3
0.53
0.8
0.2
0.2
0.8
0.25
0.2
0.2
0.2
0.2
0.21
0.34
0.42
0.8
0.8
0.8
0.47
0.34
0.2
0.41
0.21
0.29
0.2
0.2
0.8
0.2
0.2
0.2
0.2
0.38
0.42
0.2
0.2
0.2
0.2
0.2
0.28
0.8
0.2
0.2
0.8
0.8
0.8
0.8
0.8
0.8
0.8
0.8
0.8
0.8
0.8
0.8
0.8
0.8
0.8
0.8
0.8
0.8
0.54
0.8
0.8
0.8
0.2
0.2
0.8
0.2
0.8
0.8
0.8
0.8
0.8
0.8
0.8
0.8
0.8
0.8
0.8
0.8
0.8
0.8
0.2
0.8
0.8
0.32
0.45
0.2
0.2
0.2
0.2
0.2
0.8
0.8
0.8
0.8
0.8
0.2
0.8
0.8
0.8
0.8
0.8
0.8
0.8
0.8
0.8
0.8
0.2
0.2
0.2
0.2
0.8
0.2
0.2
0.2
0.8
0.2
0.2
0.2
0.4
0.8
0.8
0.2
0.8
0.2
0.2
0.2
0.52
0.2
0.55
0.2
0.71
0.2
0.2
0.8
0.2
0.8
0.2
0.2
0.2
0.2
0.2
0.33
0.61
0.55
0.2
0.2
0.2
0.2
0.8
0.45
0.78
0.39
0.2
0.2
0.21
0.2
0.2
0.8
0.2
0.8
0.8
0.54
0.33
0.2
0.2
0.58
0.2
0.8
0.2
0.78
0.2
0.44
0.8
0.8
0.58
0.2
0.6900000000000001
0.2
0.2
0.8
0.8
0.2
0.2
0.2
0.79
0.2
0.45
0.2
0.62
0.8
0.8
0.2
0.62
0.37
0.2
0.2
0.8
0.2
0.8
0.2
0.8
0.65
0.8
0.78
0.2
0.4
0.2
0.2
0.53
0.2
0.2
0.5700000000000001
0.2
0.2
0.31
0.78
0.2
0.2
0.22
0.52
0.47
0.8
0.2
0.2
0.8
0.8
0.8
0.8
0.48
0.2
0.2
0.8
0.61
0.8
0.8
0.53
0.2
0.2
0.8
0.2
0.2
0.2
0.2
0.8
0.8
0.64
0.48
0.2
0.2
0.2
0.8
0.2
0.34
0.2
0.77
0.5700000000000001
0.2
0.2
0.2
0.2
0.2
0.77
0.2
0.2
0.2
0.2
0.2
0.2
0.2
0.8
0.8
0.72
0.72
0.2
0.2
0.2
0.2
0.2
0.2
0.2
0.8
0.2
0.2
0.2
0.2
0.2
0.66
0.2
0.2
0.2
0.66
0.67
0.2
0.2
0.2
0.2
0.5700000000000001
0.5
0.5600000000000001
0.2
0.2
0.2
0.2
0.2
0.2
0.2
0.2
0.2
0.2
0.2
0.47
0.46
0.2
0.2
0.2
0.2
0.71
0.2
0.2
0.2
0.8
0.2
0.8

forceimprovementnum 1
maxthreads 6
