Number of suspicious elements
^^^^^^^^^^^^^^^^^^^^^^^^^^^^^
759

Element dimension
^^^^^^^^^^^^^^^^^
2

Quality measure output (0...no, 1...yes)
^^^^^^^^^^^^^^^^^^^^^^^^^^^^^^^^^^^^^^^^
0

Element ID, element quality (if used; 0: worst, 1: best)
^^^^^^^^^^^^^^^^^^^^^^^^^^^^^^^^^^^^^^^^^^^^^^^^^^^^^^^^
1551
1552
1555
1556
1557
1565
1584
1593
1595
1598
1603
1607
1608
1609
1610
1611
1612
1634
1644
1697
2061
2062
2071
2077
2078
2080
2110
2111
2660
2683
2684
2686
2692
2697
2700
2701
2702
2703
2705
2709
2712
2715
2716
2755
2768
2769
2776
2778
2780
2784
2786
2787
2790
2793
2795
2799
2808
2813
2814
2822
2830
2840
2855
2864
2867
2868
2870
2871
2876
2877
2878
2879
2886
2887
2891
2893
2894
2896
2902
2906
2910
2950
2951
2952
2953
2954
2955
2956
2957
2958
2959
2960
2961
2962
2963
2964
2965
2966
2967
2968
2969
2970
2971
2972
2973
2974
2975
2976
2977
2978
2979
2980
2981
2982
2983
2984
2985
2986
2987
2988
2989
2990
2991
2992
2993
2994
2995
2996
2997
2998
2999
3000
3001
3002
3003
3004
3005
3006
3007
3008
3009
3010
3011
3012
3013
3014
3015
3016
3017
3018
3019
3020
3021
3022
3023
3024
3025
3026
3027
3028
3029
3030
3031
3032
3033
3034
3035
3036
3037
3038
3039
3040
3041
3042
3043
3044
3045
3046
3047
3048
3049
3050
3051
3052
3053
3054
3055
3056
3057
3058
3059
3060
3061
3062
3063
3064
3065
3066
3067
3068
3069
3070
3071
3072
3073
3074
3075
3076
3077
3078
3079
3080
3081
3082
3083
3084
3085
3086
3087
3088
3089
3090
3091
3092
3093
3094
3095
3096
3097
3102
3103
3111
3112
3114
3117
3119
3120
3121
3122
3123
3125
3127
3129
3130
3131
3132
3134
3135
3136
3143
3144
3145
3146
3147
3148
3149
3150
3151
3153
3154
3155
3156
3157
3158
3159
3160
3170
3178
3193
3195
3196
3202
3203
3204
3205
3206
3207
3208
3210
3213
3214
3267
3407
3413
3414
3416
3417
3420
3423
3426
3430
3434
3435
3436
3437
3438
3439
3440
3441
3442
3443
3444
3445
3446
3448
3449
3450
3451
3452
3453
3454
3455
3456
3457
3458
3459
3460
3461
3462
3463
3464
3465
3469
3472
3473
3474
3475
3476
3477
3478
3479
3480
3481
3482
3483
3484
3485
3486
3487
3488
3489
3490
3491
3492
3493
3494
3495
3497
3498
3499
3500
3501
3502
3503
3513
3514
3527
3543
3544
3545
3546
3547
3548
3549
3551
3552
3553
3554
3555
3557
3559
3560
3561
3562
3564
3565
3566
3570
3571
3572
3578
3583
3585
3586
3587
3588
3591
3592
3594
3595
3597
3600
3602
3605
3608
3609
3624
3638
3643
3646
3648
3656
3664
3666
3670
3671
3672
3676
3682
3684
3689
3696
3697
3704
3705
3713
3719
3720
3721
3725
3726
3727
3731
3734
3736
3738
3740
3744
3747
3751
3775
3808
3810
3815
3816
3817
3819
3821
3823
3825
3826
3827
3829
3831
3834
3835
3837
3838
3839
3842
3843
3844
3845
3846
3847
3848
3849
3850
3851
3852
3853
3854
3855
3856
3857
3859
3862
3863
3872
3873
3874
3877
3883
3907
3908
3914
3921
3929
3930
3993
3995
3997
4010
4019
4070
4071
4075
4077
4079
4080
4081
4083
4084
4085
4086
4087
4088
4089
4090
4091
4092
4093
4094
4095
4096
4097
4098
4099
4100
4101
4102
4103
4104
4105
4106
4107
4108
4109
4110
4111
4112
4113
4114
4115
4116
4117
4118
4119
4120
4121
4122
4123
4124
4125
4126
4127
4128
4129
4131
4132
4133
4135
4136
4137
4138
4139
4140
4141
4142
4143
4144
4147
4148
4149
4150
4151
4152
4153
4154
4155
4156
4157
4158
4159
4160
4161
4163
4164
4165
4166
4167
4168
4169
4170
4171
4172
4173
4174
4175
4176
4177
4178
4179
4180
4181
4182
4183
4184
4185
4186
4188
4189
4190
4192
4193
4194
4196
4197
4198
4199
4200
4201
4202
4203
4204
4205
4208
4209
4210
4211
4213
4215
4216
4217
4218
4219
4220
4221
4222
4223
4224
4226
4227
4228
4229
4230
4232
4241
4242
4244
4245
4246
4248
4251
4252
4255
4258
4260
4262
4263
4264
4267
4268
4270
4271
4272
4273
4275
4276
4277
4278
4279
4280
4281
4282
4283
4284
4315
4319
4334
4390
4391
4392
4393
4394
4395
4396
4397
4398
4399
4400
4401
4402
4403
4404
4405
4412
4447
4448
4449
4451
4453
4454
4456
4457
4461
4463
4464
4466
4468
4471
4477
4512
4513
4514
4517
4518
4519
4521
4523
4524
4525
4526
4527
4528
4530
4531
4532
4533
4534
4536
4537
4544
4545
4559
4560
4561
4562
4563
4564
4575
4581
4582
4583
4584
4585
4586
4587
4588
4590
4591
4592
4593
4594
4595
4596
4597
4598
4599
4600
4601
4602
4603
4604
4605
4606
4607
4608
4609
4610
4611
4612
4613
4614
4615
4616
4617
4618
4655
