Number of suspicious elements
^^^^^^^^^^^^^^^^^^^^^^^^^^^^^
180

Element dimension
^^^^^^^^^^^^^^^^^
2

Quality measure output (0...no, 1...yes)
^^^^^^^^^^^^^^^^^^^^^^^^^^^^^^^^^^^^^^^^
0

Element ID, element quality (if used; 0: worst, 1: best)
^^^^^^^^^^^^^^^^^^^^^^^^^^^^^^^^^^^^^^^^^^^^^^^^^^^^^^^^
3044
3045
3046
3048
3049
3050
3051
3052
3053
3056
3057
3058
3060
3061
3062
3065
3066
3067
3068
3070
3072
3074
3075
3077
3078
3079
3080
3084
3085
3086
3087
3088
3089
3091
3095
3098
3099
3129
3144
3145
3147
3149
3206
3317
3318
3320
3321
3322
3323
3325
3328
3329
3330
3334
3335
3339
3340
3344
3345
3346
3347
3354
3355
3365
3366
3368
3369
3375
3381
3382
3385
3387
3391
3395
3396
3398
3399
3400
3406
3407
3408
3414
3415
3420
3421
3422
3445
3448
3454
3471
3472
3477
3478
3479
3485
3487
3488
3490
3491
3497
3498
3501
3502
3503
3504
3506
3525
3532
3564
3565
3575
3577
3584
3606
3617
3619
3637
3652
3663
3827
3831
3832
3835
3836
3845
3851
3853
3854
3855
3856
3858
3861
3862
3863
3866
3868
3872
3874
3879
3902
3910
3912
3917
3925
3929
3935
3940
3944
3946
3947
3948
3952
3958
3959
3963
3965
3966
3974
3978
3979
3980
3989
4009
4542
4546
4553
4556
4557
4558
4559
4563
4564
4572
5558
5560
5563
5571
5584
5596
5597
