Number of suspicious elements
^^^^^^^^^^^^^^^^^^^^^^^^^^^^^
101

Element dimension
^^^^^^^^^^^^^^^^^
2

Quality measure output (0...no, 1...yes)
^^^^^^^^^^^^^^^^^^^^^^^^^^^^^^^^^^^^^^^^
0

Element ID, element quality (if used; 0: worst, 1: best)
^^^^^^^^^^^^^^^^^^^^^^^^^^^^^^^^^^^^^^^^^^^^^^^^^^^^^^^^
221
224
229
234
235
239
240
241
242
247
248
249
254
255
263
271
273
293
298
300
411
412
413
414
415
416
417
418
421
422
425
426
427
429
431
432
433
434
437
438
439
440
445
446
534
540
541
568
595
646
647
649
651
665
712
713
784
788
789
5147
5148
5149
5150
5153
5154
5155
5156
5157
5158
5160
5162
5163
5164
5165
5166
5167
5168
5169
5170
5175
5176
5181
5182
5184
5189
5190
5191
5195
5200
5202
5204
5206
5208
5236
5241
5253
5271
5275
5299
5306
5309
