// Number of object-id's
10

// List object-id's with types (0=solid, 1=background, 2=sheet, 3=wire, 4=portwire, 5=portelement, 6=coil, 7=lumpedelement, 8=lumpedwire, 9=current path, 10=voltage path):
component1:pvc pipe
0
component1:new_PDMS
0
component1:hole_puncher1
0
air_0:brick
1
component1:GND
0
component1:SRR_Circle
0
component1:needle_2
0
component1:Microstrip_horizontal
0
component1:needle_1
0
1
5

// Number of 0D groups with object-id
0

// 0D Groupd-id, object-id

// Number of 1D groups with object-id
1

// 1D Groupd-id, object-id
1 10

// Number of 2D groups with object-id
68

// 2D Groupd-id, object-id from, object-id to
1 4 -1 -1 -1 -1 -1
2 4 -1 -1 -1 -1 -1
3 4 -1 -1 -1 -1 -1
4 4 -1 -1 -1 -1 -1
5 4 -1 -1 -1 -1 -1
6 4 -1 -1 -1 -1 -1
7 5 5 -1 -1 -1 -1
8 5 5 -1 -1 -1 -1
9 4 3 -1 -1 -1 -1
10 4 3 -1 -1 -1 -1
11 4 3 -1 -1 -1 -1
12 5 5 -1 -1 -1 -1
13 9 3 -1 -1 -1 -1
14 9 4 -1 -1 -1 -1
15 5 3 -1 -1 -1 -1
16 9 5 -1 -1 -1 -1
17 5 3 -1 -1 -1 -1
18 5 3 -1 -1 -1 -1
19 5 4 -1 -1 -1 -1
20 5 4 -1 -1 -1 -1
21 9 5 -1 -1 -1 -1
22 5 3 -1 -1 -1 -1
23 5 3 -1 -1 -1 -1
24 5 4 -1 -1 -1 -1
25 5 4 -1 -1 -1 -1
26 5 4 -1 -1 -1 -1
27 5 2 -1 -1 -1 -1
28 4 2 -1 -1 -1 -1
29 5 2 -1 -1 -1 -1
30 5 2 -1 -1 -1 -1
31 4 2 -1 -1 -1 -1
32 4 2 -1 -1 -1 -1
33 5 2 -1 -1 -1 -1
34 4 2 -1 -1 -1 -1
35 5 2 -1 -1 -1 -1
36 4 2 -1 -1 -1 -1
37 2 1 -1 -1 -1 -1
38 4 1 -1 -1 -1 -1
39 4 1 -1 -1 -1 -1
40 4 1 -1 -1 -1 -1
41 4 1 -1 -1 -1 -1
42 7 2 -1 -1 -1 -1
43 7 2 -1 -1 -1 -1
44 7 2 -1 -1 -1 -1
45 8 7 -1 -1 -1 -1
46 8 7 -1 -1 -1 -1
47 8 7 -1 -1 -1 -1
48 7 2 -1 -1 -1 -1
49 8 2 -1 -1 -1 -1
50 7 7 -1 -1 -1 -1
51 8 2 -1 -1 -1 -1
52 8 2 -1 -1 -1 -1
53 8 2 -1 -1 -1 -1
54 7 7 -1 -1 -1 -1
55 8 2 -1 -1 -1 -1
56 8 2 -1 -1 -1 -1
57 8 2 -1 -1 -1 -1
58 8 2 -1 -1 -1 -1
59 8 2 -1 -1 -1 -1
60 8 2 -1 -1 -1 -1
61 6 2 -1 -1 -1 -1
62 6 2 -1 -1 -1 -1
63 6 2 -1 -1 -1 -1
64 6 2 -1 -1 -1 -1
65 6 2 -1 -1 -1 -1
66 6 2 -1 -1 -1 -1
67 6 2 -1 -1 -1 -1
68 6 2 -1 -1 -1 -1

// Number of 3D groups with object-id
9

// 3D Groupd-id, object-id
1 1
2 2
3 3
4 4
5 5
6 6
7 7
8 8
9 9

