refinementinfo

progressstart 0
progressstop 100
progresstext "Mesh refinement"

reftype edgesplit

refine edges
2241 2631
127 2631
127 2632
2242 2632
2245 2635
130 2635
130 2636
2246 2636
135 2256
87 127
88 130
2643 87
87 2644
87 2645
87 2646
2647 87
87 2648
87 2684
87 2962
87 2650
87 2651
87 2652
87 2960
87 2575
87 2649
87 2858
87 2713
87 2653
87 2654
87 2655
87 2656
87 2657
87 2659
87 2660
87 2386
2662 88
88 2663
2664 88
88 2665
2666 88
88 2667
88 2668
88 2669
88 2670
88 2671
88 2688
88 2691
88 2690
88 2674
88 2616
88 2675
88 2676
88 2677
88 2370
88 2371
88 2678
88 2679
88 2577
88 2680
2682 127
127 2683
127 2929
127 2959
127 2960
127 2684
127 2613
2686 130
130 2687
130 2673
130 2612
130 2672
130 2689
130 2671
130 2690
130 2691
2696 135
2697 135
135 2369
135 2674
135 2676
1038 2613
1038 2929
2682 2241
2241 2575
2683 2242
2687 2246
2645 2275
2646 2275
2284 2667
2320 2643
2323 2645
2323 2651
2327 2659
2328 2645
2328 2653
2331 2644
2331 2643
2333 2662
2663 2333
2336 2662
2336 2664
2337 2663
2339 2664
2341 2676
2631 2354
2354 2632
2354 2681
2354 2682
2354 2683
2355 2682
2357 2636
2635 2357
2685 2357
2357 2686
2686 2358
2392 2929
2409 2612
2523 2683
2585 2673
2585 2689
2608 2664
2608 2676
2611 2653
2612 2629
2612 2685
2613 2628
2618 2672
2620 2668
2620 2671
2620 2670
2620 2662
2620 2690
2620 2635
2621 2668
2621 2667
2648 2628
2665 2629
2632 2681
2683 2632
2632 2929
2632 2684
2632 2765
2632 2766
2632 2711
2635 2686
2768 2635
2635 2945
2635 2942
2635 2690
2636 2772
2687 2636
2636 2943
2636 2777
2644 2643
2643 2648
2643 2823
2643 2710
2643 2795
2643 2796
2643 2762
2643 2650
2643 2825
2643 2852
2643 2838
2643 2657
2643 2659
2643 2832
2643 2831
2643 2803
2645 2644
2823 2644
2644 2813
2644 2650
2644 2651
2644 2854
2644 2839
2644 2815
2644 2838
2644 2819
2644 2843
2644 2653
2644 2657
2644 2844
2644 2873
2646 2645
2645 2813
2645 2783
2645 2651
2645 2652
2645 2815
2645 2785
2645 2819
2645 2653
2645 2654
2645 2789
2647 2646
2646 2652
2646 2785
2646 2655
2646 2654
2646 2658
2646 2789
2647 2709
2648 2967
2648 2796
2649 2684
2650 2684
2650 2962
2650 2651
2650 2858
2650 2855
2650 2852
2651 2652
2651 2960
2651 2849
2651 2852
2651 2855
2653 2655
2653 2654
2653 2657
2653 2656
2653 2866
2653 2701
2654 2655
2654 2702
2654 2869
2656 2657
2657 2659
2657 2866
2663 2662
2662 2664
2875 2662
2662 2874
2662 2909
2662 2880
2662 2670
2662 2668
2662 2878
2662 2879
2662 2913
2662 2951
2662 2676
2662 2889
2662 2894
2662 2895
2665 2663
2718 2663
2804 2663
2663 2878
2663 2894
2663 2921
2663 2811
2663 2677
2663 2676
2664 2667
2790 2664
2664 2875
2664 2669
2664 2668
2664 2899
2664 2898
2664 2911
2664 2793
2664 2907
2664 2676
2664 2674
2664 2675
2664 2902
2664 2904
2664 2916
2666 2665
2665 2670
2665 2673
2667 2666
2666 2719
2666 2673
2667 2790
2667 2669
2668 2669
2668 2908
2668 2911
2668 2670
2668 2671
2669 2671
2669 2690
2670 2914
2670 2673
2670 2913
2670 2671
2671 2673
2671 2964
2671 2689
2673 2961
2674 2676
2674 2920
2676 2677
2676 2921
2676 2920
2681 2682
2681 2683
2681 2929
2930 2682
2682 2926
2682 2684
2683 2930
2759 2683
2683 2684
2684 2962
2684 2967
2685 2686
2685 2687
2685 2943
2768 2686
2947 2686
2686 2943
2686 2942
2686 2690
2686 2952
2687 2947
2773 2687
2687 2690
2687 2691
2687 2777
2690 2964
2757 2959
2796 2858
2929 2959
ratios
0.8
0.2
0.2
0.8
0.8
0.2
0.2
0.8
0.2
0.72
0.73
0.8
0.26
0.2
0.2
0.8
0.2
0.58
0.2
0.47
0.45
0.25
0.29
0.2
0.2
0.21
0.2
0.36
0.41
0.2
0.2
0.41
0.34
0.2
0.2
0.77
0.2
0.78
0.2
0.8
0.2
0.47
0.28
0.45
0.37
0.2
0.51
0.6
0.24
0.2
0.29
0.41
0.2
0.2
0.2
0.2
0.2
0.2
0.2
0.8
0.2
0.2
0.2
0.2
0.35
0.2
0.8
0.2
0.2
0.2
0.2
0.2
0.2
0.35
0.28
0.8
0.8
0.2
0.8
0.8
0.8
0.8
0.2
0.8
0.2
0.2
0.2
0.2
0.8
0.8
0.8
0.8
0.8
0.8
0.8
0.8
0.8
0.8
0.2
0.8
0.8
0.8
0.8
0.8
0.2
0.8
0.8
0.8
0.8
0.8
0.8
0.2
0.2
0.8
0.2
0.8
0.8
0.8
0.8
0.8
0.8
0.8
0.8
0.2
0.8
0.2
0.8
0.8
0.8
0.8
0.8
0.8
0.8
0.8
0.8
0.2
0.2
0.7000000000000001
0.73
0.26
0.79
0.2
0.2
0.2
0.62
0.8
0.2
0.2
0.8
0.2
0.25
0.2
0.2
0.32
0.35
0.2
0.2
0.2
0.2
0.2
0.8
0.2
0.2
0.2
0.8
0.76
0.2
0.2
0.2
0.63
0.8
0.2
0.72
0.71
0.2
0.2
0.2
0.2
0.2
0.2
0.62
0.67
0.2
0.2
0.64
0.2
0.2
0.8
0.63
0.2
0.2
0.2
0.74
0.77
0.2
0.72
0.74
0.2
0.62
0.8
0.52
0.2
0.2
0.75
0.2
0.8
0.61
0.2
0.48
0.23
0.2
0.2
0.29
0.33
0.2
0.2
0.2
0.25
0.55
0.55
0.22
0.2
0.2
0.22
0.2
0.2
0.8
0.42
0.2
0.6
0.49
0.8
0.2
0.2
0.2
0.74
0.75
0.2
0.2
0.2
0.2
0.7000000000000001
0.2
0.2
0.2
0.65
0.8
0.8
0.2
0.2
0.2
0.2
0.55
0.78
0.26
0.8
0.2
0.59
0.76
0.2
0.2
0.2
0.2
0.2
0.71
0.54
0.6
0.2
0.2
0.2
0.63
0.8
0.8
0.38
0.2
0.8
0.2
0.8
0.31
0.2
0.2
0.48
0.4
0.6
0.79
0.2
0.38
0.2
0.42
0.46
0.2
0.42
0.2
0.68
0.2
0.26
0.2
0.2
0.2
0.2
0.2
0.8
0.2
0.8
0.2
0.8
0.8
0.2
0.2
0.21
0.32
0.2
0.8
0.8
0.2
0.2
0.8
0.2
0.2
0.8
0.8
0.76
0.2
0.2
0.8
0.8
0.78

forceimprovementnum 1
maxthreads 6
