Number of suspicious elements
^^^^^^^^^^^^^^^^^^^^^^^^^^^^^
228

Element dimension
^^^^^^^^^^^^^^^^^
2

Quality measure output (0...no, 1...yes)
^^^^^^^^^^^^^^^^^^^^^^^^^^^^^^^^^^^^^^^^
0

Element ID, element quality (if used; 0: worst, 1: best)
^^^^^^^^^^^^^^^^^^^^^^^^^^^^^^^^^^^^^^^^^^^^^^^^^^^^^^^^
1913
1914
1916
1917
1919
1920
1923
1924
1925
1926
1927
1928
1929
1930
1932
1933
1936
1937
1938
1940
1941
1942
1943
1949
1950
1951
1952
1953
1954
1956
1960
1962
1963
1965
1966
1967
1969
1971
1977
1979
1982
2019
2028
2029
2030
2035
2056
2237
2238
2239
2240
2241
2242
2243
2244
2245
2246
2247
2248
2249
2250
2251
2252
2253
2254
2255
2256
2257
2258
2259
2260
2261
2262
2263
2264
2265
2266
2267
2268
2269
2270
2271
2272
2273
2274
2275
2276
2277
2278
2279
2280
2281
2283
2289
2293
2294
2295
2296
2297
2298
2299
2301
2304
2306
2309
2313
2315
2317
2320
2323
2327
2328
2329
2333
2336
2342
2346
2347
2348
2352
2353
2354
2356
2358
2378
2381
2383
2385
2386
2387
2413
2416
2420
2425
2428
2438
2444
2445
2446
2447
2448
2449
2450
2451
2452
2453
2454
2455
2456
2457
2482
2483
2484
2485
2486
2490
2492
2493
2494
2496
2497
2498
2499
2500
2501
2502
2503
2504
2505
2506
2507
2510
2511
2512
2513
2517
2519
2521
2522
2523
2524
2525
2526
2527
2528
2529
2531
2534
2538
2539
2540
2541
2542
2544
2545
2546
2547
2549
2552
2553
2554
2555
2571
2572
2574
2590
2592
2623
2645
2648
2666
2668
2675
2677
2694
2696
2702
2704
2994
2995
2996
2997
2998
2999
3000
3001
3002
3003
